<svg id="Layer_1" data-name="Layer 1" xmlns="http://www.w3.org/2000/svg" viewBox="0 0 310 310"><defs><style>.cls-1{fill:#616261;}.cls-2{fill:#757576;}</style></defs><path class="cls-1" d="M220.42,61.49V42.84a11.6,11.6,0,0,0-4.7-9.24,13.57,13.57,0,0,0-8.24-2.75,14.11,14.11,0,0,0-3.64.48L72.66,60.08a13.23,13.23,0,0,0-3.31,1.42H220.42Z"/><path class="cls-2" d="M240.43,69.93H69.57A7.58,7.58,0,0,0,62,77.48V271.6a7.56,7.56,0,0,0,7.55,7.55H240.43A7.56,7.56,0,0,0,248,271.6V77.48A7.56,7.56,0,0,0,240.43,69.93Zm-145.77,41H217.72v8.37H94.66Zm0,56.92H217.72v8.38H94.66Zm0,29.31H217.72v8.37H94.66Zm0,29.3H217.72v8.37H94.66Z"/></svg>