<svg id="Layer_1" data-name="Layer 1" xmlns="http://www.w3.org/2000/svg" viewBox="0 0 1024 768"><defs><style>.cls-1{fill:#afb8bd;}.cls-2{fill:#f3f4f4;stroke:#afb8bd;stroke-linecap:round;stroke-linejoin:round;stroke-width:8.44px;}.cls-3{fill:#d1d3d4;}.cls-4{fill:#a7a9ac;opacity:0.24;}.cls-5{fill:#414042;}.cls-6{fill:#580000;}.cls-7{fill:#f07793;}</style></defs><path class="cls-1" d="M333.06,280.66a71.75,71.75,0,0,1-6.05,6.4c-1.16,1.09-2.36,2.14-3.58,3.16-.64.53-1.28,1-1.93,1.56-1.1.87,1.26-.95.16-.13l-1.31,1a83,83,0,0,1-9,5.72q-2.55,1.41-5.21,2.61l-1.17.53c-1.37.59,1.4-.58.05,0-1,.39-1.93.77-2.91,1.12a68.51,68.51,0,0,1-11.6,3.12l-1.35.22a3.36,3.36,0,0,0-.81.12s1.76-.22.83-.11c-1.1.13-2.2.25-3.3.33a58.52,58.52,0,0,1-6.21.15c-1.06,0-2.11-.08-3.17-.16l-1.45-.13-.88-.09c-.25,0-1.61-.21-.34,0s.17,0-.06,0l-.89-.14-1.48-.27c-1.2-.22-2.39-.49-3.58-.78a67.24,67.24,0,0,1-6.65-2.06l-1.68-.64-.76-.31c-1.17-.47,1.4.62.25.1s-2.38-1.07-3.54-1.66a74.79,74.79,0,0,1-7.77-4.47c-1.33-.86-2.63-1.77-3.91-2.7l-.94-.7-.47-.36c-.37-.28-.21-.16.47.37-.25.08-1.8-1.43-2-1.64a121,121,0,0,1-15.88-16c-2.09-2.5-6.64-2.32-8.77,0-2.44,2.66-2.23,6.11,0,8.77,8.42,10.06,18.31,19.21,29.8,25.68a73.81,73.81,0,0,0,30.28,9.43c17,1.4,34.29-4.26,48.28-13.8a84,84,0,0,0,17.35-15.4,6.64,6.64,0,0,0,1.81-4.39,6.3,6.3,0,0,0-1.81-4.38c-2.29-2.1-6.56-2.66-8.77,0Z"/><path class="cls-1" d="M227,279.73c.39-6.38,1.24-12.61,0-19a6.23,6.23,0,0,0-6-4.55c-2.6.12-5.43,1.82-6,4.55a52.62,52.62,0,0,0-.84,9.12c0,1.24-.1,2.49-.19,3.73-.07,1-.07-.2.06-.25-.05,0-.17,1-.2,1.17-.15.72-.34,1.42-.55,2.11l9.1-3.7a23.57,23.57,0,0,1-2.16-1.28c-.36-.24-.72-.58-1.11-.79.79.62.93.73.42.32l-.56-.45a43.42,43.42,0,0,1-4.25-4.11c-.66-.73-1.3-1.47-1.92-2.23l-.48-.61c.58.75.66.86.27.33s-.59-.81-.88-1.23a32.73,32.73,0,0,1-2.79-4.83l-9.73,7.51c.14.17.85,1.05.21.24s.09.15.17.27c.31.45.62.92.91,1.39.61,1,1.17,2,1.7,3,1,2.05,2,4.16,3,6.23,2.28,4.73,5.2,8.93,9.58,11.93L221,278a74.44,74.44,0,0,0-23.78-7.57c-1.65-.22-3.28-.34-4.78.63a6.35,6.35,0,0,0-2.53,3c-1.09,2.58-.29,6.5,2.53,7.74a55.12,55.12,0,0,0,12.81,3.43,60.27,60.27,0,0,1,6,1.31l1.35.43.65.24c.8.28-.36-.13-.53-.24.83.55,1.78.89,2.61,1.45L216.77,277a83.34,83.34,0,0,0-10.28,5c-1.49.81-3,1.55-4.52,2.27-.43.19-.25.12.53-.22l-.58.23-1.15.41a22.57,22.57,0,0,1-2.54.66L203,296.71c1.62-.86,3.27-1.67,4.94-2.45,1-.45,2-.9,2.93-1.33l.68-.3c.21-.09,1.25-.53.29-.12l.12-.05.87-.36a52,52,0,0,1,11.48-3.56,6.18,6.18,0,0,0,3.7-2.85,6.19,6.19,0,0,0-2.22-8.48,7.23,7.23,0,0,0-4.78-.63,52.86,52.86,0,0,0-11.82,3.71c-4.23,1.72-8.41,3.58-12.45,5.71a6.2,6.2,0,0,0-2.54,7.75,6.28,6.28,0,0,0,7.31,3.59,39,39,0,0,0,10.48-4.2c1.5-.8,3-1.64,4.48-2.44.74-.39,1.49-.77,2.24-1.13l1.13-.52-.54.23.75-.29a6.23,6.23,0,0,0,1.49-11.33c-3.6-2.47-8-3.53-12.26-4.31-2-.37-4.06-.7-6.07-1.12-.94-.2-1.88-.42-2.8-.68-.5-.14-1-.29-1.49-.46s-2.08-.87-.23,0l-4.77,11.33a69.6,69.6,0,0,1,11.22,2.48q2.74.84,5.41,1.9c.39.15,1.93.55.33.12a8.81,8.81,0,0,1,1.18.52q1.35.62,2.67,1.29c2.88,1.48,6.86.85,8.48-2.22A6.35,6.35,0,0,0,221,278c-.2-.14-1.05-.77-.21-.12s.14.09,0-.05c-.38-.33-.74-.68-1.09-1.05s-1.44-1.9-.33-.28c-.29-.42-.6-.83-.88-1.25a45.42,45.42,0,0,1-3.07-5.71c-2.14-4.52-4.23-8.82-7.45-12.71-2-2.37-5.9-2.21-8.14-.48-2.59,2-2.9,5.14-1.59,8A44.54,44.54,0,0,0,206,275.41a37.31,37.31,0,0,0,10.18,8.24,6.29,6.29,0,0,0,9.1-3.7,34.36,34.36,0,0,0,1.3-9.13c0-1.24.05-2.49.11-3.73,0-.7.12-1.4.15-2.1,0-.89-.21,1.12,0,.25.07-.39.13-.78.21-1.17H215c.07.35.13.7.2,1.06.17.81-.14-1.59,0-.14,0,.66.1,1.32.12,2,0,1.42,0,2.85-.06,4.28-.15,2.83-.45,5.65-.63,8.47a6.24,6.24,0,0,0,6.2,6.2,6.34,6.34,0,0,0,6.2-6.2Z"/><path class="cls-1" d="M692.28,342.05a83.79,83.79,0,0,0,18.7,8.72,86,86,0,0,0,23.9,4.34A70.52,70.52,0,0,0,761,351.27a72.22,72.22,0,0,0,26.18-16.4c9.11-8.87,16.06-19.88,21.26-31.42.92-2,1.79-4.1,2.63-6.17a6.18,6.18,0,0,0-.62-4.77,6.21,6.21,0,0,0-8.48-2.23,7.22,7.22,0,0,0-2.85,3.71c-.16.38-.34.76-.48,1.15,0-.14.58-1.34.15-.35l-.24.56c-.35.8-.7,1.6-1.06,2.39q-1.1,2.4-2.28,4.74c-1.44,2.83-3,5.61-4.66,8.31-1.57,2.54-3.25,5-5.06,7.4l-.29.39c-.4.53.54-.69.47-.61-.2.24-.39.5-.59.75q-.69.87-1.41,1.71c-.86,1-1.74,2-2.65,3a74.93,74.93,0,0,1-5.58,5.41c-.92.79-1.87,1.55-2.81,2.31-.5.4.79-.65.71-.54a3.88,3.88,0,0,1-.44.33l-.66.49-1.54,1.09a62.71,62.71,0,0,1-5.81,3.56c-1,.53-2,1-3,1.5l-1.48.68-.69.29a7.92,7.92,0,0,0,.8-.33l-.46.18A61.87,61.87,0,0,1,748,341.9l-1.49.26-.69.1-.35.05c-.8.13,1-.12,1-.13a15.18,15.18,0,0,0-3,.33q-3,.25-6,.25c-2,0-3.93-.09-5.89-.25-.94-.07-1.89-.17-2.83-.28l-.65-.08c-.89-.11,1.88.26.68.09l-1.39-.21a83.33,83.33,0,0,1-10.7-2.46c-1.69-.51-3.35-1.06-5-1.67-.78-.29-1.56-.59-2.33-.9l-.48-.2c1.28.54-.21-.09-.54-.24a73.72,73.72,0,0,1-8.05-4.15c-.58-.34-1.16-.7-1.73-1.06a6.24,6.24,0,0,0-8.48,2.22,6.33,6.33,0,0,0,2.22,8.48Z"/><path class="cls-1" d="M810.93,294.65c-1-2.64-2.17-5.23-3.17-7.88-.47-1.27-.92-2.55-1.29-3.85-.21-.71-.39-1.43-.54-2.15-.06-.28-.11-.57-.17-.86-.3-1.48.15,1.43,0-.06L794.19,283c.35.62.66,1.25,1,1.89.38.81.05-.19-.13-.33.19.16.3.76.38,1,.46,1.24.87,2.49,1.31,3.74a34.37,34.37,0,0,0,3.94,8.33,6.32,6.32,0,0,0,4.53,3,6.1,6.1,0,0,0,5.21-1.7,37.32,37.32,0,0,0,7.35-11.08A48.85,48.85,0,0,0,822,273.41a6.15,6.15,0,0,0-1.82-4.39,6.33,6.33,0,0,0-3.56-1.7c-3.27-.44-5.63,1.53-6.8,4.44a31.94,31.94,0,0,0-1.77,6.36c-.2,1.11-.36,2.23-.51,3.35-.13.94-.26,1.88-.38,2.82,0,.26-.07.52-.1.78s-.19,1.41,0,.35-.08.61-.13.91c-.08.5-.16,1-.25,1.51-.19,1.05-.41,2.09-.7,3.12-.13.47-.27.94-.43,1.41a5.6,5.6,0,0,0-.26.68c0-.23.58-1.22.2-.47-.25.49-.48,1-.76,1.45s-1.32,1.88-.18.42a6.77,6.77,0,0,0-1.82,4.38,6.2,6.2,0,0,0,10.58,4.39q2-2,4.2-3.81c.34-.29.69-.57,1-.85l.7-.55c-.61.47-.73.56-.37.29.8-.58,1.58-1.16,2.38-1.72a70.21,70.21,0,0,1,9.94-5.76l-7.51-9.74-.48.42c-.85.78,1-.67.37-.27-.36.24-.71.51-1.07.76-.86.57-1.74,1.11-2.64,1.61-1.81,1-3.68,2-5.52,3-3.77,2-7.77,4.33-10.42,7.75-1.59,2-2.36,4.24-1.29,6.78a6.31,6.31,0,0,0,5.67,3.81c.86,0,1.74.22,2.6.23l-.77-.1.87.14,1.11.19c1.71.31,3.41.66,5.11,1a39,39,0,0,0,11.28.89c3.1-.34,5.65-2.1,6.09-5.37.37-2.81-1.4-6.26-4.45-6.8a136.66,136.66,0,0,0-13.82-1.77,57.9,57.9,0,0,0-13.86.29,6.22,6.22,0,0,0-3.7,2.85,6.34,6.34,0,0,0-.63,4.78c1.13,3.48,4.19,4.88,7.63,4.33.84-.14-.86.11-.86.1l.7-.07c.45-.05.9-.08,1.35-.11.93,0,1.87-.07,2.8-.06,2.19,0,4.38.12,6.57.29s4.26.39,6.38.66l.69.09c-.38-.05-1.51-.21-.49-.06l1.27.19c.9.13,1.79.28,2.68.44l1.65-12.18a24.38,24.38,0,0,1-5,0c-.2,0-1.74-.21-.72-.07s-.29,0-.5-.09c-.89-.14-1.78-.31-2.67-.48a83.52,83.52,0,0,0-11.33-1.71l4.38,10.58a15.53,15.53,0,0,1,1.83-2c.2-.19.41-.36.61-.54.61-.55-.33.25-.48.35.42-.28.82-.6,1.24-.88a58.18,58.18,0,0,1,5.35-3.11c3.94-2.08,7.85-4.11,11.22-7.08,2.31-2,2.26-5.84.48-8.14-2-2.57-5.16-2.94-8-1.6a74.73,74.73,0,0,0-20.39,14.34l8.76,8.77a25.48,25.48,0,0,0,4.25-7.73,36.63,36.63,0,0,0,1.44-6.63c.22-1.52.41-3.05.61-4.57,0-.23.18-1.41,0-.35s0,0,0-.16q.12-.88.27-1.77a34,34,0,0,1,1.88-6.95l-12.18-1.65c.27-2.18.06-.51,0,0s-.17.91-.28,1.36c-.22.95-.48,1.9-.77,2.83s-.56,1.7-.88,2.54a7.84,7.84,0,0,0-.58,1.45c.37-.88.43-1,.16-.4l-.32.71a45.2,45.2,0,0,1-2.73,5c-.26.4-.52.8-.8,1.19s-1.37,1.47-.05.12c-.58.59-1.08,1.28-1.67,1.87l9.74,1.25a26.75,26.75,0,0,1-2-3.53c-.38-.73.55,1.43,0,.13l-.3-.79c-.25-.65-.48-1.31-.7-2a52.52,52.52,0,0,0-3.5-8.46,6.28,6.28,0,0,0-7-2.85c-2.41.78-4.85,3.23-4.55,6a39.65,39.65,0,0,0,2.3,9.79c1,2.8,2.25,5.52,3.32,8.31a6.71,6.71,0,0,0,2.85,3.7,6.34,6.34,0,0,0,4.78.63c2.94-.95,5.58-4.39,4.33-7.63Z"/><path class="cls-1" d="M443.14,548.42l-14.86-2.1-.77,112.26s-37.95,9.08-30.91,17,45.13-3.67,45.13-3.67Z"/><path class="cls-1" d="M602.36,548.19l14.79-2.5L621,657.89s38.19,8,31.37,16.09-45.22-2.42-45.22-2.42Z"/><path class="cls-2" d="M683.61,610H351.82a38.06,38.06,0,0,1-38.06-38.06V131.72a38.05,38.05,0,0,1,38.06-38H608.07L721.66,209.84v362.1A38.05,38.05,0,0,1,683.61,610Z"/><path class="cls-3" d="M609,89.7l-6.38,81.71a38.2,38.2,0,0,0,41.27,41.05l78.7-6.58Z"/><rect class="cls-4" x="370.66" y="389.77" width="289.14" height="18.07"/><rect class="cls-4" x="370.66" y="347.08" width="193.44" height="19.5"/><rect class="cls-4" x="370.66" y="305.77" width="193.44" height="19.5"/><rect class="cls-4" x="370.66" y="432.37" width="289.14" height="18.07"/><rect class="cls-4" x="370.66" y="474.96" width="289.14" height="18.07"/><rect class="cls-4" x="370.66" y="521.88" width="289.14" height="18.07"/><circle class="cls-5" cx="476.87" cy="206.54" r="15.71" transform="translate(-40.28 155.39) rotate(-17.77)"/><circle class="cls-5" cx="558.56" cy="206.54" r="15.71" transform="translate(-36.39 180.32) rotate(-17.77)"/><path class="cls-6" d="M557.12,271.93c-2.26,2.86-27.16,9.52-37.88,9.43-11.83.09-34-7.26-36-8.94-14-12.06-8-28.36,0-28.77,8.68-.44,21.18,3.37,36.47,3.26,15.26.12,28.26-3.69,36.94-3.25C564.73,244.08,568.09,258,557.12,271.93Z"/><path class="cls-7" d="M557.12,271.93a55.66,55.66,0,0,1-9.33,6.78,55.44,55.44,0,0,1-64.52-6.29,1.26,1.26,0,0,1,.33-.36C512.14,255.42,552.86,267.29,557.12,271.93Z"/></svg>