<svg id="Layer_1" data-name="Layer 1" xmlns="http://www.w3.org/2000/svg" xmlns:xlink="http://www.w3.org/1999/xlink" viewBox="0 0 1024 768"><defs><style>.cls-1,.cls-11,.cls-27{fill:none;}.cls-2{fill:#afb8bd;}.cls-3{fill:#bcbec0;}.cls-4{clip-path:url(#clip-path);}.cls-5{fill:#8dc63f;}.cls-6{fill:#3e721d;}.cls-7{fill:#662113;}.cls-8{fill:#edb980;}.cls-9{clip-path:url(#clip-path-2);}.cls-10{fill:#e5a157;}.cls-11{stroke:#ffd983;stroke-width:1.6px;}.cls-11,.cls-27{stroke-linecap:round;stroke-linejoin:round;}.cls-12{fill:#ffdd21;}.cls-13{fill:#fbbb16;}.cls-14{fill:#d9596c;}.cls-15{fill:#f0a716;}.cls-16{clip-path:url(#clip-path-3);}.cls-17{fill:#5c913b;}.cls-18{fill:#f4900c;}.cls-19{clip-path:url(#clip-path-4);}.cls-20{fill:#f7b82d;}.cls-21{fill:#77b255;}.cls-22{fill:#ffe8b6;}.cls-23{fill:#ed1c24;}.cls-24{fill:#e6e7e8;}.cls-25{fill:#6d6e71;}.cls-26{fill:#a7a9ac;}.cls-27{stroke:#a7a9ac;stroke-width:3.6px;stroke-dasharray:13.57;opacity:0.42;}.cls-28{fill:#414042;}.cls-29{fill:#ffc4b2;}.cls-30{fill:#231f20;}</style><clipPath id="clip-path"><rect class="cls-1" x="306.86" y="151.24" width="162.86" height="158.81" transform="translate(-61.68 192.04) rotate(-25.81)"/></clipPath><clipPath id="clip-path-2"><path class="cls-1" d="M440.11,142.36,547.83,322.93c21.53,36.11,13.3,70.39-1.66,79.32s-49-.12-70.58-36.24L367.88,185.46c-21.53-36.12-13.3-70.4,1.67-79.33,5.77-3.44,14.4-4.2,24.06-1.76,15.34,3.87,33.29,15.84,46.5,38"/></clipPath><clipPath id="clip-path-3"><rect class="cls-1" x="490.56" y="115.15" width="198.65" height="198.65" transform="translate(-8.29 404.61) rotate(-37.61)"/></clipPath><clipPath id="clip-path-4"><path class="cls-1" d="M550.43,277.26c7.41,15,16.09,20.11,22.79,22.13.13.29.27.51.45.52.94.13,2,.27,3.27.36s2.24.36,3.17.49c.16,0,.34-.16.52-.37,7.36-.13,17.78-2.68,28.91-15.46,61.52-70.57,9.16-162.46,3.56-169.73,0,0-6.45-7.07-11-7.22-3.74-.92-10.66,4.41-10.66,4.41-7.28,5.61-82.5,81-41,164.87"/></clipPath></defs><path class="cls-2" d="M506.19,613.23l-10.82-1.53-.57,81.83s-27.66,6.61-22.53,12.36,32.9-2.68,32.9-2.68Z"/><path class="cls-2" d="M549,610.62l10.78-1.82,2.83,81.78s27.83,5.84,22.86,11.73-33-1.76-33-1.76Z"/><path class="cls-3" d="M414.07,327.7c.17-64.47,19.55-129.47,56.75-182.35,18.86-26.81,45-50.74,78.95-54.24a64.9,64.9,0,0,1,42,9.74c12.18,7.89,21.62,19.43,28.75,32,8.73,15.3,14.56,32,19.12,49,5.48,20.41,22.32,103,24.39,124.07.71,7.22,11.8,5.36,11.1-1.8C671.61,268,651,168.23,634.74,135.56c-14-28.14-37.49-52.76-70.38-55.72-35.13-3.17-66.74,16.3-89.18,41.76-23,26.09-39.87,58.56-51.81,91.06A333.85,333.85,0,0,0,402.88,326.6c0,7.18,11.17,8.34,11.19,1.1Z"/><g class="cls-4"><path class="cls-5" d="M369.29,178.39c-8.87,10.27-5.53,13.15-14.39,23.43s-12.21,7.39-21.08,17.67c-11.82,13.69-19.92,36.58,3.46,56.76,36.74,31.7,84.53,37.09,96.35,23.39,8.87-10.27,5.53-13.16,11.44-20s9.25-4,18.11-14.24c11.83-13.7-.5-60.19-37.23-91.89C402.56,153.33,381.11,164.69,369.29,178.39Z"/><path class="cls-6" d="M352.46,203.83s-20.86-7.39-39.69,5.07c-15.06,10-17.8,22.39-17.8,22.39s22.23,1.19,33.53-6.29S352.46,203.83,352.46,203.83Z"/><path class="cls-7" d="M361.58,207.58a4.48,4.48,0,0,1-6.3.55c-11.49-9.92-18.55-23.18-19.35-36.38a4.6,4.6,0,0,1,4.18-4.84,4.34,4.34,0,0,1,4.73,4.08c.65,10.85,6.62,21.88,16.35,30.29A4.47,4.47,0,0,1,361.58,207.58Z"/></g><path class="cls-8" d="M475.59,366c21.54,36.12,55.62,45.16,70.58,36.24s23.19-43.21,1.66-79.32L440.1,142.36c-21.54-36.11-55.59-45.15-70.57-36.23s-23.19,43.21-1.65,79.32Z"/><g class="cls-9"><path class="cls-10" d="M400.32,175.91c4.76,8,16.42,0,31.38-8.94s27.54-15.4,22.78-23.37-20.73-7.22-35.69,1.7-23.24,22.63-18.47,30.61"/><path class="cls-11" d="M450.17,136.37c-13.32-1.83-49.43,19.71-54.16,32.32"/><path class="cls-10" d="M426.16,219.24c4.77,8,16.43,0,31.4-8.93s27.53-15.41,22.77-23.38-20.74-7.21-35.71,1.72-23.21,22.61-18.46,30.59"/><path class="cls-11" d="M476,179.71c-13.33-1.84-49.44,19.7-54.17,32.31"/><path class="cls-10" d="M452,262.57c4.76,8,16.43,0,31.39-8.93s27.54-15.4,22.78-23.37-20.74-7.22-35.7,1.71S447.24,254.6,452,262.56"/><path class="cls-11" d="M501.87,223c-13.34-1.84-49.45,19.71-54.17,32.3"/><path class="cls-10" d="M477.85,305.91c4.75,8,16.44,0,31.39-8.93s27.53-15.41,22.79-23.39-20.74-7.21-35.7,1.71-23.22,22.63-18.47,30.61"/><path class="cls-11" d="M527.72,266.37c-13.34-1.84-49.45,19.71-54.17,32.32"/><path class="cls-10" d="M503.71,349.24c4.75,8,16.43,0,31.38-8.93s27.53-15.41,22.78-23.38-20.74-7.21-35.7,1.71-23.22,22.63-18.46,30.6"/><path class="cls-11" d="M553.56,309.71c-13.33-1.83-49.44,19.7-54.16,32.31"/></g><path class="cls-12" d="M495.22,97.44c28.75,15.49,46.06,47.89,48.4,80.47s-8.72,65-25.72,92.92a231.35,231.35,0,0,1-93.21,85.85c-3.12-2.2-6.06-3.91-9.17-6.11,46.14-55.44,70.37-130.7,68.68-202.81-.68-29.27-5.61-58.68-1.44-87.66,6.57,1,16.22.65,21.48,4.73C501,75.8,498.47,86.47,495.22,97.44Z"/><path class="cls-13" d="M415.52,350.57s85.16-95.28,66.06-248.38C481.58,102.19,577.6,206.05,415.52,350.57Z"/><path class="cls-14" d="M502.8,69.82l-20.58-5.49.54-4.23s16,.33,21.48,4.73Z"/><path class="cls-14" d="M424.69,356.68l-3.1-6.45a37.12,37.12,0,0,0-4.33-1.87c-.17.15-2.37,2.7-2.37,2.7l8.07,6.16Z"/><path class="cls-15" d="M521.73,140.43a71.26,71.26,0,0,0,5.46,9.81,2.69,2.69,0,0,0,3.72.64,2.72,2.72,0,0,0,.64-3.72q-1.44-2.15-2.7-4.4l-.63-1.15c-.08-.14-.39-.7-.05-.08-.1-.18-.18-.36-.27-.54q-.6-1.17-1.14-2.37a2.74,2.74,0,0,0-3.42-1.61,2.71,2.71,0,0,0-1.61,3.42Z"/><path class="cls-15" d="M531.24,163.43a13.93,13.93,0,0,0,1.17,7.17,2.85,2.85,0,0,0,1.4,1.52,2.68,2.68,0,0,0,3.54-1.32,2.64,2.64,0,0,0,.08-2,12.05,12.05,0,0,1-.82-2.39l.15.67a11.34,11.34,0,0,1-.26-3l0,.68,0-.45a2.88,2.88,0,0,0-.45-2,2.77,2.77,0,0,0-1.73-1.09,2.7,2.7,0,0,0-2,.45,2.63,2.63,0,0,0-1.09,1.73Z"/><path class="cls-15" d="M522.85,159.43c.06,1,.11,2,.17,2.93a1.93,1.93,0,0,0,.31,1,2.12,2.12,0,0,0,.65.84,2.05,2.05,0,0,0,.92.46,1.93,1.93,0,0,0,1,.13l.67-.14a2.74,2.74,0,0,0,1.16-.82l.37-.59a2.68,2.68,0,0,0,.23-1.34c-.06-1-.11-2-.16-2.92a3,3,0,0,0-1-1.84,3,3,0,0,0-1.92-.59l-.68.14a2.74,2.74,0,0,0-1.16.82l-.37.59a2.78,2.78,0,0,0-.23,1.33Z"/><path class="cls-15" d="M523.81,178.47l-.61,2.23a2.07,2.07,0,0,0,0,1,2.12,2.12,0,0,0,.41,1,2,2,0,0,0,.78.7,2,2,0,0,0,1,.39l.68,0a2.78,2.78,0,0,0,1.31-.48l.53-.49a2.74,2.74,0,0,0,.56-1.24c.21-.75.41-1.49.61-2.24a2,2,0,0,0,0-1,2,2,0,0,0-.41-1,2,2,0,0,0-.78-.71,2,2,0,0,0-.94-.38l-.69,0a2.61,2.61,0,0,0-1.31.48l-.52.49a2.57,2.57,0,0,0-.57,1.24Z"/><path class="cls-15" d="M531.39,194.2c.07,1.22.13,2.44.2,3.66a1.94,1.94,0,0,0,.32,1,1.92,1.92,0,0,0,.65.84,2.94,2.94,0,0,0,1.92.6,2.7,2.7,0,0,0,1.84-1,2.85,2.85,0,0,0,.59-1.92c-.06-1.22-.13-2.44-.2-3.66a3,3,0,0,0-1-1.84,2,2,0,0,0-.91-.46,2,2,0,0,0-1-.13,2.73,2.73,0,0,0-1.84,1,2.85,2.85,0,0,0-.59,1.92Z"/><path class="cls-15" d="M468.52,308.51q-.07.35-.18.69c.06-.21.13-.43.2-.65a10,10,0,0,1-1,2.23l.36-.59a9.46,9.46,0,0,1-1.56,1.89l.52-.49a9,9,0,0,1-1,.77,2.74,2.74,0,0,0-1.09,1.73,2.67,2.67,0,0,0,4.17,2.63,12,12,0,0,0,4.82-7.3,2.69,2.69,0,0,0-2.18-3.09,2.73,2.73,0,0,0-3.08,2.18Z"/><path class="cls-15" d="M479.61,301.43c-.44.76-.89,1.52-1.34,2.28a2,2,0,0,0-.21,1,2.77,2.77,0,0,0,1.54,2.54l.65.2a2.63,2.63,0,0,0,1.36-.12l.63-.33a2.6,2.6,0,0,0,.89-1.08l1.35-2.27a2,2,0,0,0,.21-1,2,2,0,0,0-.13-1,2,2,0,0,0-.58-.9,1.94,1.94,0,0,0-.83-.63l-.65-.2a2.63,2.63,0,0,0-1.36.12l-.63.33a2.74,2.74,0,0,0-.9,1.07Z"/><path class="cls-15" d="M455.58,323.51c-.47.51-.93,1-1.39,1.54a2.05,2.05,0,0,0-.46.92,2.4,2.4,0,0,0,.18,2,2,2,0,0,0,.65.84l.59.37a2.68,2.68,0,0,0,1.34.23l.67-.15a2.65,2.65,0,0,0,1.16-.82l1.38-1.54a2,2,0,0,0,.47-.92,2.4,2.4,0,0,0-.18-2,1.94,1.94,0,0,0-.66-.84l-.58-.37a2.8,2.8,0,0,0-1.34-.23l-.67.15a2.6,2.6,0,0,0-1.16.82Z"/><g class="cls-16"><path class="cls-17" d="M670.61,168.47c-1.67,12.87-14,57.11-47.81,65.81S593.11,216,608.5,193.15c8.11-12,22.64-23.25,50.06-32.79,13.71-4.76,12.05,8.11,12.05,8.11M523,164.9c-1.66,12.87-2.86,43,27.67,60s34.51-10.54,24.31-36.12c-17-42.62-47.91-51.57-47.91-51.57"/><path class="cls-18" d="M613.1,115.19s-6.45-7.06-11-7.21c-3.74-.92-10.66,4.4-10.66,4.4-7.27,5.61-82.5,81-41,164.88,7.41,15,16.09,20.11,22.8,22.12.12.3.26.51.44.53.94.13,2,.27,3.27.36s2.25.36,3.17.48c.17,0,.35-.16.52-.36,7.35-.13,17.78-2.69,28.9-15.46,61.53-70.58,9.16-162.46,3.57-169.74"/></g><g class="cls-19"><path class="cls-20" d="M586.68,214.93a6.32,6.32,0,0,1-7.07,5.45l-12.51-1.62a6.3,6.3,0,0,1-5.45-7v0a6.31,6.31,0,0,1,7.07-5.44l12.52,1.63a6.29,6.29,0,0,1,5.44,7.06h0m-2.43,18.78a6.31,6.31,0,0,1-7.07,5.44l-12.52-1.62A6.31,6.31,0,0,1,566.28,225l12.52,1.61a6.32,6.32,0,0,1,5.45,7.08M582,252.65a6.32,6.32,0,0,1-7.07,5.45l-12.52-1.63A6.31,6.31,0,0,1,564,244l12.51,1.62a6.31,6.31,0,0,1,5.45,7.07m7.15-56.49a6.31,6.31,0,0,1-7.06,5.45L569.53,200a6.31,6.31,0,0,1,1.62-12.51l12.51,1.62a6.31,6.31,0,0,1,5.45,7.07h0m2.44-18.78a6.32,6.32,0,0,1-7.07,5.45L572,181.2a6.31,6.31,0,0,1,1.63-12.51l12.51,1.62a6.31,6.31,0,0,1,5.45,7.07m7.4-56.16a6.31,6.31,0,0,1-7.06,5.45h0L579.37,125a6.28,6.28,0,0,1-5.45-7v0a6.29,6.29,0,0,1,7-5.45h0l12.52,1.62a6.31,6.31,0,0,1,5.44,7.07m-2.53,18.61a6.32,6.32,0,0,1-7.07,5.45h0l-12.52-1.63a6.31,6.31,0,1,1,1.62-12.51L591,132.76a6.31,6.31,0,0,1,5.44,7.07M556.2,204.61a6.33,6.33,0,0,1-7.08,5.46l-12.5-1.63a6.31,6.31,0,1,1,1.62-12.51l12.52,1.61a6.34,6.34,0,0,1,5.45,7.08m4.86-37.55a6.31,6.31,0,0,1-7.07,5.44h0l-12.52-1.62a6.31,6.31,0,0,1,1.62-12.51L555.62,160a6.32,6.32,0,0,1,5.45,7.07m-2.43,18.78a6.32,6.32,0,0,1-7.07,5.44l-12.52-1.62a6.31,6.31,0,0,1,1.62-12.52l12.52,1.62a6.31,6.31,0,0,1,5.44,7.07h0M594,158.61a6.31,6.31,0,0,1-7.07,5.44l-12.52-1.62A6.31,6.31,0,1,1,576,149.91l12.51,1.62a6.34,6.34,0,0,1,5.45,7.08"/><path class="cls-20" d="M617.13,226a6.32,6.32,0,0,1-7.07,5.45l-12.51-1.63a6.3,6.3,0,0,1-5.45-7.05v0a6.3,6.3,0,0,1,7.06-5.44l11.8,1.53a7.26,7.26,0,0,1,6.17,7.15h0m-2.43,18.77a6.33,6.33,0,0,1-7.07,5.45l-12.26-1.59a6.47,6.47,0,0,1-5.65-5,6.34,6.34,0,0,1,7-7.52l12.52,1.62a6.32,6.32,0,0,1,5.45,7.07m4.86-37.54a6.31,6.31,0,0,1-7.07,5.44L600,211.07a6.32,6.32,0,0,1,1.62-12.52l16.18,2.1a3.7,3.7,0,0,1,1.78,6.6h0M622,188.46a6.32,6.32,0,0,1-7.07,5.45l-12.25-1.59a6.44,6.44,0,0,1-5.65-5,6.32,6.32,0,0,1,7-7.52l12.51,1.61a6.32,6.32,0,0,1,5.45,7.08m7.4-56.17a6.3,6.3,0,0,1-7.06,5.45h0l-12.51-1.62a6.28,6.28,0,0,1-5.45-7h0a6.14,6.14,0,0,1,6.5-5.52l.57,0L624,125.24a6.3,6.3,0,0,1,5.44,7.06m-2.54,18.62a6.3,6.3,0,0,1-7.06,5.44h0l-12.26-1.59a6.46,6.46,0,0,1-5.65-5,6.33,6.33,0,0,1,7-7.53l12.52,1.63a6.3,6.3,0,0,1,5.44,7.06M586.65,215.7a6.32,6.32,0,0,1-7.08,5.45l-12.25-1.59a6.45,6.45,0,0,1-5.64-5,6.32,6.32,0,0,1,7-7.52l12.52,1.61a6.31,6.31,0,0,1,5.44,7.07m4.87-37.55a6.32,6.32,0,0,1-7.07,5.45h0L572.2,182a6.49,6.49,0,0,1-5.66-5,6.33,6.33,0,0,1,7-7.53l12.52,1.62a6.33,6.33,0,0,1,5.45,7.07m-2.43,18.78a6.33,6.33,0,0,1-7.07,5.45l-12.52-1.63a6.31,6.31,0,0,1,1.62-12.51l7.08.92a15.83,15.83,0,0,1,10.88,7.77h0m35.35-27.24a6.33,6.33,0,0,1-7.07,5.45l-12.25-1.59a6.45,6.45,0,0,1-5.66-5,6.33,6.33,0,0,1,7-7.53L619,162.62a6.33,6.33,0,0,1,5.45,7.07"/><path class="cls-20" d="M674.79,230.41a6.32,6.32,0,0,1-7.07,5.45l-12.51-1.63a6.29,6.29,0,0,1-5.45-7v0a6.3,6.3,0,0,1,7.06-5.44l11.79,1.53a7.28,7.28,0,0,1,6.18,7.16h0m-2.43,18.77a6.33,6.33,0,0,1-7.08,5.45L653,253a6.45,6.45,0,0,1-5.65-5,6.33,6.33,0,0,1,7-7.53l12.52,1.62a6.33,6.33,0,0,1,5.45,7.07m4.86-37.54a6.32,6.32,0,0,1-7.07,5.45l-12.52-1.63a6.32,6.32,0,0,1,1.63-12.52l16.18,2.1a3.7,3.7,0,0,1,1.78,6.6h0m2.44-18.79a6.33,6.33,0,0,1-7.08,5.45l-12.25-1.59a6.45,6.45,0,0,1-5.65-5,6.33,6.33,0,0,1,7-7.52l12.52,1.62a6.32,6.32,0,0,1,5.45,7.07m7.4-56.16a6.31,6.31,0,0,1-7.07,5.44h0l-12.51-1.62a6.28,6.28,0,0,1-5.45-7h0a6.14,6.14,0,0,1,6.5-5.52l.57,0,12.51,1.62a6.32,6.32,0,0,1,5.45,7.07m-2.54,18.61a6.3,6.3,0,0,1-7.06,5.44h0l-12.25-1.6a6.44,6.44,0,0,1-5.65-5,6.32,6.32,0,0,1,7-7.52l12.51,1.62a6.32,6.32,0,0,1,5.45,7.06m-40.21,64.79a6.33,6.33,0,0,1-7.08,5.46L625,224a6.48,6.48,0,0,1-5.65-5,6.33,6.33,0,0,1,7-7.52L638.86,213a6.33,6.33,0,0,1,5.45,7.07m4.86-37.54a6.3,6.3,0,0,1-7.06,5.44h0l-12.24-1.58a6.48,6.48,0,0,1-5.66-5,6.34,6.34,0,0,1,7-7.53l12.52,1.63a6.3,6.3,0,0,1,5.44,7.07m-2.43,18.77a6.32,6.32,0,0,1-7.07,5.45l-12.52-1.62a6.31,6.31,0,0,1,1.63-12.52l7.08.92a15.85,15.85,0,0,1,10.88,7.77h0m35.36-27.24a6.33,6.33,0,0,1-7.07,5.45l-12.25-1.59a6.45,6.45,0,0,1-5.66-5,6.32,6.32,0,0,1,7-7.53L676.65,167a6.34,6.34,0,0,1,5.45,7.07"/></g><path class="cls-21" d="M651.78,205.6c-39.14,13.63-63.8,53.69-72.84,81-1.76-28.73-15.39-73.77-49.76-96.91-13.51-9.1-43.34-5.62-46.16,16.05,18.83-5.07,36.12,4.68,41.48,20.06,4.78,13.77-.67,61.41,33.62,81.19a12.87,12.87,0,0,0-1.56,4.69l-.73,5.53a13,13,0,0,0,11.22,14.55l5.53.72a13,13,0,0,0,14.55-11.21l.72-5.54a13.83,13.83,0,0,0,0-2.8c43.52-6.79,50.66-58.53,59.21-71.24,9.1-13.51,30.77-10.69,37-2.54s7.22.94,8.16-6.28c2.81-21.67-25.16-32.65-40.53-27.29"/><path class="cls-17" d="M500.3,282.6a138.64,138.64,0,0,0,44,37.34c69.25,37.36,156.55,9.9,195-61.33,30-55.51,21.25-121.12-16.76-165.11L500.3,282.6Z"/><path class="cls-22" d="M512.68,272.07A123.09,123.09,0,0,0,552,305.61c61.55,33.2,139.15,8.8,173.32-54.52,26.69-49.48,18.84-108-15.18-147.09Z"/><path class="cls-23" d="M525.05,261.56a107.7,107.7,0,0,0,34.66,29.71c53.88,29.07,121.78,7.71,151.67-47.69,23.44-43.45,16.45-94.84-13.59-129Z"/><path class="cls-24" d="M731.3,270.87c-5.15,90.19-11.83,148-22.73,237.71-2.41,19.88-5.22,40.43-16.43,57.54-18.74,28.59-56.43,41-91.95,47.21a462.8,462.8,0,0,1-145.48,2c-31-4.51-63-13-85.14-33.57-32.23-30-35.26-76.68-36.34-118.95q-2.5-97.6-5-195.21C479.21,249.5,611.17,246.17,731.3,270.87Z"/><path class="cls-24" d="M389.53,334c-1.35-57.72-2.56-122,29.09-172.88,17.42-28,47.84-56,82.49-57.39,28.55-1.11,55.12,16.13,73.22,36.94,27.35,31.44,51.93,135.08,68.09,172.63,2.86,6.65,13.08,2,10.22-4.69C637,272.38,612.49,171.46,588.1,139.76,569.88,116.08,542.86,96.45,512.55,93c-37-4.18-71,19.74-93,47.39-19.56,24.49-30.38,54.47-35.93,85-6.44,35.4-6.06,71.64-5.22,107.48.16,7.15,11.35,8.32,11.18,1.1Z"/><path class="cls-25" d="M496.61,423.27c3.22,9,11.31,15,20.59,16.75,8.86,1.71,18.94.41,26.4-4.95a23.64,23.64,0,0,0,9.14-12.46A3.82,3.82,0,0,0,550.1,418a3.86,3.86,0,0,0-4.66,2.64c-.14.47-.3.93-.46,1.39-.08.23-.46,1,0,0l-.3.66a19.36,19.36,0,0,1-1.45,2.44c-.11.16-.24.31-.35.47-.29.44.63-.7.09-.12-.32.35-.61.72-.94,1.06a27,27,0,0,1-2.08,1.92c-.64.55.71-.49,0,0l-.49.34c-.36.25-.72.49-1.1.73-.83.5-1.68,1-2.56,1.38l-.67.3c1-.45.2-.08,0,0l-1.16.43c-1,.32-1.91.6-2.89.83a20.8,20.8,0,0,1-3,.57s1-.12.25,0l-.76.08c-.6.06-1.19.1-1.79.12-.93,0-1.87,0-2.81,0-.42,0-.85,0-1.27-.08L521,433l-.51-.06c-.42-.05-.34,0,.25,0-.07.29-5.13-1.18-5.62-1.36s-.94-.34-1.4-.52c1.07.41-.2-.1-.45-.22a24.75,24.75,0,0,1-2.58-1.41c-.48-.3-.93-.64-1.4-1-.71-.48.64.56,0,0l-.56-.47a21.05,21.05,0,0,1-2.21-2.22l-.46-.57c.71.87,0,0-.13-.21-.3-.44-.58-.89-.85-1.35s-.52-.95-.75-1.44c-.09-.2-.4-1,0,0l-.36-1a3.88,3.88,0,0,0-4.65-2.64,3.82,3.82,0,0,0-2.65,4.66Z"/><path class="cls-26" d="M713.78,443.84a51.85,51.85,0,0,1,7.05.19c.51.05,2.5.38.38,0l1.56.25c1,.18,2,.4,3,.65s1.93.53,2.88.85c.47.15.93.31,1.39.49s2.3,1.14.46.15c1.67.9,3.39,1.62,5,2.63.79.48,1.55,1,2.3,1.54l.55.41c.78.56-1.15-.93-.41-.32l1.22,1a40.51,40.51,0,0,1,3.83,3.81l.87,1c.14.17.27.35.42.52.6.74-.89-1.2-.34-.43s1,1.44,1.54,2.19a41.33,41.33,0,0,1,2.74,4.85c.2.4.38.8.57,1.21.09.2.17.41.26.61-.82-1.72-.38-.93-.22-.51.32.83.64,1.66.93,2.51a45.43,45.43,0,0,1,1.45,5.38c.17.8.31,1.61.44,2.42,0,.22.05.44.09.66-.34-2-.13-1.07-.08-.61s.11,1,.15,1.56a45.3,45.3,0,0,1,.16,5.34q0,1.33-.15,2.67c0,.44-.09.89-.14,1.33,0,.22-.06.44-.08.66.2-2.1.12-.88,0-.4a45.68,45.68,0,0,1-1.13,5.19c-.24.86-.5,1.7-.79,2.53-.15.42-.3.83-.46,1.24l-.24.62c-.48,1.22.52-1.16.14-.33a45.38,45.38,0,0,1-2.43,4.7c-.53.88-1.1,1.75-1.71,2.58-.12.18-.26.36-.39.54-.77,1.05.78-1,.2-.26-.28.34-.56.69-.85,1a36.77,36.77,0,0,1-4.5,4.41c-.17.15-.36.29-.53.43-.7.59,1.3-.95.22-.17l-1.13.8c-.91.62-1.84,1.21-2.8,1.74s-2,1.07-3,1.53c-.22.1-.46.19-.67.3,1.67-.89.65-.28.19-.09l-1.66.61c-2.77,1-4.9,3.89-3.92,6.91.89,2.74,3.94,5,6.91,3.92a44.24,44.24,0,0,0,21.66-16c4.92-6.81,7.48-15,8.27-23.35a50.49,50.49,0,0,0-3.43-23.57A47.73,47.73,0,0,0,743.69,441c-7.52-5.54-16.91-8.18-26.17-8.46-1.24,0-2.49,0-3.74,0-2.93.11-5.76,2.5-5.62,5.62.13,2.95,2.48,5.74,5.62,5.62Z"/><path class="cls-26" d="M732.43,513.87c-2.88-5.23-5.31-10.7-9.49-15.06a5.69,5.69,0,0,0-6.81-.88c-2,1.26-3.48,4-2.58,6.34a48.73,48.73,0,0,0,3.86,7.67c.61,1,1.21,2,1.75,3.1.15.29.28.6.43.9.35.66-.46-1.29,0-.05.23.64.44,1.29.62,2l5.42-7.11a25.87,25.87,0,0,1-4.82-.12c-.61-.07-.47-.05.44.06l-.72-.11c-.49-.08-1-.18-1.46-.28-.92-.19-1.84-.41-2.76-.67s-1.83-.53-2.73-.84l-1.42-.52c-.22-.08-1.47-.76-.71-.27s-.47-.22-.65-.31c-.42-.19-.84-.4-1.26-.62-.77-.4-1.52-.84-2.25-1.31L702.94,516c.55.18,1.09.38,1.63.59.71.27-1-.46-.28-.11.23.12.47.21.7.33,1,.47,1.92,1,2.86,1.55,1.9,1.12,3.73,2.36,5.61,3.53,4.17,2.59,8.6,4.59,13.58,4.79V515.45a74.06,74.06,0,0,0-24.17,6.47c-2.53,1.16-3.29,4.67-2.3,7,1.17,2.77,3.81,3.67,6.63,3.25,3.71-.56,7.17-2.14,10.62-3.53a53.25,53.25,0,0,1,5.22-1.89c.85-.24,1.71-.42,2.57-.6.62-.1.48-.08-.42.05l.72-.06c.47,0,.93,0,1.4,0l-4.85-8.45a68.93,68.93,0,0,0-4.92,8.11c-.77,1.36-1.56,2.72-2.43,4-.22.32-.45.62-.66.94s-.15.21.3-.38a4.94,4.94,0,0,1-.36.44,18.5,18.5,0,0,1-1.66,1.77l8.83,6.81c1.89-3.3,4-6.5,6.19-9.6q.87-1.21,1.77-2.4c.62-.83-.53.66-.1.12l.45-.57c.29-.36.59-.73.89-1.08a33.85,33.85,0,0,1,3.7-3.87,5.64,5.64,0,0,0,0-7.94,5.76,5.76,0,0,0-8,0,55.47,55.47,0,0,0-8.25,9.76c-2.29,3.2-4.45,6.5-6.41,9.91a5.63,5.63,0,0,0,8.83,6.81c5.1-4.85,7.32-11.65,11.49-17.17,1.17-1.55.92-4.09,0-5.67a5.72,5.72,0,0,0-4.86-2.78c-8.32-.32-15.11,5.23-23.09,6.43l4.33,10.27,1.15-.51c1.17-.53-.87.33.23-.1.81-.31,1.62-.63,2.44-.92,1.73-.62,3.49-1.16,5.26-1.64s3.43-.85,5.16-1.17c.86-.16,1.72-.29,2.57-.43l-.43.06.64-.07q.73-.09,1.47-.15c2.92-.27,5.76-2.4,5.62-5.62a5.74,5.74,0,0,0-5.62-5.62l-.72,0c-.78,0,.2,0,.44.08-.49-.16-1-.2-1.54-.33s-.89-.26-1.33-.42l-.66-.24c-.69-.24,1,.48.36.15-1.86-.94-3.65-1.93-5.41-3-3.93-2.5-7.79-5-12.25-6.43a5.63,5.63,0,0,0-4.33,10.27,42.25,42.25,0,0,0,11.7,5A35.42,35.42,0,0,0,725.61,522c3.61-.32,6.42-3.33,5.42-7.11a32.3,32.3,0,0,0-3.51-7.9c-.6-1-1.22-2-1.81-3.06-.32-.58-.64-1.16-.93-1.75-.12-.23-.23-.48-.34-.71-.6-1.24.44,1.15-.05-.14L715,506.75c.37.39,1.14,1,1.32,1.49-.2-.55-.48-.65,0,0l.59.84c.74,1.09,1.41,2.23,2.06,3.38,1.31,2.33,2.48,4.74,3.77,7.09a5.62,5.62,0,1,0,9.71-5.67Z"/><path class="cls-26" d="M336.26,447.37a52.4,52.4,0,0,1-5,4.76c-.22.17-.44.34-.65.52-.58.51,1.15-.86.23-.18-.43.32-.86.64-1.31.95-.86.6-1.74,1.18-2.65,1.71s-1.68,1-2.55,1.4l-1.22.59c-.27.12-.56.22-.82.36.5-.26,1.14-.46.25-.11a38.2,38.2,0,0,1-5.51,1.72c-.83.19-1.66.36-2.5.49l-.69.11c-.74.12,1.57-.19.52-.08-.51.05-1,.11-1.52.15a40.25,40.25,0,0,1-5.38,0c-.46,0-.91-.07-1.37-.12s-2.19-.33-.13,0c-.9-.15-1.8-.28-2.7-.47a41.69,41.69,0,0,1-5.25-1.46c-.82-.28-1.62-.6-2.43-.92s1.41.62.47.19l-.5-.22-1.48-.7a48.48,48.48,0,0,1-4.74-2.73c-.68-.45-1.36-.92-2-1.4-.18-.14-.36-.28-.55-.41-.58-.42,1.18.93.38.29l-1.16-1a46.14,46.14,0,0,1-3.88-3.65c-.62-.66-1.23-1.34-1.81-2l-.78-.95c-.26-.32-.67-1,.3.39l-.49-.65a43.71,43.71,0,0,1-2.94-4.56c-.42-.75-.82-1.51-1.19-2.28-.18-.36-.35-.73-.51-1.1s-.53-1.35.13.35l-.3-.75a39.9,39.9,0,0,1-1.64-5.14c-.24-1-.43-1.94-.59-2.92l-.09-.53c-.16-1,.16,1.39.06.41-.06-.54-.12-1.08-.16-1.63a36.06,36.06,0,0,1,.06-6.06c0-.23.05-.47.07-.7.12-1.3-.21,1.29,0,.24.08-.47.15-.94.24-1.4.19-1,.43-2.07.71-3.09s.63-2.08,1-3.09c.18-.47,1.09-2.29.23-.63.28-.54.51-1.13.77-1.68,1.28-2.65.81-6.2-2-7.69-2.52-1.33-6.33-.81-7.69,2a44.39,44.39,0,0,0-4,26.83c1.35,8.3,5.4,15.94,10.73,22.36a52,52,0,0,0,20,14.56,46.35,46.35,0,0,0,25,2.95c10.43-1.6,19.88-7.5,27-15.15,2-2.15,2.29-5.84,0-7.94s-5.81-2.31-7.95,0Z"/><path class="cls-26" d="M273.49,411c5.74,1.66,11.36,3.82,17.42,4a5.66,5.66,0,0,0,5.42-4.12c.52-2.25-.27-5.31-2.58-6.35a49.15,49.15,0,0,0-8.11-2.7c-1.18-.29-2.36-.6-3.51-1l-.82-.28c-.64-.22-.26,0,.13.08a7.45,7.45,0,0,1-2-1l1.14,8.83a21.74,21.74,0,0,1,1.75-1.84l.77-.69.54-.45c.46-.37.37-.31-.28.2a8.77,8.77,0,0,1,2.15-1.52c.82-.54,1.66-1.05,2.51-1.53s1.73-1,2.61-1.38l1.06-.5.71-.31c-.75.31-.85.35-.28.12a35.27,35.27,0,0,1,5-1.56l-4.33-10.27-.7.35-.39.18c.75-.34-.06,0-.22.07l-.72.26c-1,.36-2.07.66-3.12.93-2.15.55-4.32,1-6.47,1.47-4.75,1.11-9.28,2.84-12.91,6.2l7.94,7.94a73.54,73.54,0,0,0,12.49-21.59c1-2.62-.87-5.63-3.25-6.63-2.75-1.16-5.32,0-7,2.3a27,27,0,0,0-2.66,4.6c-.41.85-.79,1.72-1.16,2.59l-1,2.34c-.09.22-.18.45-.28.67-.39.95.36-.82.08-.18a55.85,55.85,0,0,1-2.42,5.13c-.44.79-1,1.5-1.43,2.27-.35.58.74-.85.28-.37l-.41.49a11.91,11.91,0,0,1-1,1l9.4,2.48a69.34,69.34,0,0,0-2.25-9.2c-.42-1.49-.82-3-1.12-4.52l-.18-1.07c-.14-.71.08,1.09,0,0-.06-.85-.11-1.69-.09-2.54l-11,1.49c1,3.67,1.78,7.41,2.41,11.16.08.5.16,1,.23,1.49,0,.24.08.49.11.73.12.78,0-.12,0-.39,0,1,.25,2,.34,3a33,33,0,0,1,.12,5.35c-.22,2.93,2.73,5.74,5.62,5.62a5.77,5.77,0,0,0,5.62-5.62,55.66,55.66,0,0,0-1.1-12.81A113.89,113.89,0,0,0,274,382.37a5.62,5.62,0,0,0-11,1.5c-.17,7.05,3.06,13.45,4,20.33.26,1.86,2.22,3.45,3.92,3.92a5.74,5.74,0,0,0,5.47-1.44c3.08-2.85,5-6.68,6.59-10.47l1-2.34.28-.67c.07-.16.4-.95.07-.16s0,0,.07-.16l.28-.66c.21-.48.43-1,.65-1.45a28.22,28.22,0,0,1,2.82-4.92l-10.27-4.33-.45,1.18c-.22.55-.44,1.12-.08.24-.33.8-.7,1.59-1.07,2.37-.79,1.67-1.65,3.29-2.57,4.89s-1.82,3-2.82,4.48c-.49.71-1,1.42-1.52,2.11-.12.18-.25.35-.38.52.4-.52.47-.62.22-.3s-.62.77-.93,1.15c-1.88,2.25-2.38,5.76,0,7.94a5.72,5.72,0,0,0,7.94,0l.53-.48c.56-.5-.06.13-.3.23a12.43,12.43,0,0,0,1.32-.86c.4-.24.82-.45,1.24-.65.16-.08.93-.41.13-.08s0,0,.15-.05a44.14,44.14,0,0,1,6-1.66c4.56-1,9-2,13.21-4.14,2.49-1.26,3.32-4.59,2.3-7a5.66,5.66,0,0,0-6.63-3.25,42,42,0,0,0-11.82,4.75,35.13,35.13,0,0,0-9.7,7.59,5.75,5.75,0,0,0-1.55,4.72,5.49,5.49,0,0,0,2.68,4.11,32.17,32.17,0,0,0,8,3.12c1.18.31,2.36.58,3.53.91.55.15,1.1.31,1.65.49.34.11.68.23,1,.36s1.24.54.07,0l2.83-10.47c-.64,0-1.28-.09-1.93-.12-.81,0,1,.18.19,0l-1.09-.19c-1.33-.25-2.64-.58-3.93-1-2.58-.73-5.11-1.6-7.67-2.34a5.68,5.68,0,0,0-6.92,3.92,5.75,5.75,0,0,0,3.93,6.92Z"/><path class="cls-27" d="M370.38,267.86c0,4.52-22.78,298.13,57,337.28"/><path class="cls-27" d="M682.72,267.86c0,4.52,22.79,298.13-57,337.28"/><circle class="cls-28" cx="483.89" cy="387.84" r="11.45" transform="translate(-95.28 166.18) rotate(-17.77)"/><circle class="cls-28" cx="558.8" cy="387.84" r="11.45" transform="translate(-91.71 189.04) rotate(-17.77)"/><circle class="cls-29" cx="436.8" cy="430.54" r="26.84"/><circle class="cls-29" cx="614.64" cy="430.54" r="26.84"/><path class="cls-30" d="M659.69,169.51c4.41,1,7.57,3.51,7.1,5.71s-4.42,3.2-8.83,2.24-7.56-3.51-7.08-5.7,4.42-3.22,8.83-2.24m-12.43,51.22c3.29,3.08,4.71,6.88,3.17,8.52s-5.44.48-8.72-2.58-4.71-6.89-3.18-8.53,5.44-.5,8.73,2.59m-43.94,4.58c.79,4.44-.34,8.34-2.55,8.73s-4.65-2.87-5.45-7.29.35-8.34,2.56-8.74,4.65,2.85,5.44,7.3m89.77-65.61c4.5-.1,8.18,1.64,8.22,3.88s-3.55,4.16-8.06,4.25-8.16-1.64-8.22-3.89,3.55-4.15,8.06-4.24m8.33,26.91c4.25,1.46,7.1,4.37,6.37,6.49s-4.77,2.67-9,1.2-7.08-4.37-6.35-6.5,4.76-2.66,9-1.19m-18,42.61c3.76,2.48,5.79,6,4.56,7.89s-5.28,1.39-9-1.11-5.77-6-4.54-7.89,5.27-1.38,9,1.11M649.6,247.47c2.69,3.62,3.4,7.63,1.61,9s-5.44-.48-8.13-4.11-3.39-7.61-1.59-9,5.42.49,8.11,4.11m24-47.36c4.12,1.8,6.73,4.93,5.83,7s-5,2.28-9.1.47-6.72-4.92-5.82-7,5-2.28,9.09-.47m-35.92-6.47c3.6,2.71,5.4,6.36,4.05,8.15s-5.36,1.05-8.94-1.66-5.41-6.36-4-8.14,5.34-1.07,8.95,1.65m-60.39,51.87c-.63,4.46-2.93,7.81-5.16,7.5s-3.53-4.17-2.9-8.63,2.93-7.82,5.16-7.5,3.53,4.18,2.91,8.64"/></svg>