<?xml version="1.0" encoding="utf-8"?>
<!-- Generator: Adobe Illustrator 25.4.1, SVG Export Plug-In . SVG Version: 6.00 Build 0)  -->
<svg version="1.1" id="Layer_1" xmlns="http://www.w3.org/2000/svg" xmlns:xlink="http://www.w3.org/1999/xlink" x="0px" y="0px"
	 viewBox="0 0 1024 768" style="enable-background:new 0 0 1024 768;" xml:space="preserve">
<style type="text/css">
	.st0{opacity:0.78;fill:#F3F4F4;}
	.st1{fill:#F3F4F4;stroke:#AFB8BD;stroke-width:5.9705;stroke-linecap:round;stroke-linejoin:round;stroke-miterlimit:10;}
	.st2{fill:#D0D1D3;}
	.st3{fill:#E6E6E7;}
	.st4{fill:#F3F4F4;stroke:#AFB8BD;stroke-width:4.7426;stroke-linecap:round;stroke-linejoin:round;stroke-miterlimit:10;}
	.st5{fill:#F3F4F4;stroke:#AFB8BD;stroke-width:5.6645;stroke-linecap:round;stroke-linejoin:round;stroke-miterlimit:10;}
	.st6{fill:#A7A9AC;}
	.st7{fill:none;stroke:#AFB8BD;stroke-width:5.6645;stroke-linecap:round;stroke-linejoin:round;stroke-miterlimit:10;}
	.st8{fill:#AFB8BD;}
	.st9{fill:none;stroke:#A7A9AC;stroke-width:6;stroke-linecap:round;stroke-linejoin:round;stroke-miterlimit:10;}
</style>
<g>
	<ellipse class="st0" cx="513.4" cy="629" rx="132.9" ry="23.5"/>
	<g>
		<g>
			
				<ellipse transform="matrix(0.7071 -0.7071 0.7071 0.7071 -94.5293 462.7624)" class="st1" cx="511.3" cy="345.5" rx="190.8" ry="190.8"/>
			
				<ellipse transform="matrix(0.7071 -0.7071 0.7071 0.7071 -94.5293 462.7627)" class="st2" cx="511.3" cy="345.5" rx="129.3" ry="129.3"/>
			
				<ellipse transform="matrix(0.7071 -0.7071 0.7071 0.7071 -94.5293 462.7624)" class="st1" cx="511.3" cy="345.5" rx="120.5" ry="120.5"/>
			<path class="st3" d="M581.4,172.1c72.7,37,110.6,129.8,89.2,211.9c-24.7,94.8-121.6,151.7-216.4,127
				c-45.5-11.9-82.3-40.4-105.4-77.3c22.9,45.1,64.2,80.5,117,94.3c97.7,25.5,203.2-41.3,228.6-139
				C717.7,298.8,665.9,205.8,581.4,172.1z"/>
		</g>
	</g>
	<g>
		<g>
			<path class="st4" d="M256.6,205c-5.2-0.5,0.7,56.4-0.2,56.5c-1,0.1-13.8-58.4-16.8-57.9c-3.8,0.6,2.3,59.5,1.4,59.6
				c-0.9,0.1-11.5-57.9-16.1-57.2c-3.5,0.5,2.3,59.3,1.3,59.4c-1,0.2-11.3-57.7-16.6-55.1c-1.2,0.6-2.7,16.9-1.1,41.5
				c1.8,28.4-2.3,62,22,58.2l0,0c4.7-0.7,9.1,2.7,9.7,7.4L257.9,504c0.8,6.3,12.1,10,18.4,9.1c6.3-0.9,16.1-7.6,15.1-13.9l-36.1-184
				c-0.8-4.7,2.5-9.2,7.2-9.9l0.1,0c22.9-3.9,10-35.5,5.4-60.8C263.7,220.6,258.6,205.2,256.6,205z"/>
		</g>
		<path class="st3" d="M216.9,265.9c0,0-2.9,22.9,4.9,33.2c7.3,9.6,28.7,4.4,31.4,1.1C230.8,299.4,220.6,294.4,216.9,265.9z"/>
	</g>
	<path class="st5" d="M792.5,261.7l-50.3,291.9c0,0-1,18.1,22.7,13.8c11.3-2,18.3-92,18.3-118.1c0-0.8,2.8-26.1,3.4-25.6
		c0,0,17.6-3.7,20.2-14.3C816,372.4,826.7,281.7,792.5,261.7z"/>
	<g>
		<g>
			
				<ellipse transform="matrix(0.9523 -0.3052 0.3052 0.9523 -77.3243 163.483)" class="st6" cx="484.2" cy="329.1" rx="11.1" ry="11.1"/>
			
				<ellipse transform="matrix(0.9523 -0.3052 0.3052 0.9523 -74.5663 181.1259)" class="st6" cx="542" cy="329.1" rx="11.1" ry="11.1"/>
		</g>
	</g>
	<path class="st7" d="M329.2,396.1c0,0-35.3,7.1-63.5-30.6"/>
	<path class="st8" d="M493,535.8l-10.5-1.5l-0.5,79.4c0,0-26.9,6.4-21.9,12c5,5.6,31.9-2.6,31.9-2.6L493,535.8z"/>
	<path class="st8" d="M531.4,535.7l10.5-1.8l2.7,79.4c0,0,27,5.7,22.2,11.4c-4.8,5.7-32-1.7-32-1.7L531.4,535.7z"/>
	<ellipse class="st8" cx="245.2" cy="356.7" rx="10" ry="11.2"/>
	<ellipse class="st8" cx="782.4" cy="443.1" rx="10" ry="11.2"/>
	<path class="st7" d="M696,397.2c32.9,43.5,67,41.1,67,41.1"/>
	<path class="st9" d="M495,364.3c20.1,16.1,38.8,0,38.8,0"/>
</g>
</svg>
