<svg id="Layer_1" data-name="Layer 1" xmlns="http://www.w3.org/2000/svg" xmlns:xlink="http://www.w3.org/1999/xlink" viewBox="218.57 505.52 658.22 152.58"><defs><style>.cls-1{fill:url(#linear-gradient);}.cls-2{fill:#db2029;}.cls-3{fill:#474748;}.cls-4{fill:#f58220;}</style><linearGradient id="linear-gradient" x1="445.02" y1="630.79" x2="561.18" y2="630.79" gradientUnits="userSpaceOnUse"><stop offset="0.01" stop-color="#be1e2d"/><stop offset="0.34" stop-color="#d33e28"/><stop offset="0.76" stop-color="#e96223"/><stop offset="0.98" stop-color="#f26f21"/></linearGradient></defs><path class="cls-1" d="M561.07,622.52l-3.44-15.44a4.57,4.57,0,0,0-5.47-3.47l-15.44,3.45a4.57,4.57,0,0,0-3.47,5.46h0a4.57,4.57,0,0,0,5.46,3.47l.56-.12c-3.29,7.6-8.53,13.4-17.3,19.23A49.85,49.85,0,0,1,484,642.54a49.26,49.26,0,0,1-26.34-14.93,7.25,7.25,0,0,0-12.63,4.16,7,7,0,0,0,1.78,5.43A63.14,63.14,0,0,0,481,656.75c1.83.38,3.73.69,5.67.92h0a63.29,63.29,0,0,0,7.27.42,64.61,64.61,0,0,0,35.78-10.89c10.34-6.87,17.48-14.6,22.13-23.89l.27,1.2a4.57,4.57,0,1,0,8.93-2Z"/><path class="cls-2" d="M457.68,607.07V531.18a2.51,2.51,0,0,1,2.51-2.51h11a2.51,2.51,0,0,1,2.51,2.51v75.89a2.5,2.5,0,0,1-2.51,2.5h-11A2.51,2.51,0,0,1,457.68,607.07Z"/><path class="cls-2" d="M520.2,543.68v63.39a2.5,2.5,0,0,1-2.5,2.5h-11a2.5,2.5,0,0,1-2.5-2.5V543.68h-13.5a2.5,2.5,0,0,1-2.5-2.5v-11a2.5,2.5,0,0,1,2.5-2.5h43a2.51,2.51,0,0,1,2.51,2.5v11a2.51,2.51,0,0,1-2.51,2.5Z"/><path class="cls-3" d="M252.62,543c-6.66,0-13.84,2.39-18.51,6.6V517.22H218.58v92.59h15.53V577c0-14.24,6.88-19.15,15.75-19.15,9.11,0,12.61,5.38,12.61,18.92v33H278V573.27C278,552,268.16,543,252.62,543Z"/><path class="cls-3" d="M341.75,553.77c-5.37-7.12-11.79-10.16-21.14-10.16-19.15,0-32.92,14.36-32.92,34.09,0,19.51,13.65,33.63,32.58,33.63,9.1,0,15.29-2.92,21.48-9.92v8.4H356V545.13H341.75ZM321.11,598.3c-11.21,0-20.3-9.38-20.3-20.95s9.09-20.94,20.3-20.94,20.29,9.37,20.29,20.94S332.32,598.3,321.11,598.3Z"/><path class="cls-3" d="M406.15,543.61c-8.76,0-16.23,3.27-21.26,9.11v-7.59H370.65v92.16h15.53V603.74A27.65,27.65,0,0,0,406,611.33c18.68,0,32.34-14.47,32.34-34.1S424.84,543.61,406.15,543.61Zm-1,54.69c-11.21,0-20.3-9.38-20.3-20.95s9.09-20.94,20.3-20.94,20.29,9.37,20.29,20.94S416.39,598.3,405.19,598.3Z"/><path class="cls-4" d="M588.54,516.39c3.71,0,9.65,1.49,10.25,5.35,1.63,11.88.59,61.18-.15,81.08,8.76-.45,17.67-.89,21.68-.89,4.75,0,8.17,4,8.17,8.76,0,2.82-1.49,3.41-6.09,4.3-2.23.45-12.77,1.19-21.24,1.19-3.12,0-5.64,0-7.87-.15-4.6,0-8.46-1.33-9.06-5.19-.89-7.87-1.48-64.3-.44-90.14C583.94,518.17,585.27,516.39,588.54,516.39Z"/><path class="cls-4" d="M667.83,590.34c0-.14,0-1.93.15-4.45-4.3,18.41-9.8,30.74-18.56,30.74-10.84,0-15.3-12.77-15.3-30.15,0-15,.6-31.33,2.53-42,.44-2.82,1.48-4.16,4-4.16,3.12,0,8.17,1.63,9.06,6.09,1,6.83-.89,30.59-.75,44.84,0,5,1.19,8.47,4,8.47,6.69,0,14.11-29.4,16-49.45.74-6.68,1.93-9.06,5.05-9.06,4,0,8.76,2.67,8.76,6.09,0,7.28-1,25.39-1,42.92,0,8,2.08,10.84,5.05,10.84,6.68,0,13.37-26.59,18.12-48.71,1-3.86,5.49.15,5.34,3.71C709,578.76,699,616.63,682.39,616.63,671.69,616.63,667.68,606.53,667.83,590.34Z"/><path class="cls-4" d="M767.33,552.33c.29-1,.74-1.64,1.33-1.64,1.78,0,4,2.53,4,4.91,0,12.62-10.39,61-27.92,61-10.09,0-14.85-8.47-14.7-24.06,0-11,1.78-22.72,2.23-32.52,0-2.23-.59-3.41-1.93-3.41-6.68,0-14.55,35-17.23,56-.29,1.78-1.78,3-4.75,3-3.71,0-8.76-1.93-9.06-6.83-.29-7.28.75-53.16,2.38-60.74.59-2.37,1.34-3.71,3.27-3.86,3.11,0,7.57,1.63,7.57,5.79,0,12.92-.3,24.21-.59,32.37,5-25.24,13.36-42.76,25.39-42.76,6.68,0,9.65,4.75,9.65,12.47,0,9.8-2.67,23.46-2.67,37.57,0,8.61,2.08,11.44,4.9,11.44C755.89,601,762.42,574.45,767.33,552.33Z"/><path class="cls-4" d="M819.15,552.18c.3-.89.89-1.49,1.48-1.49,1.64,0,4,2.53,4,4.91,0,12.47-12.62,61-39,61-18.86,0-25.54-12.48-25.54-30.44,0-29.7,8.46-46.78,24.8-46.78,12.17,0,17.82,10.39,17.82,27.17,0,6.09-6.39,9.51-9.95,9.51-2.23,0-3.86-1-3.86-3.71,0-16.93-1.34-20.94-5.2-20.94-5.35,0-8.76,9.2-8.76,31.63,0,14.55,5.64,19.45,12.32,19.45C802.52,602.52,813.21,576.53,819.15,552.18Z"/><path class="cls-4" d="M820.63,505.55c3.42,0,8.17,1.93,8.47,5.2.59,22.13.29,46,0,62.52,5.19-20.35,12.77-33.71,23.46-33.71,6.68,0,9.65,4.75,9.65,12.47,0,9.8-2.67,23.46-2.67,37.57,0,8.61,2.08,11.44,4.9,11.44,4,0,5.94-6.69,7.13-11.59.59-1.19,1.33-1.93,2.52-1.93,1.63,0,2.67,1.64,2.67,4.31,0,11.58-5.79,24.8-16.78,24.8-10,0-14.7-7.87-14.7-23,0-11.29,1.78-23.31,2.23-33.56,0-2.23-.59-3.41-1.93-3.41-6.53,0-14,33-17.08,53.9v1a4.82,4.82,0,0,1-4.75,4.6c-4.31,0-8.46-1.63-9.06-6.38-.59-9.21-1.48-79.6,2.08-100.83C817.22,506.44,818.4,505.55,820.63,505.55Z"/></svg>