<svg id="Layer_1" data-name="Layer 1" xmlns="http://www.w3.org/2000/svg" viewBox="0 0 400 136.11"><defs><style>.cls-1{fill:#fff;}</style></defs><path class="cls-1" d="M205.83,85.75,204.33,79A2,2,0,0,0,202,77.52L195.24,79a2,2,0,0,0-1.51,2.38h0a2,2,0,0,0,2.38,1.51l.24,0c-1.43,3.3-3.71,5.82-7.52,8.36a21.69,21.69,0,0,1-16.5,3.23A21.36,21.36,0,0,1,160.88,88a3.15,3.15,0,0,0-5.49,1.81,3,3,0,0,0,.77,2.36,27.51,27.51,0,0,0,14.86,8.5c.8.17,1.63.3,2.47.4h0a27.94,27.94,0,0,0,18.72-4.55,26.87,26.87,0,0,0,9.62-10.39l.11.52a2,2,0,0,0,3.89-.86Z"/><path class="cls-1" d="M160.88,79V46A1.09,1.09,0,0,1,162,44.94h4.77A1.09,1.09,0,0,1,167.83,46V79a1.09,1.09,0,0,1-1.09,1.09H162A1.09,1.09,0,0,1,160.88,79Z"/><path class="cls-1" d="M188.06,51.47V79A1.09,1.09,0,0,1,187,80.12h-4.78A1.09,1.09,0,0,1,181.1,79V51.47h-5.86a1.09,1.09,0,0,1-1.09-1.09V45.59a1.09,1.09,0,0,1,1.09-1.09h18.68A1.09,1.09,0,0,1,195,45.59v4.79a1.09,1.09,0,0,1-1.09,1.09Z"/><path class="cls-1" d="M71.72,51.16a12.45,12.45,0,0,0-8,2.87V40H56.92V80.22h6.75V66c0-6.2,3-8.33,6.85-8.33S76,60,76,65.86V80.22h6.75V64.33C82.75,55.1,78.47,51.16,71.72,51.16Z"/><path class="cls-1" d="M110.47,55.86c-2.33-3.1-5.13-4.42-9.19-4.42C93,51.44,87,57.68,87,66.26s5.94,14.62,14.17,14.62a11.33,11.33,0,0,0,9.34-4.31v3.65h6.2V52.1h-6.2Zm-9,19.36a9.11,9.11,0,1,1,8.82-9.11A9,9,0,0,1,101.5,75.22Z"/><path class="cls-1" d="M138.47,51.44a11.86,11.86,0,0,0-9.24,4V52.1H123V92.17h6.75V77.58a12,12,0,0,0,8.63,3.3c8.12,0,14.06-6.29,14.06-14.82S146.6,51.44,138.47,51.44Zm-.42,23.78a9.11,9.11,0,1,1,8.82-9.11A9,9,0,0,1,138.05,75.22Z"/><path class="cls-1" d="M222.58,44.18c0,5.21-.11,24.54.34,33,3.81-.19,7.68-.38,9.43-.38,6.52,0,5.32,5.5,2.72,5.68s-13.51.51-14.47.45c-2,0-3.68-.58-3.94-2.26-.39-3.42-.16-26.51-.2-37.68C216.46,39,222.58,38.43,222.58,44.18Z"/><path class="cls-1" d="M252.24,71.76c0-.06,0-.84.07-1.94-1.87,8-4.26,13.37-8.07,13.37-4.71,0-6.65-5.56-6.65-13.11,0-6.52.26-13.62,1.1-18.27.19-1.23.64-1.81,1.74-1.81,1.36,0,3.55.71,3.94,2.65.45,3-.39,13.3-.32,19.5,0,2.19.51,3.68,1.74,3.68,2.9,0,6.13-12.79,7-21.5.32-2.91.84-3.94,2.2-3.94,1.74,0,3.8,1.16,3.8,2.65,0,3.16-.45,11-.45,18.66,0,3.48.91,4.71,2.2,4.71,2.9,0,5.81-11.56,7.87-21.18.46-1.68,2.39.07,2.33,1.62-.58,9.87-4.91,26.34-12.14,26.34C253.92,83.19,252.18,78.8,252.24,71.76Z"/><path class="cls-1" d="M295.5,55.23c.13-.45.32-.71.58-.71a2.24,2.24,0,0,1,1.75,2.13c0,5.49-4.52,26.54-12.14,26.54-4.39,0-6.46-3.68-6.39-10.46,0-4.78.77-9.88,1-14.14,0-1-.25-1.49-.84-1.49-2.9,0-6.32,15.24-7.48,24.34-.13.78-.78,1.29-2.07,1.29-1.61,0-3.81-.83-3.94-3-.13-3.16.33-23.11,1-26.4.25-1,.58-1.61,1.42-1.68,1.35,0,3.29.71,3.29,2.52,0,5.62-.13,10.52-.26,14.07,2.2-11,5.81-18.59,11-18.59,2.9,0,4.2,2.07,4.2,5.42,0,4.26-1.17,10.2-1.17,16.34,0,3.74.91,5,2.13,5C290.53,76.41,293.37,64.85,295.5,55.23Z"/><path class="cls-1" d="M318,55.17c.13-.39.39-.65.65-.65a2.31,2.31,0,0,1,1.74,2.13c0,5.43-5.49,26.54-17,26.54-8.2,0-11.1-5.43-11.1-13.24,0-12.91,3.68-20.33,10.78-20.33,5.29,0,7.75,4.51,7.75,11.81,0,2.65-2.78,4.13-4.33,4.13A1.48,1.48,0,0,1,304.86,64c0-7.36-.58-9.11-2.26-9.11-2.32,0-3.81,4-3.81,13.76,0,6.32,2.46,8.45,5.36,8.45C310.8,77.05,315.45,65.76,318,55.17Z"/><path class="cls-1" d="M318.68,34.9c1.48,0,3.55.84,3.68,2.26.26,9.62.13,20,0,27.18,2.26-8.85,5.55-14.66,10.2-14.66,2.9,0,4.2,2.07,4.2,5.42,0,4.26-1.17,10.2-1.17,16.34,0,3.74.91,5,2.13,5,1.75,0,2.59-2.91,3.1-5,.26-.51.58-.84,1.1-.84.71,0,1.16.71,1.16,1.88,0,5-2.52,10.78-7.29,10.78-4.33,0-6.39-3.43-6.39-10,0-4.91.77-10.14,1-14.59,0-1-.25-1.49-.84-1.49-2.84,0-6.06,14.34-7.42,23.44V81A2.1,2.1,0,0,1,320,83c-1.87,0-3.68-.71-3.93-2.77-.26-4-.65-34.61.9-43.84C317.19,35.28,317.71,34.9,318.68,34.9Z"/></svg>