<svg id="Layer_1" data-name="Layer 1" xmlns="http://www.w3.org/2000/svg" viewBox="0 0 1024 768"><defs><style>.cls-1{fill:#a97c50;}.cls-2{fill:#b37c50;}.cls-3{fill:#ffe8b6;}.cls-4,.cls-5{fill:none;stroke:#594a42;stroke-linecap:round;stroke-linejoin:round;}.cls-4{stroke-width:7.51px;}.cls-5{stroke-width:9.6px;}.cls-6{fill:#f0d09b;}.cls-7{fill:#ffc4b2;}</style></defs><path class="cls-1" d="M510.29,544.1s4.07,115-.45,122.31-48.61,26.73-62,11.19c-8.11-35.91,53-21,53-21L498.9,537.54Z"/><path class="cls-1" d="M599.59,556.07s61.13,99.46,67.36,104,52.29-8.35,59-23.33c-20.86-29.72-56.28,8.55-56.28,8.55L605.14,544.15Z"/><path class="cls-1" d="M326.39,344.46c-.26.67-.53,1.33-.81,2l1-2.3A97.15,97.15,0,0,1,314,365.48l1.5-1.94a96.74,96.74,0,0,1-17.22,17.33l1.94-1.5a81.83,81.83,0,0,1-18,10.57l2.29-1a76.17,76.17,0,0,1-19.1,5.21l2.56-.35a81.6,81.6,0,0,1-21.35-.06l2.55.34a106.86,106.86,0,0,1-27.08-7.62l2.3,1a152.64,152.64,0,0,1-20.48-10.69c-4.27-2.63-10.74-1.06-13.13,3.45a9.8,9.8,0,0,0,3.45,13.13c13.61,8.39,28.65,15.32,44.42,18.39a92.23,92.23,0,0,0,39.72-.53,85.28,85.28,0,0,0,29.58-13.78,107.47,107.47,0,0,0,12.66-10.67A119.12,119.12,0,0,0,331,374.61,96.68,96.68,0,0,0,343.05,354c.63-1.48,1.26-3,1.85-4.46.85-2.18.16-5.46-1-7.4a9.84,9.84,0,0,0-5.74-4.41,9.73,9.73,0,0,0-7.39,1,11,11,0,0,0-4.41,5.74Z"/><path class="cls-1" d="M208.87,383.07c-2-7.57-3.43-15.37-7.41-22.25-2.05-3.54-6.84-5.71-10.84-4.41a11.41,11.41,0,0,0-4.24,2.47c-1.56,1.44-3.07,4.61-2.81,6.78A58.45,58.45,0,0,0,185.74,376a55.19,55.19,0,0,1,2.06,8.12l-.35-2.55a25.58,25.58,0,0,1,.23,3l12.15-9.25a33,33,0,0,1-7.72-2.32l2.29,1a57.49,57.49,0,0,1-12.23-7.17l1.94,1.5a38.75,38.75,0,0,1-4.62-4.16l-11.63,15.08c.94.58,1.85,1.22,2.73,1.89l-1.94-1.5c4,3.15,7.31,7.06,10.92,10.65,4.4,4.39,9.44,8.15,15.49,9.87l5.1-18.5a97.9,97.9,0,0,0-33.37.57,9.56,9.56,0,0,0-5.74,4.41,10,10,0,0,0-1.14,6.12,9.12,9.12,0,0,0,2.64,5.51,10.87,10.87,0,0,0,6.79,2.81c6.16.58,12.42-.91,18.5-1.72l-2.55.34a39.71,39.71,0,0,1,10-.35l-2.55-.35a19.24,19.24,0,0,1,2.79.59l-4.24-16c-5.42,4.4-9.44,10.26-14.93,14.58l1.94-1.5a29,29,0,0,1-3.16,2.11l11.63,15.08A139.45,139.45,0,0,1,202,400l-1.95,1.51a48.15,48.15,0,0,1,7.58-5A9.6,9.6,0,0,0,198,379.87c-5,2.56-9.53,6.37-13.8,10a150.44,150.44,0,0,0-11,10.32,9.61,9.61,0,0,0,11.63,15.08c8.06-4.58,13-12.47,20-18.2,2.58-2.09,3.31-6.3,2.47-9.34a9.68,9.68,0,0,0-6.7-6.7c-8.15-2.36-16.61-.35-24.77.74l2.55-.34a40.29,40.29,0,0,1-9.11.41l2.55,18.85c1.44-.28,2.89-.51,4.35-.71l-2.55.34a86.08,86.08,0,0,1,22.62,0l-2.55-.34,1.3.18c2.65.41,5,.44,7.39-1a9.6,9.6,0,0,0-2.29-17.54,19.84,19.84,0,0,1-2.24-.79l2.29,1a23.89,23.89,0,0,1-4.88-2.92l1.94,1.5a83.08,83.08,0,0,1-8.62-8.37,58.34,58.34,0,0,0-11.11-9.38,9.61,9.61,0,0,0-11.63,15.08,56,56,0,0,0,13.48,10.2A71,71,0,0,0,188.2,392a29.69,29.69,0,0,0,6.52,1.83,9.63,9.63,0,0,0,5.11,0,7.22,7.22,0,0,0,3.26-1.71,9.34,9.34,0,0,0,3.78-7.54,43.11,43.11,0,0,0-2-11.7,61.36,61.36,0,0,1-2.38-9.33l.34,2.55,0-.43-17.89,4.85a32.59,32.59,0,0,1,1.79,3.6l-1-2.29c2.17,5.26,3.19,10.88,4.66,16.35,1.3,4.85,6.9,8.29,11.81,6.7a9.77,9.77,0,0,0,6.7-11.8Z"/><path class="cls-1" d="M709.2,377.7a70.58,70.58,0,0,0,25.53,6.76,83.31,83.31,0,0,0,26-2.36c19.18-4.64,36.76-15.43,50.72-29.23a133.81,133.81,0,0,0,22.87-30.43c2.43-4.4,1.22-10.67-3.44-13.13s-10.54-1.25-13.13,3.44a131.71,131.71,0,0,1-11,16.72l1.5-2a116.71,116.71,0,0,1-20.64,20.73l1.94-1.5a102.73,102.73,0,0,1-22.66,13.31l2.29-1a87.09,87.09,0,0,1-21.76,6l2.55-.34a71.24,71.24,0,0,1-18.68.12l2.55.34a58.13,58.13,0,0,1-14.77-3.95l2.29,1c-.84-.35-1.67-.73-2.5-1.13a10.28,10.28,0,0,0-7.39-1,9.85,9.85,0,0,0-5.74,4.41,9.68,9.68,0,0,0-1,7.4c.74,2.27,2.18,4.66,4.41,5.73Z"/><path class="cls-1" d="M832.69,307.78c-3.21-6.12-6.89-12-10.36-18l-15.07,11.63.45.57-1.5-1.94c5.32,7,7.86,15.87,14.4,22a9.52,9.52,0,0,0,8.07,2.64,9.68,9.68,0,0,0,7-4.58c6.53-9.66,9.37-21.26,13.42-32.06L830.6,283c-.48,1.47-1,2.92-1.62,4.36l1-2.3c-4.1,9.68-10.35,18.69-12.55,29.1A9.61,9.61,0,0,0,829.21,326c11.37-2.72,20.27-10.59,30.3-16.08l-11.63-15.07c-.52.44-1,.86-1.59,1.28l1.94-1.5c-8.36,6.33-18.6,9.47-27.15,15.49a10.43,10.43,0,0,0-3.93,4.59,9.22,9.22,0,0,0-.48,6.25,9.83,9.83,0,0,0,9.25,7.05,61.77,61.77,0,0,1,9.12.53l-2.55-.34a48.57,48.57,0,0,1,12.21,3.16l-2.29-1c.82.35,1.62.73,2.41,1.14L847.11,314l-.46.07,2.55-.34a11.31,11.31,0,0,1-2.6-.05l2.55.35-1.7-.26c-2.64-.4-5-.44-7.4,1a9.59,9.59,0,0,0-3.44,13.13c1.26,2,3.33,4,5.74,4.41,1.62.25,3.25.53,4.89.67a20.81,20.81,0,0,0,5-.44l2.3-1,1.94-1.5a9.46,9.46,0,0,0,2.64-5.51c.49-3.62-1.19-7.78-4.58-9.56-8.68-4.54-18.85-6.31-28.59-6.15l4.85,17.89c4.61-3.25,9.72-5.67,14.76-8.19a79.46,79.46,0,0,0,15.92-10.09,9.55,9.55,0,0,0,2.81-6.79,9.94,9.94,0,0,0-2.06-5.81,9.63,9.63,0,0,0-12.38-2.47c-7.7,4.21-14.57,9.88-22.68,13.35l2.29-1a35.39,35.39,0,0,1-5.33,1.76l11.81,11.81a45.93,45.93,0,0,1,2.7-8.32l-1,2.3c3.62-8.48,8.6-16.34,11.46-25.15,1.55-4.78-1.81-10.69-6.7-11.81a9.75,9.75,0,0,0-7.4,1A11,11,0,0,0,830.6,283c-2.47,6.59-4.45,13.35-7.19,19.85l1-2.3a57.8,57.8,0,0,1-5.27,9.92l15.08-1.94a21.62,21.62,0,0,1-2.32-2.56l1.5,1.94a67.67,67.67,0,0,1-5.53-9.21,69.11,69.11,0,0,0-7-10.83c-1.38-1.72-4.65-2.9-6.79-2.81a9.92,9.92,0,0,0-5.81,2.06,9.62,9.62,0,0,0-2.48,12.38c3.48,6,7.16,11.84,10.37,18,2.33,4.45,8.91,6.16,13.13,3.44a9.81,9.81,0,0,0,3.44-13.13Z"/><path class="cls-2" d="M755.92,274.66c-13.62,12.93-20.07,31.72-19.27,50.48l7.26,169.74h0c1.5,35.16-22.43,64.74-53.45,66.06L374.2,574.47h0c-31,1.32-57.39-26.11-58.89-61.27L307.6,332.81a62.16,62.16,0,0,0-11-32.3C218.54,185.88,297.79,99.75,410,95c0,0-49.2,2.67,0-.33C438.77,92.86,467.87,100,487,106.2a63.46,63.46,0,0,0,43.26-1.48c22.1-8.88,39.24-14.12,83.59-18.82C784.63,67.79,798.83,233.92,755.92,274.66Z"/><path class="cls-3" d="M340.68,293.09a26.68,26.68,0,0,1,10.66,20.53l7.78,182c1.13,26.36,29.41,46.74,63.17,45.5h0l227.82-8.61c33.76-1.24,57.41-23.5,56.29-49.86h0l-7.64-178.59c-.4-9.33,3.9-18.49,11.85-23.39,73.83-45.46,7.32-230.2-167.69-135.75a61.77,61.77,0,0,1-57.23.65C332.87,68.8,248.76,226.23,340.68,293.09Z"/><path class="cls-4" d="M555.29,361.11a26.42,26.42,0,0,1-48.93-.4"/><polyline class="cls-5" points="466.72 315.01 497.81 334.55 463.8 344.35"/><polyline class="cls-5" points="589.96 311.25 560.65 333.37 595.37 340.23"/><path class="cls-6" d="M690.32,161.47a36.57,36.57,0,0,1,5.12,3.2c.26.19-.35-.28-.09-.07l.32.26.58.47c.38.32.75.65,1.12,1,.75.7,1.48,1.43,2.17,2.19a2.41,2.41,0,0,0,3.39,0,2.44,2.44,0,0,0,0-3.39,35.68,35.68,0,0,0-10.19-7.78,2.4,2.4,0,0,0-2.42,4.14Z"/><path class="cls-6" d="M683.75,173.37l1.69,3.06a1.82,1.82,0,0,0,.62.67,1.75,1.75,0,0,0,.82.43,1.71,1.71,0,0,0,1,0,1.83,1.83,0,0,0,.9-.28,2.43,2.43,0,0,0,1.1-1.43,2.59,2.59,0,0,0-.24-1.85l-1.7-3.06a1.82,1.82,0,0,0-.62-.67,1.68,1.68,0,0,0-.81-.43,1.85,1.85,0,0,0-1,0,1.77,1.77,0,0,0-.89.29,2.39,2.39,0,0,0-1.1,1.43,2.54,2.54,0,0,0,.24,1.85Z"/><path class="cls-6" d="M702.72,182.93q.76,2.61,1.28,5.29c.08.41.15.82.22,1.23,0,.24.08.48.11.72s.13.86,0,.29c.13.89.21,1.8.28,2.7a2.4,2.4,0,0,0,4.8,0,56.25,56.25,0,0,0-2.12-11.51,2.4,2.4,0,0,0-4.62,1.28Z"/><path class="cls-6" d="M326.64,236.29a12.55,12.55,0,0,0-1.47,9.72,2.4,2.4,0,1,0,4.63-1.27c-.09-.41-.17-.82-.23-1.23l.09.64a10.78,10.78,0,0,1,0-2.78l-.09.64a10.2,10.2,0,0,1,.65-2.36l-.24.57a10.41,10.41,0,0,1,.81-1.51,2.42,2.42,0,0,0-.86-3.28,2.46,2.46,0,0,0-3.29.86Z"/><path class="cls-6" d="M335,212.46c-.82,1.26-1.59,2.55-2.44,3.79-.22.33-.44.66-.68,1l.37-.48a2.86,2.86,0,0,1-.4.45l.48-.38-.06,0,.58-.24h0l.64-.09h0l.63.09h0l.58.25h0l.48.38h0l.38.48h0l.25.58a0,0,0,0,1,0,0l.08.63a.28.28,0,0,1,0-.09l-.09.63a3.8,3.8,0,0,1,.16-.55c.12-.34.26-.68.4-1l-.24.58.12-.28a1.79,1.79,0,0,0,.28-.89,1.84,1.84,0,0,0,0-1,2,2,0,0,0-.43-.82,1.79,1.79,0,0,0-.67-.61,2.4,2.4,0,0,0-1.85-.25l-.58.25a2.44,2.44,0,0,0-.86.86c-.26.6-.52,1.21-.75,1.83a4.49,4.49,0,0,0-.26,1.26,2.57,2.57,0,0,0,.72,1.8,2.41,2.41,0,0,0,2.39.63,3,3,0,0,0,1.34-.87,33.12,33.12,0,0,0,2.67-3.86c.34-.54.68-1.09,1-1.63a1.76,1.76,0,0,0,.28-.89,1.84,1.84,0,0,0,0-1,1.77,1.77,0,0,0-.43-.81,1.82,1.82,0,0,0-.67-.62,2.4,2.4,0,0,0-1.85-.24l-.58.24a2.44,2.44,0,0,0-.86.86Z"/><path class="cls-6" d="M322.45,211.43A22.8,22.8,0,0,0,318,226.9a2.4,2.4,0,0,0,4.8,0,22,22,0,0,1,0-3.81c0-.09.14-1,.06-.53l.12-.69a18.71,18.71,0,0,1,.43-1.83,14.44,14.44,0,0,1,1.13-2.93,22.45,22.45,0,0,1,2-3.26,2.41,2.41,0,0,0-.87-3.28,2.47,2.47,0,0,0-3.28.86Z"/><path class="cls-6" d="M690.26,478.56l.25,5.88,0,.68a2.53,2.53,0,0,0,.7,1.69,2.39,2.39,0,0,0,3.4,0,2.38,2.38,0,0,0,.7-1.69l-.08-1.87a2.57,2.57,0,0,0-.7-1.7,2.41,2.41,0,0,0-3.4,0,2.42,2.42,0,0,0-.7,1.7l.08,1.87h4.8l-.23-5.27-.05-1.29a2.53,2.53,0,0,0-.7-1.69,2.47,2.47,0,0,0-1.7-.71,2.43,2.43,0,0,0-1.7.71,2.38,2.38,0,0,0-.7,1.69Z"/><path class="cls-6" d="M686.7,496.29c-.62,1.12-1.26,2.22-1.89,3.33-.28.5-.56,1-.82,1.52a6.49,6.49,0,0,0-.38.91,2.45,2.45,0,0,0,0,1.29,2.41,2.41,0,0,0,4.07,1,9.09,9.09,0,0,0,.8-1.05c.32-.46.63-.93.94-1.4a1.83,1.83,0,0,0,.28-.89,1.84,1.84,0,0,0,0-1,1.8,1.8,0,0,0-.43-.82,1.9,1.9,0,0,0-.67-.62,2.44,2.44,0,0,0-1.85-.24l-.57.24a2.5,2.5,0,0,0-.87.87c-.4.62-.8,1.25-1.25,1.84l.37-.49a.54.54,0,0,1-.14.16l.49-.37h0l.58-.24h0l.64-.09h0l.64.09h0l.58.24h0l.48.37h0l.38.49h0l.24.57h0l.08.64h0l-.08.64a.28.28,0,0,1,0-.12l-.25.58a18.92,18.92,0,0,1,1-1.78c.44-.8.89-1.59,1.34-2.38l.53-.91a2.49,2.49,0,0,0,.24-1.85,1.9,1.9,0,0,0-.43-.82,1.82,1.82,0,0,0-.67-.62,2.45,2.45,0,0,0-1.85-.24,2.49,2.49,0,0,0-1.44,1.1Z"/><path class="cls-6" d="M681.17,483c-.28,1.13-.61,2.25-.87,3.38a16.42,16.42,0,0,0-.41,2.29,2.59,2.59,0,0,0,.34,1.59,2.49,2.49,0,0,0,2.12,1.22,2.46,2.46,0,0,0,1.79-.76,9.43,9.43,0,0,0,1.55-2.75,1.77,1.77,0,0,0,.29-.89,1.84,1.84,0,0,0,0-1,1.87,1.87,0,0,0-.43-.81,1.85,1.85,0,0,0-.68-.62,2.44,2.44,0,0,0-1.85-.24l-.57.24a2.36,2.36,0,0,0-.86.86c-.22.49-.44,1-.69,1.46a4.67,4.67,0,0,1-.42.72l.37-.48a.52.52,0,0,1-.1.11l.49-.38,0,0,.58-.24h0l.64-.09h0l.64.09h0l.57.24h0l.48.38h0l.37.48s0,0,0,0l.24.57,0-.06.09.64a1.61,1.61,0,0,1,0-.44l-.08.63a17.88,17.88,0,0,1,.43-2c.18-.72.37-1.44.56-2.16.07-.23.13-.47.19-.7a2.48,2.48,0,0,0-.24-1.85,1.85,1.85,0,0,0-.62-.68,1.75,1.75,0,0,0-.81-.42,2.43,2.43,0,0,0-1.85.24,2.48,2.48,0,0,0-1.11,1.43Z"/><circle class="cls-7" cx="594.86" cy="369.53" r="15.95"/><circle class="cls-7" cx="474.65" cy="376.37" r="15.95"/></svg>