<svg id="Layer_1" data-name="Layer 1" xmlns="http://www.w3.org/2000/svg" viewBox="0 0 310 310"><defs><style>.cls-1{fill:#616261;}.cls-2{fill:#757576;}</style></defs><path class="cls-1" d="M226.81,87.63A80.89,80.89,0,0,0,118.47,29.32l-1-6.4a2.87,2.87,0,0,0-5.18-1.19L91.91,50.83a2.87,2.87,0,0,0,2.81,4.47l35-5.73a2.86,2.86,0,0,0,1.17-5.17l-4.81-3.35A65.47,65.47,0,0,1,133.59,39a67.22,67.22,0,0,1,79.89,51.53,69.51,69.51,0,0,1-10.61,53.89c-9.78,14.21-24.17,23.42-40.52,25.93-30.53,4.68-49.64-7.5-60.3-18.54C86.85,136,81.11,114.58,83.43,102.38A6.82,6.82,0,0,0,70,99.83c-2.93,15.46,2.76,41.28,22.21,61.43,11,11.37,29.26,23.75,56.84,23.75a102.14,102.14,0,0,0,15.34-1.2c20.1-3.09,37.74-14.34,49.68-31.68A83.17,83.17,0,0,0,226.81,87.63Z"/><path class="cls-1" d="M164.18,136a6.8,6.8,0,0,1-4.3-1.53l-26.77-21.79a6.82,6.82,0,0,1-2.42-6.38l5.83-36A6.82,6.82,0,1,1,150,72.51l-5.2,32.08,23.71,19.31a6.81,6.81,0,0,1-4.31,12.1Z"/><path class="cls-2" d="M69.54,179.65c-6.5-30.06-37.31-61.59-38.76-60C45.43,133.1,66,181.4,64.4,181.11c-.83-.15-28.65-26.44-35.94-46.05-1.61-4.34-8.73-22.68-1.24-25.7C87.91,132.63,70.12,178.43,69.54,179.65Z"/><path class="cls-2" d="M52.16,177.56c-8.24,0-20.81-3.79-29-8.66,1.19-10.23,9.76-11.73,12.71-13a2,2,0,0,1,1.86.37C38,162.79,48.88,173.23,52.16,177.56Z"/><path class="cls-2" d="M84.68,170.34a6.46,6.46,0,1,1-6.46,6.34A6.49,6.49,0,0,1,84.68,170.34Z"/><path class="cls-2" d="M194.86,184.73c-4,.19,1.77-16.07,34.09-15.37,27.59.6,29.33.6,29.33.6S248.29,182.12,194.86,184.73Z"/><path class="cls-2" d="M286.33,114.31c-5.93,0-11.67-.12-17.41,0a60.16,60.16,0,0,0-11.71,1c-20.81,4.79-34.94,23.36-31.63,49.34l44.51-34.3c-10.52,19.87-34.27,31.21-43.54,35,6.57,0,13.17,0,19.77,0a39.15,39.15,0,0,0,17.5-4.22C280.69,152.75,289.05,135.46,286.33,114.31Z"/><path class="cls-1" d="M23.47,175.76c.18,2.63.21,5.08.54,7.48.58,4.21,1.13,8.44,2.08,12.58q13.15,57.06,66.06,82.27C117,289.92,143.55,292,170,286.86c48.19-9.34,79.25-38.58,93.4-85.57a101.62,101.62,0,0,0,3.83-25.53Q145.38,217.24,23.47,175.76Zm150.59,99.53a2.42,2.42,0,1,1,2.42-2.42A2.42,2.42,0,0,1,174.06,275.29Zm79.81-69.73c-4.55,15.95-26.17,51-71.42,65,0,0,49.44-20.3,63.91-63.15C249.44,198.3,255.82,198.7,253.87,205.56Z"/></svg>