<svg id="Layer_1" data-name="Layer 1" xmlns="http://www.w3.org/2000/svg" viewBox="0 0 1024 768"><defs><style>.cls-1{fill:#ef7322;}.cls-2{fill:#9f6e21;}.cls-3{fill:#93b9c8;}.cls-4{fill:#f1f2f2;}.cls-5{fill:#efefef;}.cls-6{opacity:0.85;}.cls-7{fill:#cbe6f6;}.cls-8{opacity:0.21;}.cls-9{fill:#00b4f1;}.cls-10{fill:#b7e4f4;}.cls-11,.cls-19,.cls-27,.cls-39{fill:none;}.cls-11,.cls-27{stroke:#93b9c8;stroke-width:5.31px;}.cls-11,.cls-27,.cls-39{stroke-linecap:round;}.cls-11,.cls-15,.cls-18,.cls-27,.cls-39{stroke-linejoin:round;}.cls-12{fill:#d69611;stroke:#9f6e21;}.cls-12,.cls-19,.cls-33,.cls-35,.cls-36,.cls-38{stroke-miterlimit:10;}.cls-12,.cls-19{stroke-width:8.57px;}.cls-13{fill:#ffc605;}.cls-14{fill:#f29b05;}.cls-15{fill:#bf8450;stroke:#784d32;stroke-width:7.5px;}.cls-16{fill:#aacf53;}.cls-17{fill:#77b00f;}.cls-18{fill:#f23005;stroke:#8c0303;stroke-width:7.71px;}.cls-19{stroke:#f0f0f0;}.cls-20{fill:#8c0303;}.cls-21{fill:#f2edbd;}.cls-22{fill:#ccbf97;}.cls-23{fill:#946e22;opacity:0.38;}.cls-24{fill:#601d20;}.cls-25{fill:#f35766;}.cls-26,.cls-33,.cls-38{fill:#231f20;}.cls-27{opacity:0.48;}.cls-28{fill:#fff;opacity:0.45;}.cls-29{fill:#f7931e;}.cls-30{fill:#662113;}.cls-31{fill:#8dc63f;}.cls-32{fill:#f06293;}.cls-33,.cls-38,.cls-39{stroke:#231f20;}.cls-33{stroke-width:0.95px;}.cls-34{fill:#4a0e10;}.cls-35{stroke:#000;stroke-width:21.18px;}.cls-36{fill:#c3d831;stroke:#75bf44;stroke-width:5.82px;}.cls-37{fill:#ae6300;}.cls-38{stroke-width:1.5px;}.cls-39{stroke-width:4.37px;}.cls-40{fill:#c18323;}.cls-41{fill:#d7df23;}</style></defs><path class="cls-1" d="M679.5,483.32c-.6.8.65-.79,0,0-.12.14-.23.29-.35.44-.34.4-.68.8-1,1.19-.71.79-1.47,1.56-2.25,2.29s-1.55,1.43-2.36,2.1a10.86,10.86,0,0,1-1.19,1c.09-.06.8-.61.16-.13l-.87.65a83.11,83.11,0,0,1-11.6,7c-2,1-4,1.93-6,2.81l-.32.14c.69-.3-.25.1-.32.13l-1.41.57c-1,.41-2,.8-3,1.18-3.4,1.26-6.85,2.39-10.35,3.34-1.48.4-3,.77-4.47,1.07-.56.11-1.13.2-1.69.3-.86.14,1.4-.13.39-.06l-.56.05a4.53,4.53,0,0,0-4.46,4.45c.11,2.31,2,4.6,4.46,4.46a39.46,39.46,0,0,0,7.46-1.35c3.55-.91,7.05-2,10.5-3.27,8.8-3.18,17.52-7.12,25.18-12.55a51.31,51.31,0,0,0,11.83-11.23c1.4-1.88.37-5.06-1.6-6.1-2.33-1.23-4.6-.4-6.09,1.6Z"/><path class="cls-1" d="M683,485.63c.44-3.1.35-6.28,1-9.35a2.22,2.22,0,1,0-4.29-1.18,21.55,21.55,0,0,0-.41,8.61,2.23,2.23,0,0,0,3.27,1.33c3.77-2.81,7.25-6,11.31-8.4l-2.7-3.5c-2.71,2.22-5.22,4.71-8.1,6.72a2.25,2.25,0,0,0,1.12,4.15c4.22.42,8.51-.25,12.7.47l.59-4.38a92.34,92.34,0,0,0-14.1.91,2.24,2.24,0,0,0-1,3.73c2.65,2.14,5.73,3.57,8.66,5.29,2.16,1.26,4.54-1.73,2.7-3.5a11.26,11.26,0,0,0-6.09-3.13,2.31,2.31,0,0,0-2.75,1.56,2.24,2.24,0,0,0,1.56,2.74,7.08,7.08,0,0,1,4.13,2l2.7-3.5c-2.54-1.49-5.64-2.88-7.76-4.59l-1,3.72a83.38,83.38,0,0,1,12.92-.75,2.24,2.24,0,0,0,2.19-1.94,2.2,2.2,0,0,0-1.6-2.44c-4.61-.79-9.25-.16-13.88-.63l1.13,4.15c3.2-2.22,6-4.94,9-7.41a2.21,2.21,0,0,0,.18-2.93,2.24,2.24,0,0,0-2.88-.57c-4.06,2.4-7.54,5.59-11.31,8.41l3.28,1.33a15.88,15.88,0,0,1,.4-6.25l-4.29-1.18c-.7,3.09-.6,6.23-1,9.35a2.31,2.31,0,0,0,1.56,2.74,2.25,2.25,0,0,0,2.74-1.56Z"/><path class="cls-2" d="M725,476.93a24.13,24.13,0,0,1-2.35-.81c-.55-.22.49.23-.06,0l-.47-.22c-.48-.22-1-.46-1.43-.71a41.32,41.32,0,0,1-4.89-3.07,46.15,46.15,0,0,1-4.11-3.39q-2.29-2.1-4.36-4.41a47.58,47.58,0,0,1-6.52-9,27.51,27.51,0,0,0-2.83-4.8,9.14,9.14,0,0,0-5-2.67,82.52,82.52,0,0,0-12.54-1.48l1.89,7c.36-.2.31-.19-.15,0a3.5,3.5,0,0,1,.56-.13c-.91.18,0,.05.22.06s1.51.17.69,0l1.23.22a19.18,19.18,0,0,0,5.59.55c2.4-.27,4.29-2.17,3.62-4.74-1.69-6.48-8.19-9.33-12.27-14a3.71,3.71,0,0,0-4.92-.3,3.8,3.8,0,0,0-1,4.84c2.59,4.95,8.56,6.47,12.9,9.35,1.88,1.25,5.11.09,5.51-2.24,1-5.72-1-10.83-2.13-16.35l-6.86,2.89A32.93,32.93,0,0,1,689.19,448a3.8,3.8,0,0,0,6.4,2.66c3.36-3.2,4.65-7.6,6.76-11.58l-6.85-2.89c-.21.55.41-.81-.07.14-.16.31-.31.61-.48.92-.38.68-.78,1.34-1.18,2-.8,1.33-1.62,2.65-2.32,4-1.69,3.38-2.68,7.16,0,10.32a3.79,3.79,0,0,0,5.31,0,3.84,3.84,0,0,0,0-5.31c.36.51.44.61.23.28.23.61.29.72.17.35-.19-.65.28.88,0,.19,0-.15,0-.29,0-.44l-.06.54c-.08-.18.19-.78.25-1s.18-.51.28-.76c-.34.87,0,0,.09-.16.31-.64.65-1.27,1-1.89a51,51,0,0,0,3.92-7.27,3.76,3.76,0,0,0-6.86-2.89c-1.81,3.42-3.17,7.75-5.58,10.05l6.4,2.65c-.37-6.38-1.63-12.7-4.83-18.3a3.74,3.74,0,0,0-4.68-1.54A3.79,3.79,0,0,0,685,432.6c.45,2.26,1.13,4.45,1.65,6.69a14.88,14.88,0,0,1,.48,5.68l5.51-2.24c-1.92-1.27-4-2.2-6-3.31-.5-.27-1-.56-1.48-.86l-.71-.45c-.07-.05-.94-.69-.29-.18a10,10,0,0,1-1.13-1c-.23-.23-.48-.79-.14-.12-.13-.25-.29-.47-.42-.71l-5.89,4.54a58.36,58.36,0,0,0,6.1,5.44c1.05.91,2,1.89,3,2.89.6.63-.21-.37.22.27.18.26.36.52.52.79.06.09.55,1.11.36.64s.16.56.19.67l3.61-4.75a9.07,9.07,0,0,1-1.28.06l-.67-.05c.39,0,.28,0,0,0-1-.17-2-.38-3-.53-2.38-.35-4.78-.49-6.93.8a3.84,3.84,0,0,0-1.72,4.23,3.9,3.9,0,0,0,3.62,2.76c1.63.13,3.27.24,4.91.39l2.76.3c.62.07-.53-.08.08,0l.53.08c.5.08,1,.16,1.5.26a15.24,15.24,0,0,1,2.11.56c-.74-.27.49.42.08.07s0,0,0,.07c.5.36-.09-.24,0,0a14.49,14.49,0,0,0,1.1,2.1c.42.84.88,1.66,1.36,2.46a63.45,63.45,0,0,0,16.59,18.11A37.22,37.22,0,0,0,723,484.17a3.8,3.8,0,0,0,4.62-2.62,3.84,3.84,0,0,0-2.62-4.62Z"/><path class="cls-3" d="M236,373.44c11.63,2,23.57-1.57,34.15-6.18a89.86,89.86,0,0,0,15.9-8.91,68.06,68.06,0,0,0,13.54-12.09c3.86-4.69,7.25-10.16,8.16-16.27a5.5,5.5,0,0,0-.51-3.86,5.09,5.09,0,0,0-3-2.29c-2.37-.54-5.74.72-6.15,3.49a21.08,21.08,0,0,1-.7,3.15c-.15.51-.33,1-.51,1.51a6.65,6.65,0,0,0-.28.69c.39-1.45.21-.48,0,0a36.44,36.44,0,0,1-3.74,6.12c-.5.68.76-.93,0,0-.18.22-.36.45-.54.66-.43.52-.87,1-1.33,1.53-.89,1-1.83,1.94-2.79,2.86s-2,1.87-3.08,2.76c-.52.44-1.05.86-1.58,1.29l-.37.29c-.41.33.39-.3.39-.3-.22,0-.82.62-1,.77a88.85,88.85,0,0,1-15.09,8.95l-1.93.88c-.09,0-1,.42-1,.45s1-.39.45-.19l-.59.25q-2,.81-4,1.53a72.93,72.93,0,0,1-7.94,2.33c-1.4.33-2.82.61-4.25.84l-.55.08c-.7.11.35-.05.5-.06l-.95.11q-1,.12-2,.18a37.15,37.15,0,0,1-3.95.07q-.9,0-1.8-.12c-.23,0-1.24-.15-.26,0s-.24,0-.47-.08c-2.57-.45-5.51.69-6.15,3.49-.55,2.43.74,5.67,3.49,6.15Z"/><path class="cls-3" d="M302.44,325.44a41.82,41.82,0,0,0-4.76-6.3l-3,3.92a16.43,16.43,0,0,1,4.28,4.28,2.54,2.54,0,0,0,3.42.9c2.61-1.65,3.53-4.93,4.19-7.77s.91-5.82,1.87-8.59l-4.91-.66c.58,5-1.52,9.65-2.32,14.53a2.6,2.6,0,0,0,1.14,2.82,2.55,2.55,0,0,0,3-.39c3.69-3.82,6.86-8.28,11.12-11.5l-3.42-3.42c-3.43,4.81-8.12,8.66-10.68,14.08A2.54,2.54,0,0,0,305.2,331c5.5-1,9.74-5.09,14.43-7.82l-3-3.92c-4.2,4-10,5.89-14.73,9.09a2.52,2.52,0,0,0,1.26,4.65c4.6.25,9.11.44,13.4-1.54a2.52,2.52,0,0,0,.89-3.42,2.55,2.55,0,0,0-3.42-.9c-3.34,1.54-7.31,1.06-10.87.86l1.26,4.66c5.17-3.46,11.19-5.51,15.75-9.87,2.06-2-.58-5.34-3-3.92-4.29,2.49-8.22,6.4-13.24,7.31l2.82,3.68c2.54-5.4,7.26-9.29,10.68-14.09,1.41-2-1.44-4.91-3.42-3.42-4.65,3.52-8.12,8.12-12.13,12.28l4.18,2.43c.87-5.3,3.14-10.38,2.5-15.85-.33-2.75-3.95-3.47-4.92-.67a66.18,66.18,0,0,0-1.68,7.76,28.05,28.05,0,0,1-1.07,3.92c-.05.15-.11.3-.17.45.1-.23.08-.22,0,0l-.42.76a4,4,0,0,1-.23.34c.19-.25.2-.27,0-.06a3.07,3.07,0,0,1-.26.25q.42-.31.09-.09l3.42.9a22.94,22.94,0,0,0-6.08-6.07c-2.36-1.66-5,2-3,3.92a34.7,34.7,0,0,1,4,5.29,2.55,2.55,0,0,0,3.42.9,2.52,2.52,0,0,0,.9-3.42Z"/><path class="cls-4" d="M995.18,660.77c3,16.26-212.1,40.59-476,40.59S25.14,681.21,22.7,664.87,249.12,631.19,513,631.19,991,637.51,995.18,660.77Z"/><path class="cls-2" d="M887.35,657.71c-.43-6.65-19.82-31.67-5.51-51.29l-6-4.14c-7.4,10.7-8.07,24.19-1.93,39,.89,2.16,1.86,4.19,2.85,6.06l-.94-.23c-9.49-1.83-21.26,8.46-21.06,14.51S887.48,659.58,887.35,657.71Z"/><path class="cls-2" d="M794.18,662.27c5.31-7.93-6.82-35.8,14.21-49.41l-4-6.12c-10.92,7.07-16.68,19.28-16.67,35.31,0,2.34.13,4.59.33,6.7l-.78-.58c-8.08-5.31-17.39-.33-19.51,5.35S793.13,663.83,794.18,662.27Z"/><path class="cls-3" d="M87.1,382.09c0,.42-.38,1.23,0-.06a7.93,7.93,0,0,0-.14,1q-.15,1-.33,1.95c-.26,1.38-.56,2.76-.9,4.12-.68,2.76-1.5,5.48-2.43,8.17-.46,1.34-1,2.67-1.46,4-.27.7-.55,1.4-.83,2.1-.14.36-.28.71-.43,1.06s-.19.47-.29.7c.25-.6.27-.65,0-.13q-1.86,4.31-3.92,8.51a311.69,311.69,0,0,1-19.24,33c-3.51,5.35-7.13,10.63-10.79,15.88a5,5,0,0,0,1.8,6.85,5.13,5.13,0,0,0,6.84-1.8c14.37-20.64,28.78-42.1,37.36-65.91a87.28,87.28,0,0,0,4.7-19.36c.31-2.61-2.52-5.11-5-5-3,.13-4.67,2.2-5,5Z"/><path class="cls-5" d="M220,244.61a6.83,6.83,0,0,1-6.83,6.83h-96.3a6.83,6.83,0,0,1-4-12.33c9.18-6.78,14.39-15.56,16.68-28.58h-2.12c-3.77,0-1.21-2.74-1.21-6.51s-2.56-7.16,1.21-7.16h3.49c.18-4.35.2-8.76.2-13a6.83,6.83,0,0,1,6.83-6.83H192a6.83,6.83,0,0,1,6.83,6.83c0,4.23,0,8.64.23,13h3.34c3.78,0,1.2,4,1.2,7.73s2.58,5.94-1.2,5.94h-2c2.27,12.85,7.34,21.56,16.3,28.31A6.81,6.81,0,0,1,220,244.61Z"/><g class="cls-6"><path class="cls-7" d="M240.52,291c0-20.1,0-34.64-23.39-51.88-1.16-.87-7.43-3.41-8.88-3.41h-88.7c-2.07,1-6.08,2.9-6.77,3.41-23.4,17.24-23.4,31.78-23.4,51.88v81.64a6.8,6.8,0,0,0,1,3.52c-1.86,33.23-1,82.73-1,85.19v70.51c0,38,15.87,45.21,45.12,45.21h60.91c29.25,0,45.11-7.2,45.11-45.21V353.31a6.81,6.81,0,0,0-.11-1.21c.07-.9.11-1.61.11-2Z"/><path class="cls-7" d="M119.21,235.72h.34C121,235,121.5,234.74,119.21,235.72Z"/></g><g class="cls-8"><path class="cls-9" d="M240.52,344.58v21.87c0,.74,1,6.52-2.79,6.52,0,0-71.8,20.89-147.91-2.61-1.31-.65,2-12.38-.65-27.37,95.13,24.76,149.21-1.3,149.21-1.3C242.15,341.69,240.52,343.84,240.52,344.58Z"/></g><g class="cls-8"><path class="cls-9" d="M240.52,398v21.87c0,.74,1,6.52-2.79,6.52,0,0-71.8,20.89-147.91-2.61-1.31-.65,2-12.38-.65-27.37,95.13,24.76,149.21-1.3,149.21-1.3C242.15,395.12,240.52,397.27,240.52,398Z"/></g><g class="cls-8"><path class="cls-9" d="M240.52,451.44v21.87c0,.74,1,6.51-2.79,6.51,0,0-71.8,20.9-147.91-2.6-1.31-.65,2-12.38-.65-27.37,95.13,24.76,149.21-1.3,149.21-1.3C242.15,448.55,240.52,450.7,240.52,451.44Z"/></g><g class="cls-8"><path class="cls-9" d="M240.52,504.87v21.87c0,.74,1,6.51-2.79,6.51,0,0-71.8,20.9-147.91-2.6-1.31-.65,2-12.38-.65-27.37C184.3,528,238.38,502,238.38,502,242.15,502,240.52,504.13,240.52,504.87Z"/></g><ellipse class="cls-10" cx="164.39" cy="236.08" rx="44.92" ry="6.35"/><path class="cls-11" d="M216.26,239.13l-.09-.06c-.1-.07-.18-.17-.28-.23-9-6.75-14-15.46-16.31-28.32h2c3.77,0,3.77-13.66,0-13.66h-3.35c-.2-4.35-.22-8.76-.22-13a6.83,6.83,0,0,0-6.83-6.83H137a6.83,6.83,0,0,0-6.83,6.83c0,4.23,0,8.64-.21,13h-3.48c-3.78,0-3.78,13.66,0,13.66h2.12c-2.29,13-7.5,21.81-16.69,28.59l-.18.16C88.53,256.45,88.52,271,88.52,291V531.87c0,38,15.86,45.21,45.11,45.21h60.91c29.26,0,45.12-7.2,45.12-45.21V291C239.66,270.91,239.66,256.37,216.26,239.13Z"/><path class="cls-9" d="M209.19,155.87l.25,27.61a6.84,6.84,0,0,1-6.77,6.89l-75.1.66a6.83,6.83,0,0,1-6.89-6.77l-.25-27.61c-.12-13.49,24-16.54,44.24-16.72S209.07,142.38,209.19,155.87Z"/><path class="cls-12" d="M970.5,562.32c0,43.21-33.22,59.07-122.65,56.8-92.13-2.33-120.64-13.59-120.64-56.8S970.55,515.51,970.5,562.32Z"/><path class="cls-13" d="M889.16,570.43c-16.24,2.81-43,7.47-58.71,13.1-11.3,4.05-29,18.36-40.74,17.24-17.33-1.65-22-39.12-17.71-58.12,8.4-37.26,23.37-27.5,48.6-13.32,18.85,10.59,56.69.52,66.1,22.82"/><path class="cls-14" d="M888.45,567.84c-12.66,2.2-25.32,4.44-37.85,7.3-6.12,1.4-12.23,2.93-18.19,4.89a84.86,84.86,0,0,0-15.3,7.15c-5.28,3-10.59,6.17-16.14,8.49A34,34,0,0,1,793.2,598c-.32,0-.05,0,0,0l-.42,0-.82.07a14.59,14.59,0,0,1-1.87,0c-.11,0-.81-.07-.45,0s-.26,0-.36-.06a11.35,11.35,0,0,1-1.39-.36l-.58-.2c-.5-.17,0,0-.11,0-.43-.2-.86-.42-1.27-.66s-.7-.45-1-.68c-.55-.37.15.14-.22-.16l-.57-.49a18.75,18.75,0,0,1-2-2.09l-.29-.36-.35-.48c-.3-.43-.59-.86-.87-1.3a42,42,0,0,1-5-12.7,84.31,84.31,0,0,1-1.82-30.41c0-.13.1-.77,0-.33,0-.26.07-.51.11-.77.09-.58.19-1.16.29-1.74.25-1.32.55-2.62.86-3.92a83.4,83.4,0,0,1,2.69-9,35.49,35.49,0,0,1,2.93-6.24c.25-.41.5-.82.77-1.21l.39-.57.27-.36c-.14.18-.19.23,0,0a18.57,18.57,0,0,1,1.81-2c.28-.26.58-.51.88-.75-.56.44.43-.28.65-.42s.61-.36.93-.52l.55-.26c.26-.13-.25.1-.24.1A3,3,0,0,1,787,520a14.64,14.64,0,0,1,2.16-.58c.36-.07.38,0,0,0l.52-.06c.42,0,.83,0,1.25,0s.73,0,1.09,0,1.52.19.78.06c.86.15,1.7.31,2.53.52a40.14,40.14,0,0,1,5.44,1.87l.24.1.78.35,1.47.68c1,.49,2,1,3,1.51,2.19,1.12,4.35,2.31,6.5,3.5,4.39,2.45,8.63,5.08,13.45,6.58,9.84,3.06,20.39,3.18,30.54,4.4,2.29.28,4.55.6,7.08,1.1a55.66,55.66,0,0,1,7,1.79,23.76,23.76,0,0,1,10.36,6.39l.49.57c.37.43,0,0,.28.35s.59.83.87,1.27a22.74,22.74,0,0,1,1.59,3.06,2.69,2.69,0,0,0,3.66,1,2.74,2.74,0,0,0,1-3.66C885,541.33,875.37,537,865.82,535a155.92,155.92,0,0,0-16.1-2.14c-5.38-.52-10.35-.93-15.42-1.87a55,55,0,0,1-7.16-1.76c-.54-.17-1.07-.36-1.6-.56l-.72-.27a4.23,4.23,0,0,1-.53-.23c-1-.47-2-1-3-1.56-4.57-2.57-9.12-5.2-13.83-7.54-6.91-3.43-15.35-7.07-23-3.75-3.6,1.57-6.32,4.63-8.32,7.94-3,5-4.79,10.8-6.17,16.45-2.58,10.49-2.6,21.42-1.1,32.08a67.41,67.41,0,0,0,3.79,15.2c1.7,4.35,3.93,8.69,7.37,11.94a16.1,16.1,0,0,0,11.83,4.56c6-.29,11.78-3,17.06-5.66,5.62-2.89,11-6.23,16.6-9.14a46.65,46.65,0,0,1,7-3.05c2.83-1,5.69-1.81,8.57-2.6,13.24-3.63,26.78-6.14,40.28-8.54l8.55-1.5a2.69,2.69,0,0,0,1.87-3.29,2.74,2.74,0,0,0-3.29-1.88Z"/><path class="cls-15" d="M737.82,516.74H958.33A13.66,13.66,0,0,1,972,530.4v25.19a13.66,13.66,0,0,1-13.66,13.66H737.82A26.26,26.26,0,0,1,711.56,543v0a26.26,26.26,0,0,1,26.26-26.26Z"/><path class="cls-16" d="M718.88,491.84c-42.32,21.16-14.11,43.32,9.06,30.22,7,2.93,4.09,14.44,8.86,19.08,12,11.66,28.26-4.81,42.24-1.13,9.76,2.57,16.84,11.19,27.59,11.92,9.51.64,15.17,2.6,24.34,1.81,12.44-1.08,14.59-1.63,36.11,3.91,28.86,7.42,65.61-13.16,76.08-17.34,15.62-6.24,17.2,8.58,34,.47s3.54-30.87-4.62-38-7.3-4.74-18.2-5.36C908.46,494.82,779.33,509,718.88,491.84Z"/><path class="cls-17" d="M717.52,489.52c-6.54,3.29-13.24,7.29-18,12.93-2.94,3.44-5.47,7.86-5.08,12.55.76,9,10,13.34,18.14,13.65a32.25,32.25,0,0,0,16.77-4.27h-2.71a4.18,4.18,0,0,1,2,1.45c-.33-.39.18.26.2.29.14.22.27.45.39.68s.24.48.35.72c-.17-.4.11.34.12.38a47.19,47.19,0,0,1,1.47,6.54,20.62,20.62,0,0,0,2.11,6.45,14.42,14.42,0,0,0,5.76,5.19c9.69,5.09,20.27-1,29.84-3.21a19.84,19.84,0,0,1,13.69,1.25c5.17,2.43,9.74,6,15,8.21,6,2.55,12.54,2.53,18.89,3.39a79.42,79.42,0,0,0,9.36.87,76.26,76.26,0,0,0,8.14-.43,73.76,73.76,0,0,1,10-.39,65.38,65.38,0,0,1,11.47,1.79c6.06,1.34,12,3.23,18.19,4a68.29,68.29,0,0,0,17.14-.33c11.17-1.48,22-4.92,32.38-9.13,4.33-1.76,8.61-3.65,12.86-5.6l4.77-2.19,1.92-.86.92-.4c-.81.35.14,0,.33-.13a17.62,17.62,0,0,1,6.63-1.48c.43,0,.86,0,1.28.06.08,0,.88.11.26,0,.24,0,.47.07.71.12a20.43,20.43,0,0,1,2.65.74l1,.4.62.25c-.59-.24.09,0,.18.08,1,.41,1.91.83,2.88,1.22a21.33,21.33,0,0,0,4.82,1.41,23,23,0,0,0,15-3.39,15.72,15.72,0,0,0,7.62-10.85c1.43-8.86-2.93-18.08-8.14-25a43.57,43.57,0,0,0-9.24-9.05,12.78,12.78,0,0,0-4.65-2.28,22.23,22.23,0,0,0-5.15-.3c-7.16.09-14.34-.46-21.51-.44-8.17,0-16.35.25-24.53.51-20.31.65-40.62,1.57-60.93,2.17-21.78.65-43.58,1-65.36.34-19.28-.58-38.56-1.74-57.24-5.5-3.77-.76-7.51-1.63-11.21-2.68-3.33-.94-4.75,4.23-1.43,5.17a193.34,193.34,0,0,0,28.52,5.43c11.14,1.4,22.36,2.18,33.57,2.66,12.15.52,24.31.67,36.47.61,12.41-.05,24.81-.31,37.22-.68,11.94-.36,23.89-.81,35.83-1.27,10.6-.41,21.2-.82,31.8-1.11,8.55-.23,17.11-.4,25.66-.22,4.16.08,8.31.42,12.47.37,1,0,2,0,3,0,.37,0,.75.05,1.12.07s-.54-.11-.18,0l.25.05a5.63,5.63,0,0,1,.59.14l.51.15c.5.15-.11-.06,0,0,.44.22.86.44,1.28.7a19.66,19.66,0,0,1,2.52,1.88,38.43,38.43,0,0,1,4.89,4.74,41.9,41.9,0,0,1,3.83,5.43,40.85,40.85,0,0,1,3.14,6.33,34.57,34.57,0,0,1,1.13,3.58c.13.55.26,1.1.36,1.66a9.47,9.47,0,0,1,.2,1.48,19.49,19.49,0,0,1,0,3.33c0,.44.05-.14-.06.45,0,.25-.09.51-.15.76a15.3,15.3,0,0,1-.46,1.6c0,.12-.29.68-.12.3-.12.28-.26.55-.4.81a10.85,10.85,0,0,1-.92,1.43c.23-.3-.19.21-.26.29s-.37.4-.57.6a11.41,11.41,0,0,1-1.22,1.06,21,21,0,0,1-7.81,3.3,12.75,12.75,0,0,1-5.8-.13,22.67,22.67,0,0,1-2.78-.93l-.62-.25-.18-.08-1.42-.61a26.53,26.53,0,0,0-5.94-2c-5-.85-9.52.55-14,2.54-9.1,4-17.78,8.2-27.17,11.44-12,4.12-24.75,7.15-37.49,6-6.64-.61-13-2.84-19.56-4.22a68.52,68.52,0,0,0-13.22-1.74c-4.17-.05-8.3.52-12.45.79-7.31.46-14.44-1.18-21.69-1.79a26,26,0,0,1-9.21-2.27c-2.93-1.37-5.66-3.11-8.43-4.76-5.41-3.21-11.16-6-17.61-5.48-6,.46-11.52,2.72-17.22,4.37-5,1.45-10.18,2.51-14.62-.16a12.22,12.22,0,0,1-2.77-2.3,7.86,7.86,0,0,1-1.17-2.53c-.73-2.37-1-4.86-1.55-7.28a15.08,15.08,0,0,0-3.29-7.1,8.28,8.28,0,0,0-3.57-2.37c-1.52-.42-3.12.88-4.46,1.49a26.87,26.87,0,0,1-2.91,1.1,30.27,30.27,0,0,1-3.28.83l-.74.13-.52.08-.63.07-.85.07a24.51,24.51,0,0,1-3.09,0c-.46,0-.92-.07-1.38-.11l-.34,0s.47.07.16,0-.52-.08-.77-.12a21.21,21.21,0,0,1-2.72-.68c-.4-.12-.78-.27-1.17-.41s.37.19-.2-.09l-.63-.3a18.69,18.69,0,0,1-2.14-1.29c-.41-.28.34.29,0,0-.14-.12-.29-.23-.42-.35-.29-.26-.57-.53-.84-.82s-.28-.3-.41-.46-.25-.35,0,0c-.22-.3-.43-.61-.62-.93s-.34-.66-.5-1c.32.67-.09-.3-.17-.57s-.15-.68-.23-1,0,.28,0,.27,0-.23,0-.35,0-.41,0-.62c0-.37,0-.73,0-1.1,0-.55,0,.12,0,0s.09-.51.15-.76a12.15,12.15,0,0,1,.33-1.18l.21-.6c.21-.57-.08.15.12-.26a19.57,19.57,0,0,1,3.57-5.19c4.48-4.79,10.29-8.18,16.1-11.1a2.71,2.71,0,0,0,1-3.67A2.74,2.74,0,0,0,717.52,489.52Z"/><ellipse class="cls-18" cx="799.8" cy="528.25" rx="52.67" ry="31.08"/><path class="cls-13" d="M843.93,524.75c16.14,4.23,31.68,6.54,46.86,13,10.93,4.68,26.87,18.56,39,19,17.91.67,28.11-29.69,26.5-45.87-3.16-31.72-19.83-25.43-47.6-16.7-20.75,6.52-50.38,14.69-63.21,32"/><path class="cls-14" d="M843.21,527.33c13.44,3.51,27.22,5.84,40.34,10.49a78,78,0,0,1,14.66,7c4.78,2.9,9.45,6,14.35,8.69,4.5,2.48,9.36,4.88,14.49,5.66a19.15,19.15,0,0,0,12.33-2.08c7.64-4.17,12.33-12.52,15.37-20.37s5-16.86,4.27-25.35c-.65-7.74-2.2-17.44-8.49-22.81C945.14,484,938,484,931.41,485.13c-8.72,1.46-17.15,4.55-25.57,7.18-10.22,3.18-20.49,6.3-30.39,10.41s-19.7,9.07-27.44,16.58a46.49,46.49,0,0,0-4.84,5.55,2.71,2.71,0,0,0,1,3.67,2.74,2.74,0,0,0,3.66-1c5.65-7.55,14.46-12.86,23-16.95,9.33-4.47,19.19-7.73,29.05-10.83,8.83-2.77,17.64-5.79,26.61-8.1,1.78-.46,3.58-.88,5.39-1.21l1.34-.24.82-.12c.82-.11,1.65-.19,2.48-.24a26.59,26.59,0,0,1,4.46.1c.41,0-.67-.13,0,0l.57.1a9.4,9.4,0,0,1,.92.2,18.08,18.08,0,0,1,1.93.62c-.72-.27.17.09.36.18s.59.31.87.48.56.36.84.55l.29.22c-.61-.45.06.07.18.17a14.33,14.33,0,0,1,1.35,1.35l.38.46c-.06-.06-.34-.45-.05-.06s.48.68.7,1a21.38,21.38,0,0,1,1.19,2.15c.07.16.5,1.15.31.68.19.47.37.95.54,1.43a42.21,42.21,0,0,1,1.57,6,50.79,50.79,0,0,1-1.36,24,53.64,53.64,0,0,1-4.68,11.66,30.51,30.51,0,0,1-7.1,9.17l-.49.42c-.65.53.4-.29-.26.2-.34.25-.68.49-1,.72a19.6,19.6,0,0,1-2.37,1.32c-.72.34.49-.18-.26.11l-.45.17c-.38.13-.76.26-1.15.36s-.94.23-1.42.32c-.1,0-.53.08,0,0-.33,0-.66.08-1,.1-4.09.24-8.28-1.32-12.16-3.19-9.19-4.42-17.18-11.07-26.49-15.22-12.23-5.46-25.43-8.14-38.41-11.17-3.21-.75-6.42-1.52-9.61-2.35s-4.76,4.29-1.43,5.16Z"/><path class="cls-19" d="M845.91,504.1c0-19.24,25.2-34.84,56.27-34.84s56.27,15.6,56.27,34.84-23.08,30.46-54.16,30.46S845.91,523.33,845.91,504.1Z"/><path class="cls-20" d="M739.27,512.66a69.89,69.89,0,0,0,40.42,32.42,73.9,73.9,0,0,0,49.57-3.15,76,76,0,0,0,24-16.23c2.44-2.44-1.35-6.23-3.79-3.79a70.68,70.68,0,0,1-20,14.08,71.88,71.88,0,0,1-22.24,6.25A65,65,0,0,1,762.68,531a66.45,66.45,0,0,1-18.79-21c-1.72-3-6.35-.29-4.62,2.7Z"/><path class="cls-21" d="M725.67,506.38c-12,13.47,9.9,22,26.66,19.23,31.81-5.21,52.17,4.12,67.58,6.87,48.06,8.55,62.17-15.94,64.53-18.65,4.94-5.66-119.54-48.83-123.74-56.07C758.18,453.42,729.68,501.87,725.67,506.38Z"/><path class="cls-22" d="M723.78,504.49c-2.89,3.31-5.19,7.65-3.81,12.14,1.22,3.94,4.66,6.73,8.25,8.47a39.47,39.47,0,0,0,14.09,3.57c5.78.46,11.3-.72,17-1.32A114.36,114.36,0,0,1,793.52,529c8.32,1.65,16.42,4.27,24.75,5.87,17.85,3.43,38.12,3.51,54.15-6.21a45.55,45.55,0,0,0,11-9.22c1-1.14,1.89-2.33,2.79-3.54.38-.5.11-.2-.07.08.2-.31.48-.53.68-.86a3.3,3.3,0,0,0,.36-2.55c-.66-2.54-3.85-4.12-5.94-5.3-3.86-2.18-7.91-4-12-5.85-12.43-5.58-25.1-10.64-37.74-15.71-13.49-5.41-27-10.73-40.45-16.26l-4.59-1.9-2-.85-.47-.19c.64.27,0,0-.1,0l-1.1-.46c-2.53-1.08-5-2.17-7.55-3.29a102.92,102.92,0,0,1-10.43-5.14q-.77-.46-1.5-1c-.69-.47.44.43,0,0a4.07,4.07,0,0,0-.43-.4c-.47-.37.45.64.14.18a3.45,3.45,0,0,0-1.21-1.19,3.6,3.6,0,0,0-3.56.17,16.17,16.17,0,0,0-4,3.84c-1.93,2.34-3.72,4.8-5.47,7.28-8,11.32-15,23.23-22.72,34.75-.51.76-1,1.53-1.56,2.28-.2.29-.43.56-.62.86.37-.55.24-.29-.1.1a2.74,2.74,0,0,0,0,3.79,2.71,2.71,0,0,0,3.79,0c2.87-3.27,5.07-7.28,7.4-10.93,3.87-6,7.71-12.11,11.65-18.11q3-4.5,6-8.93c.9-1.3,1.81-2.58,2.74-3.86.39-.52.77-1,1.16-1.55.15-.2.68-.87.25-.33l.64-.81c.67-.84,1.35-1.67,2.09-2.45.28-.3.58-.6.88-.88.12-.11.25-.21.36-.32.35-.35-.64.35-.08.07s.62-.25,0-.06c.51-.15-.81,0-.39,0a2.26,2.26,0,0,1-1.58-.67c.19.19-.54-.71-.18-.21a6.79,6.79,0,0,0,.72.87c2,1.94,4.81,3.17,7.28,4.39,4.31,2.11,8.72,4,13.14,5.91,12.54,5.34,25.21,10.36,37.87,15.42q10.17,4,20.34,8.15,4.86,2,9.7,4l4.68,1.94,2.07.86,1.12.47.5.21.26.11c5.11,2.17,10.21,4.37,15.23,6.75a71.38,71.38,0,0,1,9.53,5.09l.65.46c.48.33-.33-.29-.2-.16s.21.16.3.25l.45.43c.55.5-.27-.44-.07-.13.33.55-.16-.52-.1-.28a2.24,2.24,0,0,1,0-1.06c-.08.27.39-.82.2-.49-.1.17.61-.65.3-.4a4.93,4.93,0,0,0-.72.93l-.84,1.1c-.41.55.18-.22.07-.08l-.28.36q-.33.42-.69.84a40.63,40.63,0,0,1-3.89,4.09c-.83.76-1.69,1.48-2.56,2.18-.48.38.49-.36,0,0l-.42.32-.73.52c-.55.4-1.12.78-1.7,1.15q-1.87,1.22-3.86,2.23c-.65.33-1.31.65-2,1l-1.14.5c-.42.18.59-.24-.11,0l-.87.35A64.68,64.68,0,0,1,838,531.6a117.72,117.72,0,0,1-28.16-4.2c-9.21-2.37-18.44-4.56-27.94-5.49a111.89,111.89,0,0,0-17.27-.35c-3.41.2-6.81.56-10.19,1a62.7,62.7,0,0,1-7.79.85,37.82,37.82,0,0,1-13.42-2,20.93,20.93,0,0,1-5.13-2.58s-.69-.53-.26-.19c-.13-.1-.26-.2-.38-.31-.3-.26-.59-.53-.87-.82s-.31-.34-.47-.51c-.49-.55.28.44-.13-.16-.25-.37-.46-.74-.67-1.12s0,0,0,.06q-.12-.3-.21-.6a7.29,7.29,0,0,1-.23-1c.11.69,0-.36,0-.57s0-.44.05-.66c-.08.66,0-.1.07-.2a11.33,11.33,0,0,1,2.53-4.46,2.75,2.75,0,0,0,0-3.79A2.7,2.7,0,0,0,723.78,504.49Z"/><path class="cls-12" d="M716.5,483.46c0-43.21,32-110.49,126.46-112.53,98.24-2.13,134,62.35,132.9,112.53C974.9,526.66,716.44,530.27,716.5,483.46Z"/><path class="cls-21" d="M842.63,391.69s-8.63,14.17-1.78,14.54C849.53,406.71,842.63,391.69,842.63,391.69Z"/><path class="cls-21" d="M873.69,390.59s.38,16.59,6.35,13.21C887.6,399.51,873.69,390.59,873.69,390.59Z"/><path class="cls-21" d="M757,425.35s-15.41,6.17-10.15,10.57C753.47,441.5,757,425.35,757,425.35Z"/><path class="cls-21" d="M943.83,443.45s7.44,14.83,11.39,9.22C960.22,445.55,943.83,443.45,943.83,443.45Z"/><path class="cls-21" d="M884.1,432.78s.67,16.57,6.57,13.07C898.15,441.42,884.1,432.78,884.1,432.78Z"/><path class="cls-21" d="M917.8,432.7s1.07,16.56,6.89,12.93C932.07,441,917.8,432.7,917.8,432.7Z"/><path class="cls-21" d="M931.32,413.77s6.47,16.15,11.25,11.16C948.62,418.61,931.32,413.77,931.32,413.77Z"/><circle class="cls-23" cx="941.79" cy="489.42" r="2.62"/><circle class="cls-23" cx="744.33" cy="586.84" r="2.62"/><circle class="cls-23" cx="756.9" cy="595.22" r="2.62"/><circle class="cls-23" cx="752.19" cy="586.32" r="2.62"/><circle class="cls-23" cx="955.41" cy="479.47" r="2.62"/><circle class="cls-23" cx="954.88" cy="491.52" r="2.62"/><path class="cls-24" d="M191.93,318.93c-1.68,1.58-16.93,6.69-23.72,6.9-7.47.34-21.78-3.65-23-4.77-10.21-9.75-5.79-17.74-.72-18.2,5.48-.49,13.48,1.62,23.14,1.17,9.66-.3,17.86-2,23.28-3C197.35,300,200.11,311.26,191.93,318.93Z"/><path class="cls-25" d="M191.93,318.93a35.28,35.28,0,0,1-5.73,4.52c-4.76,3-20.37,7.81-36.79.51a18.84,18.84,0,0,1-4.16-2.9c.06-.08.1-.19.2-.24C166.69,308.74,189.13,316.1,191.93,318.93Z"/><ellipse class="cls-26" cx="149.62" cy="281.9" rx="6.39" ry="8.11"/><ellipse class="cls-26" cx="183.55" cy="282.4" rx="6.39" ry="8.11"/><path class="cls-21" d="M808.1,390s-18.67,4.79-13.27,10.65C801.67,408.09,808.1,390,808.1,390Z"/><path class="cls-21" d="M898.51,391.24s8.81,18.17,13.93,12C918.94,395.42,898.51,391.24,898.51,391.24Z"/><path class="cls-27" d="M140,211.37s29.32,3.91,49.52,0"/><path class="cls-3" d="M152.15,578c1.3,22.58-.87,56-.43,79.06.24,13-23.46,14.76-28.67,11.29s2.17-12.16,19.11-11.73l2.17-79.49Z"/><path class="cls-3" d="M184.38,578c-1.31,22.58.86,56,.43,79.06-.25,13,23.46,14.76,28.67,11.29s-2.17-12.16-19.11-11.73l-2.18-79.49Z"/><path class="cls-28" d="M220.88,265c-.34,52.4,5.57,270.13-5.65,285.07s-19,19.21-35.62,17.84c0,0,35.94,14.22,46.53-19.75,10.26-32.94,1.34-269.09.63-283.29a2.94,2.94,0,0,0-.35-1.26h0A3,3,0,0,0,220.88,265Z"/><path class="cls-1" d="M550.29,658.36c.19-7,30.43-28.55,18.46-54.72l7.61-3.48c8,12.67-4.39,47.84-15.53,54.72,7.63.37,15.11,3.58,15.63,11.81C576.9,673.71,550,668.84,550.29,658.36Z"/><path class="cls-1" d="M605.86,658.5c-1-4.79,25.39-38.47,6.9-60.52l6.41-5.38c11.08,10.09,8.47,47.29-.44,56.89,7.45-1.67,15.3-3.23,19.36,7.23C640.64,663.27,607.17,664.91,605.86,658.5Z"/><path class="cls-29" d="M611.81,463.33a78.73,78.73,0,1,0,47.86,100.53,78.75,78.75,0,0,0-47.86-100.53"/><path class="cls-30" d="M561,477.16c-.63-1.34.32-3.21,2.23-4.86-5.78-15.79-2.15-36.79-2-37.74a3.92,3.92,0,1,1,7.76,1.18l0,.19c0,.21-3.32,19.37,1.42,33.08,2.3-.33,4.17.13,4.78,1.4.93,2-1.49,5.06-5.4,6.92s-7.84,1.79-8.77-.17"/><path class="cls-31" d="M519,432.45s4.6,21.59,17.87,31.75c10.11,7.74,25,14.62,28.06,11.79s.61-17.59-9.87-28.79S519,432.45,519,432.45"/><path class="cls-24" d="M623.28,528.25c-.59,1.85-11.74,9.87-17.1,11.85-5.89,2.28-18.34,2.81-19.63,2.34-9.29-3.36-9.37-12.62-5.44-14.34,4.24-1.86,11.2-2.32,18.8-5.26s13.39-7.18,17.8-8.6C621.81,512.92,626.12,519.24,623.28,528.25Z"/><path class="cls-32" d="M623.28,528.25a30,30,0,0,1-3.37,5.14,29.79,29.79,0,0,1-29.26,10.26,28.35,28.35,0,0,1-4.1-1.21,1,1,0,0,1,.09-.24C597.73,528.51,620.28,526.74,623.28,528.25Z"/><ellipse cx="577.24" cy="509.96" rx="5.7" ry="7.23" transform="translate(-156.65 276.14) rotate(-23.79)"/><ellipse cx="602.24" cy="498.95" rx="5.7" ry="7.23" transform="translate(-150.09 285.29) rotate(-23.79)"/><path class="cls-1" d="M525.63,570.25c-.89,2-1.69,4.11-2.53,6.17-.2.51-.41,1-.62,1.53-.12.29-.61,1.37,0,.07-.14.31-.27.63-.41.94-.52,1.22-1.07,2.42-1.65,3.61a76.4,76.4,0,0,1-4.38,7.86c-.9,1.4-1.85,2.78-2.85,4.12l-.43.57c.1-.13.55-.69,0,0l-.7.86c-.63.78-1.29,1.54-2,2.29q-2.13,2.37-4.49,4.53c-.88.81-1.78,1.59-2.71,2.36-.44.36-.89.73-1.35,1.09s-.05,0,0,0l-1.08.8c-1.88,1.38-3,3.93-1.6,6.1,1.19,1.86,4.08,3.08,6.1,1.6a74.06,74.06,0,0,0,17.49-17.92,88.3,88.3,0,0,0,8.58-16.44c.49-1.18,1-2.36,1.43-3.55.19-.48.39-1,.58-1.46.11-.26.21-.51.32-.76.32-.8-.48,1.1-.09.2.93-2.14.71-4.89-1.6-6.1-1.92-1-5.1-.69-6.09,1.6Z"/><circle class="cls-1" cx="529.77" cy="499.02" r="2.61"/><circle class="cls-1" cx="536.83" cy="491.18" r="2.52"/><circle class="cls-1" cx="553.29" cy="599.8" r="2.52"/><circle class="cls-1" cx="537.09" cy="502.04" r="1.71"/><circle class="cls-1" cx="649.71" cy="563.2" r="1.71"/><circle class="cls-1" cx="567.27" cy="603.28" r="1.71"/><circle class="cls-1" cx="645.06" cy="576.6" r="1.71"/><circle class="cls-1" cx="651.14" cy="572.09" r="1.13"/><circle class="cls-1" cx="562.62" cy="596.89" r="1.13"/><path class="cls-33" d="M823.73,456.33a1.81,1.81,0,0,0,2-1.29c1.87-7.57,6.6-9.81,10.09-9.43h.06c3.62.42,7.35,3.68,7.56,10a1.85,1.85,0,0,0,1.91,1.71,1.75,1.75,0,0,0,1.8-1.75c-.28-8.39-5.82-12.82-10.89-13.41h-.08c-5-.54-11.66,2.28-14.07,12a1.77,1.77,0,0,0,1.4,2.09Z"/><path class="cls-33" d="M804.75,454.12H805a1.74,1.74,0,0,0,1.83-1.71c-.14-10-6-14.32-11-14.94h-.09c-5.06-.59-11.45,2.45-13.62,10.56a1.75,1.75,0,0,0,1.35,2.11,1.83,1.83,0,0,0,2.25-1.22c1.65-6.17,6-8.49,9.69-8,3.48.43,7.58,3.71,7.69,11.5A1.82,1.82,0,0,0,804.75,454.12Z"/><path class="cls-34" d="M796.6,465.59c1.69,6.19,7,10.4,13,12.08,5.46,1.51,12.1,1.37,17-1.77a22.54,22.54,0,0,0,6.73-7.28c1.7-2.75-2.62-5.26-4.31-2.53a16.34,16.34,0,0,1-5.7,5.94,15.06,15.06,0,0,1-8,1.5c-5.86-.27-12.24-3.19-13.9-9.27-.85-3.1-5.67-1.78-4.82,1.33Z"/><path class="cls-1" d="M499.85,613.63v6.22a2.23,2.23,0,0,0,4.46,0c0-2.8,0-5.61-.09-8.41a2.3,2.3,0,0,0-1.64-2.15,2.36,2.36,0,0,0-2.51,1l-.23.3c.13-.17.15-.19.05-.07l-.36.44c-.27.32-.54.63-.82.94-.54.58-1.11,1.15-1.68,1.72-1.16,1.14-2.34,2.26-3.45,3.46l3.5,2.7a30,30,0,0,1,2.63-4.06l.35-.47.14-.18.72-.93c.6-.76,1.2-1.53,1.79-2.3a2.24,2.24,0,0,0-2.52-3.27,41.21,41.21,0,0,0-5.09,2.14l-2.34,1.11-.54.24-.2.09c-.43.18-.86.35-1.3.51a2.23,2.23,0,1,0,1.19,4.29c3.52-1.21,7-2.66,9.85-5.17a2.24,2.24,0,0,0-1-3.72c-2.6-.57-5.26-.82-7.88-1.26l-.59,4.37c.74,0,1.48,0,2.22,0a2.25,2.25,0,0,0,2.23-2.23,2.28,2.28,0,0,0-2.23-2.23c-.74,0-1.48,0-2.22,0a2.21,2.21,0,0,0-2.19,1.93,2.19,2.19,0,0,0,1.59,2.44c2.63.44,5.28.7,7.89,1.26l-1-3.72-.51.44c-.44.37.37-.26-.1.07s-.66.47-1,.69a21.85,21.85,0,0,1-2.18,1.19c-.37.19-.75.35-1.13.52-.55.25.43-.17-.12,0l-.64.26c-.73.29-1.46.55-2.2.81l1.19,4.29c1.74-.63,3.41-1.42,5.08-2.22.77-.38,1.55-.75,2.34-1.1l.19-.08.55-.22c.43-.17.87-.32,1.31-.47l-2.52-3.27-.35.46-.19.24-.73.93c-.58.75-1.16,1.49-1.73,2.25a30,30,0,0,0-2.63,4.06,2.24,2.24,0,0,0,.57,2.87,2.21,2.21,0,0,0,2.93-.17c2.4-2.58,5.08-4.85,7.18-7.69l-4.15-1.13c.13,2.8.09,5.61.09,8.41h4.46v-6.22a2.23,2.23,0,0,0-4.46,0Z"/><path class="cls-26" d="M431.92,464.78a26.41,26.41,0,0,0,17.58,1,50.56,50.56,0,0,0,15.19-7.14A64.14,64.14,0,0,0,486,434.83a98.13,98.13,0,0,0,6.64-17.45,5.05,5.05,0,0,0-3.49-6.15,5.11,5.11,0,0,0-6.16,3.49c-.71,2.5-1.49,5-2.37,7.45q-.57,1.59-1.2,3.15l-.17.43c.31-.76-.15.36-.18.42-.24.55-.49,1.11-.75,1.66a61.6,61.6,0,0,1-3.42,6.35c-.57.92-1.17,1.83-1.79,2.72L472,438.37c-.39.55.11.14.12-.14a5.07,5.07,0,0,1-.69.87,60.57,60.57,0,0,1-5.05,5.45c-.93.89-1.88,1.74-2.85,2.57-.37.31-.74.62-1.12.92a8.22,8.22,0,0,1-.65.52c1.12-.72.14-.11-.08.05a57.26,57.26,0,0,1-6,3.88c-1.06.6-2.14,1.16-3.23,1.67l-.7.33s-1.2.51-.46.2-.43.17-.47.18l-1.08.41a33.81,33.81,0,0,1-4,1.16c-.6.13-1.21.24-1.81.35-1.2.21.83-.06.05,0-.42,0-.84.08-1.26.1-.6,0-1.19,0-1.79,0l-.88,0c-.23,0-1.3-.29-.57-.05s-.24-.06-.37-.08l-1-.25-.68-.2c-.27-.08-1.75-.68-.45-.12a5.48,5.48,0,0,0-3.85-.5,5.09,5.09,0,0,0-3,2.29c-1.14,2.16-.77,5.74,1.79,6.84Z"/><path d="M349,669.4c.11-.39,19.93-36.43,1.08-55.16l5.55-5.58c10,9.9,13.34,24.09,9.75,41a82.24,82.24,0,0,1-4.06,13.3,32.7,32.7,0,0,1,8.29-1c10.43.53,18.63,4.55,16.85,10.84S348.43,671.34,349,669.4Z"/><path d="M404,609.48l5.55-5.58c10,9.9,13.33,24.09,9.75,41a84.62,84.62,0,0,1-4.06,13.3,32.62,32.62,0,0,1,8.28-1c10.43.53,16.17,3.44,14.39,9.73s-35.59-.38-35-2.32C403.07,664.25,422.88,628.21,404,609.48Z"/><path class="cls-35" d="M300.35,587.68C316.92,610,345.09,620,373.62,621.54s54.68-8.74,73.6-29c18-19.31,26.92-45.21,23.88-69.27-2.91-23.05-7.9-34.26-13.18-46.14-5.2-11.69-10.58-23.78-15.33-49.29-9.15-49.21-30.59-64.72-42.55-69.6-3.89-1.6-10.86-2.78-14.74-3-19.94-1.1-43.62,15.91-58.89,66.17-15.82,52.09-32.29,46-42,96.19A88,88,0,0,0,300.35,587.68Z"/><path class="cls-36" d="M321,567.3c15.7,20.78,38.91,33.08,65.35,34.64s50.49-8,67.68-26.78c16.35-17.91,24.2-42,21-64.38-3.06-21.46-7.86-31.91-12.95-43-5-10.9-10.18-22.17-15-45.93-9.26-45.81-29.36-60.32-40.52-64.9a33.72,33.72,0,0,0-10.9-2.58c-18.48-1.09-43,14.39-56.26,61.13-6.58,23.08-12.57,33.69-18.37,44-5.89,10.42-11.45,20.25-16.12,41.25C300.05,522.66,306.05,547.54,321,567.3Z"/><path class="cls-37" d="M347.6,509.93c3,26.89,27.86,47.11,54.32,44.18s46.33-28.13,43.34-55c-2.89-26.06-30.91-58.29-55.6-55.55S344.71,483.87,347.6,509.93Z"/><path class="cls-38" d="M391.7,400.39a1.2,1.2,0,0,1-1.24-1c-.74-5.1-3.72-6.88-6-6.86h0c-2.41.05-5.08,1.95-5.63,6.13a1.22,1.22,0,0,1-1.37,1,1.16,1.16,0,0,1-1.07-1.27c.73-5.51,4.67-8.07,8-8.13h.06c3.31,0,7.53,2.26,8.49,8.83a1.16,1.16,0,0,1-1.06,1.28Z"/><path class="cls-38" d="M400.39,400l-.15,0a1.15,1.15,0,0,1-.79-1.45c2.16-6.29,6.73-7.77,10-7.14h.06c3.3.67,6.69,3.9,6.37,9.45a1.15,1.15,0,0,1-1.28,1.05,1.21,1.21,0,0,1-1.16-1.23c.24-4.22-2.05-6.59-4.43-7s-5.53.77-7.22,5.65A1.2,1.2,0,0,1,400.39,400Z"/><path class="cls-39" d="M387.61,409.71s7.76,8.21,18.31,0"/><path class="cls-40" d="M413.2,462.37s29.66,9.64,26.68,42.95S411,545.47,411,545.47,453.17,503,413.2,462.37Z"/><path class="cls-26" d="M309.46,448.13a35.62,35.62,0,0,1-5.92-1.66l-.61-.24c-1.05-.4.79.36.12,0-.46-.2-.92-.4-1.37-.62-1-.49-2-1-3-1.58S296.9,443,296,442.43l-1.15-.79-.71-.51c-.12-.09-1.08-.84-.47-.36s-.28-.22-.33-.26l-.55-.45c-.41-.34-.81-.69-1.21-1-.85-.75-1.68-1.53-2.48-2.33a61.37,61.37,0,0,1-4.56-5.11c-.74-.94.46.62,0,0l-.54-.73c-.28-.39-.56-.78-.83-1.18-.69-1-1.34-2-2-3a56.94,56.94,0,0,1-3.11-6c-.16-.36-.09-.69.09.22a4.4,4.4,0,0,0-.26-.65c-.21-.54-.41-1.09-.61-1.64-.36-1-.69-2.08-1-3.14s-.57-2.32-.78-3.49c0-.23-.08-.45-.11-.67-.21-1.29,0,0,0,0s-.17-1.73-.18-1.83a33.68,33.68,0,0,1-.06-3.48c0-.55.05-1.09.1-1.64,0-.27.07-.55.08-.82s0-.21-.07.52c0-.22.06-.43.1-.65.41-2.57-.66-5.5-3.49-6.15-2.4-.54-5.71.73-6.15,3.49-3.23,20.19,9.61,40.61,26.31,51.1a42.75,42.75,0,0,0,14.65,5.95c2.56.49,5.52-.71,6.15-3.49.56-2.46-.75-5.63-3.49-6.15Z"/><path class="cls-26" d="M486.18,412.1c-1.11-1.68-2-3.5-3.19-5.14l-3.92,3c1.87,1.64,3.42,3.68,5.68,4.84a2.53,2.53,0,0,0,3.42-.9c2.07-4,2.41-8.6,4.58-12.52l-4.57-1.92c-1.11,5-3.44,9.61-4.9,14.51-.51,1.7,1.27,3.77,3.07,3.07,5.43-2.09,8.49-7.08,12.56-10.91l-4.26-1.77a3.4,3.4,0,0,1,0,.45c0-.3,0-.31,0,0s-.12.43-.19.63c.18-.5-.17.31-.23.41s-.25.39-.38.59-.18.25,0,.06l-.32.37-.5.54c-.41.43-.85.84-1.3,1.23a49.53,49.53,0,0,0-5.2,4.72,2.51,2.51,0,0,0,3,3.93c3.47-1.84,7.49-2.2,11.25-3.11L498.3,410A12.51,12.51,0,0,1,494,412.1c-1.78.54-3.6.93-5.39,1.46-3.07.92-1.76,5.74,1.33,4.82,4.18-1.24,8.5-1.93,11.93-4.83a2.51,2.51,0,0,0,.39-3,2.56,2.56,0,0,0-2.82-1.15c-4.24,1-8.53,1.54-12.44,3.61l3,3.92c3.38-4,9.46-6.53,9.66-12.51.07-2.24-2.75-3.2-4.27-1.77-1.83,1.73-3.42,3.69-5.15,5.52a30.37,30.37,0,0,1-2.72,2.6c-.19.15-.77.57-1.18.82-.23.14-.46.28-.7.4l-.47.24-.14.05,3.08,3.08c1.46-4.9,3.8-9.5,4.9-14.51.58-2.68-3.14-4.51-4.57-1.93-2.19,3.94-2.52,8.57-4.58,12.52l3.42-.9c-1.8-.92-3.09-2.68-4.67-4.06a2.51,2.51,0,0,0-3.28-.19,2.48,2.48,0,0,0-.65,3.22c1.18,1.64,2.08,3.46,3.2,5.15a2.56,2.56,0,0,0,3.42.89,2.53,2.53,0,0,0,.89-3.42Z"/><path class="cls-26" d="M275.33,403.4c2.54-2.71,5.29-5.24,7.73-8a2.5,2.5,0,0,0-3-3.93,40.06,40.06,0,0,0-7.52,6.35l4.27,1.77c-.11-4.49,1.46-8.87,1.11-13.37-.19-2.37-3.35-3.53-4.66-1.26-2.3,4-2.49,8.9-4.94,12.58l4.57.6c-1-4.67-1.59-9.65-5.28-13.08a2.52,2.52,0,0,0-4.18,2.43c.78,4.07,1.86,8.07,2.82,12.09l4.18-2.43a23.11,23.11,0,0,0-7.49-4.89,2.48,2.48,0,0,0-3,1.45,2.54,2.54,0,0,0,1,3.12,75.83,75.83,0,0,1,6.91,5.31,2.56,2.56,0,0,0,3.53,0,2.53,2.53,0,0,0,0-3.54,88,88,0,0,0-7.91-6.09L261.58,397a18,18,0,0,1,5.28,3.61,2.52,2.52,0,0,0,4.18-2.44c-1-4-2-8-2.82-12.09L264,388.55a9.46,9.46,0,0,1,2.68,4.73c.58,2,.89,4.1,1.32,6.15.48,2.24,3.46,2.27,4.57.6,2.55-3.84,2.72-8.75,4.93-12.59l-4.65-1.26c.35,4.5-1.22,8.88-1.11,13.37.05,2.08,2.75,3.41,4.27,1.77a34,34,0,0,1,6.51-5.57l-3-3.92c-2.45,2.8-5.2,5.32-7.73,8a2.5,2.5,0,0,0,3.53,3.53Z"/><path class="cls-3" d="M49.58,470.37a37.44,37.44,0,0,0,3.18,6.52l3.92-3a16.57,16.57,0,0,1-3.45-5c-.48-1.15-1.69-2.29-3.07-1.75-2.93,1.15-4.46,4-5.68,6.74-.69,1.55-1.31,3.14-1.94,4.72-.3.77-.46,1.15-.68,1.64A15.85,15.85,0,0,1,41,482l4.66,1.27c.37-5,3.49-9.24,5.17-13.79.74-2-1.93-4.05-3.67-2.83-4.54,3.18-8.66,7-13.68,9.45l3,3.93c4.46-4.24,9.87-7.25,13.56-12.29,1.17-1.59-.42-3.74-2.16-3.76-5.64-.07-10.52,3.08-15.69,4.87l1.92,4.57c4.92-3.15,10.86-3.91,16.18-6.14a2.62,2.62,0,0,0,1.83-2.41,2.54,2.54,0,0,0-1.83-2.41c-4.44-1.12-8.91-2.25-13.47-1.13-3.13.76-1.8,5.58,1.33,4.82,3.62-.89,7.3.25,10.81,1.13v-4.82c-5.72,2.4-12.08,3.25-17.37,6.65a2.51,2.51,0,0,0,1.93,4.57c4.64-1.61,9.31-4.76,14.36-4.7l-2.16-3.76c-3.37,4.61-8.68,7.39-12.77,11.27a2.5,2.5,0,0,0-.2,3.29,2.55,2.55,0,0,0,3.23.64c5-2.45,9.13-6.27,13.67-9.45L46,468.1c-.88,2.36-2.11,4.57-3.12,6.88a24.91,24.91,0,0,0-2.23,8.24c-.19,2.53,3.47,3.31,4.66,1.26A65.89,65.89,0,0,0,48.54,477a28.16,28.16,0,0,1,1.75-3.53c.17-.27.34-.53.52-.78-.3.42.22-.25.29-.33s.75-.58.22-.24c.14-.1.83-.42.16-.16l-3.07-1.74a23,23,0,0,0,4.74,7.17c1.93,2,5.54-.64,3.92-3a39,39,0,0,1-3.18-6.53,2.51,2.51,0,0,0-3.42-.89,2.56,2.56,0,0,0-.89,3.42Z"/><path class="cls-2" d="M901.35,493.2c10.53-.47,20-5.76,27.79-12.58,6.35-5.56,12.26-12.55,15.56-20.38a12.25,12.25,0,0,0,.09-10.06c-1.17-2.61-3.26-4.7-5-6.93-1.95-2.45-6.77-.48-6.41,2.65.39,3.37,2.06,5.54,4.74,7.49.43.31.87.6,1.3.89.22.15.43.31.65.45.68.47-.12-.17.06,0s.39.33.56.51.61.76.27.27.1.28.17.36c.12.25.08.15-.13-.31a4.77,4.77,0,0,1,.13.51,3.78,3.78,0,0,0,5.51,2.24c3.15-2,3.87-5.38,4.11-8.84,0-.68.08-1.36.13-2,0-.39.06-.77.09-1.16.06-.8-.15.71,0-.12a14.15,14.15,0,0,1,.47-1.81c-.35,1,.06,0,.2-.2-.49.83,0,.09.26-.13L946,439.52a17.76,17.76,0,0,0-1.5,7.55c0,.53,0,1.05,0,1.57,0,.29,0,.57-.05.86s0,.36,0,0a14,14,0,0,1-.38,1.55c.12-.42.24-.25,0-.06-.69.55.46-.44-.16.24a3.79,3.79,0,0,0-.77,4.1,3.71,3.71,0,0,0,3.43,2.3c2.82-.22,4.92-1.66,7-3.52.8-.72,1.57-1.47,2.38-2.19.14-.12.73-.5.08-.08.21-.13.4-.28.61-.41s.41-.23.62-.33c-.52.26-.35.14.11,0l-2-7.24c-5.13,1.93-8.86,6.07-13.81,8.26-2.6,1.15-2.3,5.24,0,6.48,2.46,1.33,5.46,1.42,8.2,1.55,1.35.06,2.7.09,4.06.14.58,0,1.16.05,1.74.1a2,2,0,0,1,.69.06l-.41-.06.34.07,1-7.37a68.66,68.66,0,0,0-7.17.3,26.7,26.7,0,0,0-8.2,1.74c-1.86.8-2.27,3.54-1.34,5.13,1.12,1.93,3.26,2.15,5.13,1.35-1.17.5.3,0,.65-.13s.92-.21,1.39-.29l.92-.15c-.9.16.17,0,.29,0,.61-.07,1.22-.13,1.84-.18,2.15-.18,4.32-.27,6.49-.24,4.14.07,5.2-6.49,1-7.36a44.1,44.1,0,0,0-7.45-.54c-1.3-.05-2.59-.13-3.89-.25-1-.09.8.16-.1,0-.25,0-.5-.08-.74-.14l-.66-.17c-1-.22.47.26,0,0v6.48a35.94,35.94,0,0,0,6.17-3.88c1-.71,2-1.43,3-2.09.56-.35,1.12-.69,1.7-1l.67-.34c1-.53-.59.2.46-.19a3.86,3.86,0,0,0,2.61-4.62,3.82,3.82,0,0,0-4.61-2.62c-2.34.56-4.2,2.2-5.91,3.8-.75.69-1.47,1.41-2.27,2,.4-.31.23-.16-.09,0l-.61.36c-.43.26-.09,0,.14-.06-.19,0-1.11.15,0,.06l2.65,6.4c2-2.19,2.6-4.82,2.75-7.7.06-1.11.06-2.22.12-3.33,0-.28,0-.57.07-.86-.07.74,0,0,0-.19s.15-.54.2-.81c.14-.74-.25.4.11-.33a3.75,3.75,0,0,0-5.89-4.54c-2.56,2.1-3,5.63-3.23,8.72,0,.68-.08,1.36-.13,2,0,.29,0,.57-.07.86s0,.37,0-.17l-.09.53c0,.25-.11.5-.17.75l-.15.48q.35-.78.09-.24c-.13.23-.56.83.08,0a3.22,3.22,0,0,1-.32.32c.47-.34.53-.39.19-.18l5.51,2.25c-.64-2.78-2.69-4.62-4.93-6.17l-1.2-.82-.64-.46c.8.59.11.06,0-.07s-.36-.36-.53-.54c-.49-.49.28.63,0-.05-.06-.12-.33-.78-.15-.24.26.76-.14-1.24,0,.12l-6.4,2.66c.68.86,1.39,1.69,2.08,2.54.11.14.56.73.13.16l.39.52c.33.48.61,1,.91,1.49.11.19.32.83.07.09.06.2.13.39.19.59,0,0,.24,1,.13.43s0,.45,0,.47c0,.23,0,.46,0,.69,0-.7,0,.08-.06.27a8.21,8.21,0,0,1-.27,1c-.1.32-.37,1.56-.08.31a16.09,16.09,0,0,1-2.05,4c-.9,1.52-1.89,3-2.94,4.43-.13.18-1,1.36-.51.69-.29.37-.58.74-.88,1.1-.68.83-1.37,1.65-2.09,2.44a63.75,63.75,0,0,1-4.62,4.68c-.77.7-1.55,1.38-2.35,2.05l-1.36,1.09c.12-.1.51-.38-.08,0l-.85.63a49.93,49.93,0,0,1-5.64,3.55,36.53,36.53,0,0,1-3.45,1.67c.63-.26-.07,0-.23.09l-1,.36c-.6.22-1.2.42-1.81.6a31.29,31.29,0,0,1-3.68.89l-.68.11c-1.11.19.76-.06-.36.05-.69.07-1.37.13-2.06.16a3.75,3.75,0,0,0,0,7.5Z"/><path class="cls-41" d="M513,473.64s13.94,10.92,27.34,10.34c10.21-.44,22.92-3.9,23.33-7.2s-8.68-11.13-20.89-12.63S513,473.64,513,473.64"/></svg>