<svg id="Layer_1" data-name="Layer 1" xmlns="http://www.w3.org/2000/svg" viewBox="0 0 1024 768"><defs><style>.cls-1,.cls-4,.cls-5{fill:#f3f4f4;}.cls-1,.cls-4,.cls-5,.cls-6{stroke:#afb8bd;}.cls-1,.cls-4,.cls-5,.cls-6,.cls-8{stroke-linecap:round;stroke-linejoin:round;}.cls-1{stroke-width:7.35px;}.cls-2{fill:#d0d1d3;}.cls-3{fill:#e6e6e7;}.cls-4{stroke-width:5.84px;}.cls-5,.cls-6{stroke-width:6.97px;}.cls-6,.cls-8{fill:none;}.cls-7{fill:#afb8bd;}.cls-8{stroke:#a7a9ac;stroke-width:6.66px;}.cls-9{fill:#8d9092;}</style></defs><circle class="cls-1" cx="511.19" cy="327.77" r="234.75" transform="translate(-82.05 457.47) rotate(-45)"/><circle class="cls-2" cx="511.19" cy="327.77" r="159.03" transform="translate(-82.05 457.47) rotate(-45)"/><circle class="cls-1" cx="511.19" cy="327.77" r="148.26" transform="translate(-82.05 457.47) rotate(-45)"/><path class="cls-3" d="M597.36,114.49c89.39,45.51,136,159.68,109.7,260.74-30.4,116.67-149.63,186.6-266.3,156.2A217.42,217.42,0,0,1,311,436.3a224.32,224.32,0,0,0,143.89,116c120.23,31.33,250-50.77,281.28-171C765.13,270.28,701.31,155.84,597.36,114.49Z"/><path class="cls-4" d="M197.81,154.91c-6.35-.58.84,69.43-.22,69.55s-17-71.89-20.61-71.28c-4.7.78,2.77,73.16,1.71,73.28s-14.17-71.22-19.77-70.39c-4.26.63,2.86,72.94,1.64,73.13s-13.91-71-20.38-67.83c-1.41.7-3.28,20.84-1.33,51.09,2.24,34.89-2.85,76.24,27,71.55h0a10.57,10.57,0,0,1,12,9.14l21.52,229.71c1,7.78,14.88,12.28,22.65,11.17s19.85-9.37,18.59-17.12l-44.39-226.4a10.56,10.56,0,0,1,8.91-12.15l.15,0c28.22-4.84,12.3-43.72,6.62-74.78C206.49,174.06,200.2,155.12,197.81,154.91Z"/><path class="cls-3" d="M148.86,229.87s-3.57,28.18,6.07,40.84c9,11.84,35.28,5.43,38.57,1.32C166.07,271,153.43,265,148.86,229.87Z"/><path class="cls-5" d="M857.15,224.68l-61.9,359.11s-1.26,22.25,27.94,17c13.94-2.51,22.53-113.21,22.47-145.31,0-.94,3.5-32.14,4.13-31.44,0,0,21.64-4.51,24.9-17.57C886.07,360.84,899.2,249.29,857.15,224.68Z"/><path class="cls-6" d="M287.15,390s-43.39,8.67-78.1-37.6"/><path class="cls-7" d="M488.66,562l-12.93-1.82-.67,97.74s-33.05,7.89-26.92,14.76,39.29-3.19,39.29-3.19Z"/><path class="cls-7" d="M535.9,561.76l12.87-2.18,3.38,97.69s33.25,7,27.31,14-39.37-2.11-39.37-2.11Z"/><ellipse class="cls-7" cx="183.74" cy="341.55" rx="12.29" ry="13.74"/><ellipse class="cls-7" cx="844.66" cy="447.85" rx="12.29" ry="13.74"/><path class="cls-6" d="M738.36,391.44c40.5,53.51,82.44,50.62,82.44,50.62"/><path class="cls-8" d="M491.06,351c27.48,20.25,47.73,0,47.73,0"/><circle class="cls-9" cx="477.61" cy="312.4" r="13.68" transform="translate(-72.56 160.67) rotate(-17.77)"/><circle class="cls-9" cx="548.74" cy="312.4" r="13.68" transform="translate(-69.16 182.37) rotate(-17.77)"/><circle class="cls-3" cx="436.1" cy="343.64" r="14.69"/><circle class="cls-3" cx="587.3" cy="343.64" r="14.69"/></svg>