<svg id="Layer_1" data-name="Layer 1" xmlns="http://www.w3.org/2000/svg" viewBox="0 0 310 310"><defs><style>.cls-1{fill:#616261;}.cls-2{fill:#757576;}</style></defs><path class="cls-1" d="M158.86,57.88a89,89,0,1,0,89,89A89,89,0,0,0,158.86,57.88Zm0,152.66a63.69,63.69,0,1,1,0-127.37h0a63.69,63.69,0,0,1,0,127.37Z"/><path class="cls-1" d="M158.86,91.05a55.81,55.81,0,1,0,55.8,55.8A55.43,55.43,0,0,0,158.86,91.05Z"/><path class="cls-2" d="M264.37,71.89V247.51a4.61,4.61,0,0,0,4.61,4.61h5.61a4.6,4.6,0,0,0,4.61-4.61V170h8.21a5.48,5.48,0,0,0,5.48-5.48V107.25C292.89,99.27,290,69,264.37,71.89Z"/><path class="cls-2" d="M53.73,81.86a5.26,5.26,0,0,0-5.26,5.25v30.94H43V89.31a5.26,5.26,0,0,0-10.51,0v28.74H27.61V87.11a5.25,5.25,0,0,0-10.5,0v40c0,11,6.14,19.83,14.29,21L29.54,243.6c0,3.52,3.21,8.52,8.52,8.52,6.67,0,9.49-6,9.49-9.48l-2.69-94.5c8.06-1.29,14.12-10,14.12-21v-40A5.25,5.25,0,0,0,53.73,81.86Z"/></svg>