<svg id="Layer_1" data-name="Layer 1" xmlns="http://www.w3.org/2000/svg" viewBox="0 0 310 310"><defs><style>.cls-1{fill:#757576;}</style></defs><path class="cls-1" d="M155,52A103,103,0,1,0,258,155,103,103,0,0,0,155,52Zm32.72,57.69a13.59,13.59,0,1,1-13.59,13.59A13.59,13.59,0,0,1,187.72,109.71Zm-67.81,0a13.59,13.59,0,1,1-13.58,13.59A13.58,13.58,0,0,1,119.91,109.71Zm98.53,53.54c-8.51,27.37-31.8,44.09-62.3,44.74h-1.28c-27.77,0-54-19.11-61.35-44.9a6.7,6.7,0,1,1,12.89-3.67c5.75,20.18,27.5,35.62,49.46,35.16,24.82-.53,43-13.4,49.79-35.32a6.7,6.7,0,0,1,12.79,4Z"/></svg>