<svg xmlns="http://www.w3.org/2000/svg" viewBox="0 0 1024 768"><defs><style>.cls-1{isolation:isolate;}.cls-2{fill:#009444;}.cls-3{fill:#39b54a;}.cls-4{fill:#8dc63f;}.cls-5{fill:#c40000;}.cls-6{fill:#340000;}.cls-7{fill:#f06293;}.cls-8{fill:#ffc4b2;opacity:0.67;}.cls-12,.cls-8{mix-blend-mode:overlay;}.cls-9{fill:#f41c09;}.cls-10{fill:#231f20;stroke:#231f20;stroke-miterlimit:10;stroke-width:1.35px;}.cls-11{fill:#4a0e10;}.cls-12{fill:#ffffb2;}</style></defs><g class="cls-1"><g id="Layer_1" data-name="Layer 1"><path class="cls-2" d="M679.09,243.53c-101.44,36.64-185.69-71.32-174.31-92.71s117.33-22.6,174.31,92.71"/><path class="cls-3" d="M639.78,577.72c-3.07-1.11,4.68,16.67,2.05,14.74-118.85-87.14-150.61-272.77-146-374C490.82,370.16,378,443.57,376,447.67c-4,7.84-5.46,26.39-13.3,22.41s-24.54-6.61-20.56-14.45c.58-1.13,140-119.23,143.66-311.11.17-8.8,1.9-25.65,10.62-24.49a15.92,15.92,0,0,1,13.67,13.55c.38,2.64-7,246.14,101.54,400,5.1,7.15,50.06,37,42.92,42.13a15.93,15.93,0,0,1-14.73,2"/><path class="cls-4" d="M680.59,49.14C644.7,159.8,497,160,486.25,136.12s58.37-114.89,194.34-87"/><path class="cls-5" d="M635.33,576.68a79.39,79.39,0,0,0,17.94,7.59,81.13,81.13,0,0,0,22.81,3.3,66.72,66.72,0,0,0,24.48-4.5A68.19,68.19,0,0,0,725,566.58c8.59-9.06,14.7-20,19.39-31.45.66-1.62,1.28-3.25,1.88-4.89,1.08-3-1.2-6.7-4.19-7.38a6.15,6.15,0,0,0-7.38,4.19q-.85,2.37-1.81,4.7c-.14.37-.3.73-.44,1.09l.22-.53c-.08.17-.15.35-.23.53-.33.76-.66,1.51-1,2.27-1.26,2.74-2.63,5.44-4.11,8.07s-2.91,4.9-4.54,7.23c-.36.53-.74,1.05-1.11,1.56l-.57.76-.28.38c-.48.64.27-.36.37-.48-.81,1-1.58,2-2.41,3a70.81,70.81,0,0,1-5,5.24q-1.26,1.18-2.58,2.31c-.42.35-.83.69-1.26,1l-.63.51c-.11.09,1.19-.91.68-.53l-.42.32a59.14,59.14,0,0,1-11,6.55,12.13,12.13,0,0,1-1.34.59c.38-.12,1.44-.59.54-.23l-.79.31c-.92.36-1.86.7-2.8,1q-2.79.91-5.64,1.56c-1,.22-2,.42-2.94.59l-1.35.22-.67.1c-.85.13,1.71-.21.58-.08-1.86.21-3.72.38-5.59.45a71.78,71.78,0,0,1-10.87-.44c-.36-.05-1.89-.25-.57-.07s-.4-.06-.77-.12c-.86-.13-1.72-.28-2.57-.45q-2.51-.48-5-1.12a79,79,0,0,1-9.13-3l-1-.4a5.32,5.32,0,0,0-.5-.21c-.14,0,1.66.71.94.4l-.33-.14q-1-.43-2-.9c-1.24-.58-2.47-1.19-3.67-1.85-.57-.31-1.13-.63-1.68-.95a6,6,0,0,0-6.06,10.36Z"/><path class="cls-5" d="M745.53,526.24c-.52-1.2-1.07-2.4-1.62-3.6l-.84-1.84c-.12-.28-.24-.56-.37-.83l-.18-.42c-.17-.41-.12-.28.16.39a6.2,6.2,0,0,1-.66-1.68c-.24-.63-.46-1.26-.66-1.9a26.64,26.64,0,0,1-.94-4l-11,4.62c.64,1,1,2.23,1.68,3.27-.72-1.2-.22-.52-.06-.12s.25.63.37.95c.22.56.44,1.13.67,1.7a32.06,32.06,0,0,0,4,7.77,6.27,6.27,0,0,0,4.38,2.86,5.76,5.76,0,0,0,5-1.65,38.21,38.21,0,0,0,7.06-11.81,42,42,0,0,0,3.14-12.69c.25-3-2.47-5.52-5.2-5.89a6.06,6.06,0,0,0-6.58,4.3c-1.57,4.41-1.85,9.15-2.28,13.78,0,.46-.09.92-.14,1.38l-.09.78c-.08.66-.06.52.07-.43a6.27,6.27,0,0,0-.25,1.52c-.1.49-.2,1-.33,1.48s-.25,1-.41,1.44c-.07.24-.15.48-.24.71-.23.6-.17.46.18-.4-.24.14-.52,1.06-.67,1.32-.26.44-.54.85-.83,1.27-1.74,2.43-.63,6.06,1.54,7.74a6,6,0,0,0,7.88-.47c1.2-1.28,2.44-2.51,3.74-3.68.66-.6,1.34-1.19,2-1.76.34-.29.69-.57,1.05-.85l.71-.56c-.56.43-.67.51-.32.25a75.34,75.34,0,0,1,9.17-5.8l-7.27-9.43c-.31.3-.62.58-1,.86a5,5,0,0,0-.5.41c1-1.07.68-.52.28-.24-.74.54-1.51,1-2.3,1.53-1.73,1.07-3.51,2.06-5.26,3.09-4,2.35-7.67,5-10.39,8.8a5.91,5.91,0,0,0,0,6.06,6.08,6.08,0,0,0,5.18,3c.86,0,1.72.05,2.58.13l1.08.11c.82.1.66,0-.06,0,1.7.11,3.41.53,5.09.77a40.72,40.72,0,0,0,12.07.24c2.47-.37,4.51-3.39,4.41-5.78a7.1,7.1,0,0,0-.82-3,5.93,5.93,0,0,0-3.59-2.76c-8.55-1.2-17.73-2.2-26.28-.49-3.08.62-5.14,4.45-4.19,7.38a6.15,6.15,0,0,0,7.38,4.19l1-.19c1.07-.18-1.29.13-.6.09l.6-.07c.92-.08,1.84-.14,2.76-.17,2-.07,4.08,0,6.12,0s4,.21,6,.38l2.79.27,1.34.16.56.07-.68-.09V527.09c1.7-.25.24-.05-.09,0l-1.06,0c-.8,0-1.59,0-2.39-.06s-1.46-.14-2.19-.21c-1.53-.17,1.35.2-.18,0l-1.11-.16a76.45,76.45,0,0,0-10.55-1.23l5.18,9c.47-.66-.26.37-.37.46a4.72,4.72,0,0,0,.41-.48q.43-.48.9-.93c.32-.3.66-.58,1-.87.59-.53-.25.19-.42.31.19-.13.36-.28.55-.41a56.57,56.57,0,0,1,5-3.12c3.57-2.07,7.22-4.11,10.22-7a6,6,0,0,0-7.27-9.43,71.24,71.24,0,0,0-18.8,14.28l9.42,7.27c2.91-4.07,3.72-9.08,4.23-13.94.23-2.13.41-4.27.63-6.4.09-.83-.19,1.2,0,.38,0-.27.08-.53.13-.8.09-.54.19-1.07.3-1.6a27.83,27.83,0,0,1,1-3.35l-11.79-1.6c0,.53-.41,1.9,0,0-.11.44-.15.91-.24,1.36-.16.83-.35,1.66-.57,2.48a51,51,0,0,1-1.79,5.27c-.17.42-.09.24.23-.54-.1.24-.21.48-.31.71q-.32.69-.66,1.38c-.38.78-.79,1.54-1.23,2.29s-.85,1.39-1.32,2l-.38.54c.61-.79.73-.94.34-.46-.26.3-.52.61-.79.9l9.42,1.22a21.32,21.32,0,0,1-2-3.17l-.44-.92c-.15-.34-.46-1.3,0,.13-.2-.58-.46-1.14-.68-1.7a49.74,49.74,0,0,0-3.57-7.91,6,6,0,0,0-7.49-2.45c-3,1.25-3.92,4.06-3.48,7.08.88,5.94,4,11.32,6.32,16.77a6,6,0,0,0,3.59,2.76,6.11,6.11,0,0,0,4.62-.61,6,6,0,0,0,2.76-3.58,7,7,0,0,0-.61-4.63Z"/><path class="cls-5" d="M523.34,582.67a66.92,66.92,0,0,1-.18,8.26c-.06.76-.14,1.52-.22,2.27,0,.36-.08.72-.13,1.07s-.14,1.08,0-.17,0-.27,0,0c-.23,1.58-.5,3.15-.83,4.71a78.77,78.77,0,0,1-2.71,9.87c-.3.84-.6,1.68-.93,2.52-.15.39-.3.77-.46,1.16l-.24.58a9,9,0,0,0,.41-1,5,5,0,0,0-.21.48q-1.08,2.49-2.34,4.89c-.88,1.66-1.83,3.29-2.84,4.87-.49.77-1,1.54-1.53,2.29l-.84,1.16-.4.54c-.66.89.46-.58.33-.42a65.27,65.27,0,0,1-8.09,8.53l-1.17,1-.56.45-.28.22c-.6.49.65-.5.65-.5a20.2,20.2,0,0,1-2.53,1.84,59.1,59.1,0,0,1-5.39,3.28c-1,.53-2,1-3,1.5l-1.43.64c-.44.2-1.54.61.34-.14L488,643a66.9,66.9,0,0,1-6.62,2.24,75.55,75.55,0,0,1-7.41,1.68l-1.81.29-.92.13c-.11,0,1.49-.18.83-.11l-.78.1c-1.33.16-2.66.28-4,.38a106.38,106.38,0,0,1-18.2-.33c-.84-.08-1.67-.17-2.51-.27l-1.17-.14-.59-.08c.13,0,1.47.2.41,0a6.7,6.7,0,0,0-4.63.6,6.11,6.11,0,0,0-2.75,3.59c-.65,2.83.86,6.92,4.19,7.38,12.86,1.8,25.86,2.12,38.61-.71a66.48,66.48,0,0,0,43.74-31.61,79.4,79.4,0,0,0,8.63-21.5,82,82,0,0,0,2.41-20c0-.65,0-1.3,0-2-.13-3.13-2.67-6.14-6-6-3.14.15-6.14,2.65-6,6Z"/><path class="cls-5" d="M448.43,648.68c-.21-.25-.41-.51-.62-.78-.5-.64-.29-.43.07.1-.39-.56-.83-1.1-1.25-1.64-1.12-1.46-2.23-2.92-3.4-4.34a38,38,0,0,0-6.88-6.52c-2-1.5-5.61-.87-7.27.94a6.16,6.16,0,0,0-.94,7.27,50.33,50.33,0,0,0,5.28,6.89c.38.44.75.87,1.12,1.32.06.08.84,1.09.25.3s.11.15.23.32a21,21,0,0,1,2,3.4l3.58-8.81c-.38.1-.77.19-1.15.27s-2,.18,0,0c-.8.06-1.59.17-2.39.2a39.87,39.87,0,0,1-5.57-.15,9.69,9.69,0,0,0-1.52-.17c1.41-.1.71.1.09,0-1-.16-2-.35-2.94-.58-.81-.18-1.62-.4-2.42-.64l-1.29-.43c-.41-.15-1.91-.78-.05,0l-4.63,11c8.79,1.29,16.45,7.9,25.66,6.67l-1.59-11.79a71.15,71.15,0,0,0-21.47,9.88,6.08,6.08,0,0,0-2.45,7.5,6,6,0,0,0,7.07,3.47c4-1.34,7.55-3.58,11.12-5.8a56.12,56.12,0,0,1,5-2.86l.69-.32c.59-.27.46-.21-.4.16.23,0,.83-.32,1-.38a14.85,14.85,0,0,1,2.77-.65l-6.77-8.81a78.92,78.92,0,0,0-4,10.08c-.26.75-.53,1.51-.82,2.26-.14.37-.29.74-.44,1.11s-.1.24.22-.52l-.24.53a22.61,22.61,0,0,1-2.42,4.15l11,4.62c.57-1.57,1.2-3.13,1.84-4.68.29-.71-.51,1.18-.2.47l.36-.83c.19-.44.39-.89.59-1.33.43-1,.88-1.93,1.34-2.88.87-1.81,1.79-3.6,2.8-5.35.44-.76.89-1.52,1.38-2.26.25-.38.5-.76.77-1.13l.33-.46c.38-.54-1,1.28-.35.48a6.49,6.49,0,0,0,1.75-4.24,6.13,6.13,0,0,0-1.75-4.25c-2.2-2-6.37-2.59-8.49,0a55.26,55.26,0,0,0-6.8,11.15,127.6,127.6,0,0,0-5.14,12.12c-1,2.81.92,6,3.47,7.08,2.94,1.24,5.68,0,7.49-2.45a37,37,0,0,0,4.65-9.64c.54-1.52,1.05-3,1.6-4.56.13-.37.27-.74.41-1.11.07-.19.15-.37.22-.56.2-.48.19-.48,0,0s-.2.48,0,0c.07-.18.15-.35.24-.53.18-.4.38-.81.59-1.2a6.11,6.11,0,0,0-.47-6.67c-1.61-2.08-3.82-2.48-6.31-2.15-4.05.55-7.84,2.72-11.28,4.83-1.66,1-3.29,2.08-5,3.06-.78.46-1.57.9-2.38,1.3l-.68.33c-.58.26-.44.21.43-.16a10,10,0,0,0-1.35.49l4.63,11a66,66,0,0,1,9.43-5.37l1.21-.55.61-.27c.41-.18.27-.12-.42.17a6.56,6.56,0,0,0,1.23-.49l1.23-.47q2.61-1,5.31-1.69a6,6,0,0,0,4.3-6.58c-.36-2.63-2.94-5.59-5.9-5.2a14.8,14.8,0,0,1-2.9.12,4.37,4.37,0,0,0-.72-.06c.23,0,1.36.22.53.07-.48-.09-.95-.18-1.43-.3a39.66,39.66,0,0,1-5.85-2c-3.94-1.63-7.84-3.42-12.1-4-3-.44-5.82.49-7.07,3.47-1.05,2.47-.3,6.32,2.45,7.5a46.3,46.3,0,0,0,13.81,3.4,35.7,35.7,0,0,0,12.66-.75,5.86,5.86,0,0,0,3.89-3.48,6.19,6.19,0,0,0-.3-5.34,31.87,31.87,0,0,0-5-7.18c-.78-.93-1.59-1.84-2.36-2.78-.14-.16-.85-1.06-.25-.3s-.17-.24-.23-.33c-.37-.53-.72-1.08-1.06-1.64l-8.2,8.21c1.06.79-.69-.61-.12-.08.25.23.51.43.76.65.51.46,1,.94,1.47,1.42.91.95,1.77,1.95,2.6,3,.39.48.75,1,1.17,1.48-1-1-.27-.35,0-.06l.63.82c1.05,1.38,2.1,2.75,3.18,4.1a6,6,0,0,0,4.24,1.76,6.12,6.12,0,0,0,4.24-1.76c2.4-2.61,2.1-5.86,0-8.49Z"/><path class="cls-5" d="M711.9,639.87a127.42,127.42,0,1,1-239.75-86.41h0A127.42,127.42,0,1,1,711.9,639.87"/><path class="cls-6" d="M651.65,588.71c-1.27,3.21-22,16-31.77,18.9-10.71,3.31-32.84,2.71-35.07,1.72-16-7.1-15-23.52-7.87-26.09,7.75-2.77,20.14-2.73,34-7,13.87-4.07,24.61-11.07,32.61-13C650.94,561.37,657.8,573.1,651.65,588.71Z"/><path class="cls-7" d="M651.65,588.71a53,53,0,0,1-6.6,8.69A52.86,52.86,0,0,1,591.93,612a51.15,51.15,0,0,1-7.12-2.64,1.48,1.48,0,0,1,.2-.42C606.35,586,646.52,585.66,651.65,588.71Z"/><ellipse cx="572.32" cy="550.61" rx="10.12" ry="12.85" transform="translate(-152.66 226.39) rotate(-19.8)"/><ellipse cx="617.98" cy="534.21" rx="10.12" ry="12.85" transform="translate(-144.41 240.88) rotate(-19.8)"/><circle class="cls-8" cx="547.94" cy="594.65" r="17.33"/><circle class="cls-8" cx="674.78" cy="550.46" r="17.33"/><path class="cls-9" d="M508,541.93A127.43,127.43,0,0,1,282.48,423.26h0A127.43,127.43,0,0,1,508,541.93"/><path class="cls-10" d="M412.9,443.66a2.57,2.57,0,0,0,3.15-1.21c4.81-9.94,12-11.66,16.76-10.12l.07,0c4.9,1.64,9.12,7.25,7.55,16.13a2.62,2.62,0,0,0,2.15,2.92,2.47,2.47,0,0,0,3-1.89c2.06-11.72-4.32-19.49-11.17-21.79l-.12,0c-6.75-2.21-16.83-.25-23,12.54a2.5,2.5,0,0,0,1.33,3.31Z"/><path class="cls-10" d="M387.23,435l.31.09a2.48,2.48,0,0,0,3-1.84c2.74-13.95-4.13-21.61-10.85-23.93l-.12,0c-6.84-2.3-16.6,0-22,10.65a2.48,2.48,0,0,0,1.26,3.33,2.59,2.59,0,0,0,3.47-1c4.1-8.07,10.88-10,15.78-8.29,4.7,1.62,9.43,7.36,7.31,18.2A2.58,2.58,0,0,0,387.23,435Z"/><path class="cls-11" d="M372.56,448.34c.49,8.85,6.13,16.18,13.76,20.36,7.12,3.9,16.56,5.94,24.4,3.08a31.24,31.24,0,0,0,11.78-8.15,3.54,3.54,0,0,0-5-5,25.31,25.31,0,0,1-8,6.07c-.11.06-.63.26,0,0l-.45.17-1.05.36c-.82.25-1.64.42-2.48.59-.13,0-.69.09,0,0l-.49,0c-.38,0-.77.07-1.15.08a22.62,22.62,0,0,1-2.73-.05l-.7-.06-.25,0-.44-.06-.55-.1q-1.54-.27-3.06-.69c-.85-.22-1.7-.47-2.53-.77a13.26,13.26,0,0,1-2.08-.84,33.51,33.51,0,0,1-4.55-2.68c-.06-.05-.53-.4-.12-.08l-.41-.33c-.32-.26-.63-.53-.93-.8a22.89,22.89,0,0,1-2-2L383,457c-.12-.15-.31-.39-.08-.09-.31-.42-.6-.84-.88-1.28a18.22,18.22,0,0,1-1.39-2.57c0,.06.18.43,0,0s-.2-.54-.29-.82c-.15-.44-.28-.89-.39-1.34s-.24-1-.32-1.56,0,0,0,.06c0-.36-.06-.72-.08-1.09a3.62,3.62,0,0,0-3.54-3.54,3.58,3.58,0,0,0-3.55,3.54Z"/><path class="cls-9" d="M338.12,451.82l-.92-.1c-1.43-.17,1.67.24.49.06-.71-.1-1.41-.21-2.12-.33-1.43-.26-2.86-.55-4.28-.89a79.46,79.46,0,0,1-8.94-2.73c-.76-.28-1.52-.57-2.27-.88-.51-.21-2.06-.91.11.06l-1.33-.58q-2.31-1-4.55-2.22a72.6,72.6,0,0,1-9.28-5.83c-.43-.32-1.82-1.46,0,0l-1.06-.84c-.7-.57-1.4-1.16-2.08-1.76-1.45-1.27-2.83-2.61-4.15-4s-2.58-2.95-3.84-4.47c1.44,1.75.25.32-.07-.12s-.57-.78-.84-1.17c-.56-.8-1.09-1.61-1.61-2.44a57.62,57.62,0,0,1-3-5.44c-.23-.46-.44-.92-.65-1.38s-.95-2.33-.11-.22c-.42-1.06-.84-2.11-1.22-3.18a61.06,61.06,0,0,1-1.82-6.24c-.26-1.09-.49-2.2-.69-3.31-.1-.56-.2-1.13-.29-1.7,0-.29-.08-.58-.13-.86-.15-1.05.22,1.72,0,.14a79.83,79.83,0,0,1-.09-17.55c.08-.82.17-1.63.27-2.44.15-1.3-.22,1.49,0,.18l.21-1.43q.4-2.58.92-5.13c.75-3.65,1.68-7.27,2.74-10.85a6.06,6.06,0,0,0-4.19-7.38,6.13,6.13,0,0,0-7.38,4.19c-3.53,11.9-5.68,24.53-4.78,37a70.11,70.11,0,0,0,8.23,28.92,65.05,65.05,0,0,0,16.18,19.22,83.56,83.56,0,0,0,21.17,12.37,75.54,75.54,0,0,0,18,4.94c1.12.16,2.25.31,3.38.43,3.13.34,6.14-3,6-6-.16-3.54-2.64-5.63-6-6Z"/><path class="cls-9" d="M284.42,368.31c5.17-3,10.66-5.57,14.95-9.85a6.08,6.08,0,0,0,.93-7.27c-1.32-2.06-4.27-3.77-6.77-2.76a49.42,49.42,0,0,0-7.69,4c-1,.63-2,1.25-3.06,1.81-.29.16-.58.31-.88.45s-1.13.26.15,0c-.65.15-1.29.48-1.94.66l7.6,5.79a23.53,23.53,0,0,1,0-4.82c0-.23.05-.47.08-.7.08-.65,0-.48-.08.52a12,12,0,0,0,.25-1.46c.17-.94.37-1.86.61-2.78a44.58,44.58,0,0,1,1.72-5.4c.55-1.41-.47,1,0-.08.2-.42.39-.85.6-1.27a25.43,25.43,0,0,1,1.27-2.28l-11-4.62c-.17.55-.35,1.1-.56,1.65-.06.17-.41,1,0,.17s0,0-.09.17c-.45,1-1,1.94-1.49,2.89-1.08,1.93-2.28,3.79-3.4,5.69-2.53,4.26-4.52,8.82-4.6,13.85h12a74.59,74.59,0,0,0-7-24.22c-1.3-2.68-4.94-3.53-7.49-2.46-2.92,1.23-4,4.09-3.48,7.08.71,4.06,2.6,7.85,4.22,11.6.11.24.21.49.32.74-.32-.75-.39-.92-.22-.5s.36.86.53,1.3c.33.85.65,1.71.92,2.58a25.12,25.12,0,0,1,.66,2.55c0,.24.09.48.13.72-.13-1-.16-1.18-.09-.53,0,.47,0,.94,0,1.41l9-5.18a69.08,69.08,0,0,0-8.22-4.75c-1.38-.73-2.75-1.49-4.06-2.34-.32-.2-.64-.42-1-.64l-.46-.33c-.41-.3-.41-.3,0,0s.42.32,0,0l-.42-.37c-.33-.29-.64-.59-1-.9l-7.27,9.43c3.35,1.82,6.59,3.83,9.74,6,.82.57,1.64,1.14,2.44,1.72.45.32.88.66,1.32,1,.63.46-1-.76-.36-.29l.54.44a32.16,32.16,0,0,1,3.95,3.61,6,6,0,0,0,8.48,0,6.14,6.14,0,0,0,0-8.49,55.93,55.93,0,0,0-10-8.12,116,116,0,0,0-10-6.18,6,6,0,0,0-7.27,9.42c5,5,11.83,7.12,17.48,11.19a5.91,5.91,0,0,0,6.05,0,6.06,6.06,0,0,0,3-5.18c.08-4.68-1.65-9-3.44-13.21-.37-.87-.75-1.74-1.12-2.6-.11-.25-.22-.5-.32-.75-.26-.6-.22-.49.13.33a7.53,7.53,0,0,1-.59-1.47,27.72,27.72,0,0,1-1.58-5.36l-11,4.62c.37.77.72,1.54,1.07,2.31.55,1.22-.39-1,.06.16l.48,1.22c.65,1.72,1.24,3.46,1.75,5.23s.93,3.4,1.29,5.13c.18.85.34,1.7.48,2.56.07.42.13.85.2,1.27s0,.28-.07-.54c0,.28.07.55.1.83a6.54,6.54,0,0,0,1.75,4.25A6,6,0,0,0,283,362.68c0-.46.1-1,.08-1.42,0,.22-.24,1.38-.07.56.06-.29.12-.57.19-.86.11-.45.24-.9.38-1.34.09-.28.65-1.68.26-.77s0,.08.05-.1l.39-.81c.21-.44.44-.87.67-1.29.5-.92,1-1.83,1.58-2.73,2.43-4,4.86-8,6.23-12.47a6,6,0,0,0-11-4.63,42.63,42.63,0,0,0-4.82,11.9,35.55,35.55,0,0,0-1.28,12.43,6.24,6.24,0,0,0,2.36,4.71,5.83,5.83,0,0,0,5.23,1.07,32.31,32.31,0,0,0,7.93-3.68c1-.62,2-1.27,3-1.88.57-.33,1.14-.66,1.72-1,.43-.23,2.33-1,.75-.4l-5.84-10c-.47.47-.95.93-1.46,1.36-.15.12-1.08.86-.34.29s-.31.21-.38.26c-1.07.76-2.19,1.46-3.33,2.13-2.31,1.36-4.69,2.59-7,3.94a6,6,0,0,0,6.06,10.36Z"/><path class="cls-9" d="M447.87,472.5a79.54,79.54,0,0,0,17.93,7.6,82,82,0,0,0,22.82,3.3,66.93,66.93,0,0,0,24.48-4.5,68.34,68.34,0,0,0,24.39-16.5c8.59-9.06,14.7-20,19.39-31.45.66-1.62,1.28-3.25,1.88-4.89,1.08-2.95-1.21-6.7-4.19-7.38a6.16,6.16,0,0,0-7.38,4.19q-.87,2.37-1.81,4.71l-.45,1.09c-.25.62.24-.56.23-.54-.08.17-.15.35-.23.53-.33.76-.66,1.52-1,2.27q-1.87,4.13-4.1,8.08c-1.4,2.47-2.91,4.89-4.54,7.23l-1.11,1.56-.57.75-.28.38c-.48.64.27-.36.37-.47-.81,1-1.58,2-2.41,2.94a70.81,70.81,0,0,1-5,5.24q-1.26,1.19-2.58,2.31l-1.26,1c-.21.17-.43.33-.63.5s1.18-.9.68-.53l-.42.32a58.89,58.89,0,0,1-11,6.55,11.22,11.22,0,0,1-1.33.59c.38-.12,1.44-.59.54-.23l-.79.31c-.92.36-1.86.7-2.8,1a56.15,56.15,0,0,1-5.64,1.56c-1,.22-1.95.42-2.94.59l-1.35.22-.68.1c-.84.13,1.72-.21.59-.08-1.86.22-3.72.38-5.59.45a70.46,70.46,0,0,1-10.87-.44c-.36,0-1.89-.24-.58-.07s-.39-.06-.76-.12c-.86-.13-1.72-.28-2.57-.44-1.67-.32-3.33-.7-5-1.12a79.07,79.07,0,0,1-9.13-3l-1-.4a5.32,5.32,0,0,0-.5-.21,9.45,9.45,0,0,0,.94.4l-.33-.14-2-.89c-1.24-.58-2.47-1.2-3.68-1.86-.56-.31-1.12-.62-1.68-.95a6,6,0,1,0-6.05,10.36Z"/><path class="cls-9" d="M558.07,422.07c-.52-1.21-1.07-2.41-1.62-3.61l-.84-1.84c-.12-.28-.25-.55-.37-.83l-.18-.42c-.17-.4-.12-.27.16.39a5.89,5.89,0,0,1-.66-1.68c-.24-.62-.46-1.26-.66-1.9a25,25,0,0,1-.94-4l-11,4.62c.64,1.05,1,2.23,1.68,3.28-.72-1.21-.22-.52-.06-.12s.25.62.37.94l.66,1.7a32.09,32.09,0,0,0,4,7.77,6.23,6.23,0,0,0,4.38,2.86,5.76,5.76,0,0,0,5-1.65,38.21,38.21,0,0,0,7.06-11.81,42.36,42.36,0,0,0,3.14-12.68c.25-3-2.47-5.53-5.2-5.9a6.06,6.06,0,0,0-6.58,4.3c-1.57,4.41-1.85,9.16-2.28,13.78-.05.46-.09.92-.14,1.38l-.09.78c-.08.67-.06.52.06-.43a6.8,6.8,0,0,0-.25,1.52c-.09.5-.2,1-.32,1.48s-.25,1-.41,1.45c-.07.23-.16.47-.24.7-.24.6-.17.46.18-.4-.24.14-.52,1.06-.68,1.32-.25.44-.53.86-.82,1.27-1.74,2.43-.63,6.06,1.54,7.74a6,6,0,0,0,7.88-.47q1.79-1.92,3.74-3.68c.66-.6,1.34-1.18,2-1.76l1-.85.71-.56c-.56.43-.66.52-.31.25a75.34,75.34,0,0,1,9.17-5.8L570,409.76c-.31.3-.62.59-.95.86-.16.14-.36.26-.5.41,1-1.07.68-.52.28-.23-.75.53-1.52,1-2.3,1.52-1.73,1.08-3.51,2.06-5.27,3.09-4,2.35-7.66,5-10.38,8.8a5.91,5.91,0,0,0,0,6.06,6.07,6.07,0,0,0,5.18,3c.86,0,1.72.06,2.57.13l1.09.12c.81.09.66,0-.06,0,1.7.11,3.41.53,5.09.77a40.38,40.38,0,0,0,12.07.24c2.47-.37,4.51-3.39,4.41-5.78a7.1,7.1,0,0,0-.82-3,6,6,0,0,0-3.59-2.76c-8.55-1.2-17.73-2.2-26.28-.49-3.09.62-5.14,4.45-4.19,7.38a6.14,6.14,0,0,0,7.38,4.19l1-.18c1.07-.19-1.29.12-.6.08l.6-.06c.91-.09,1.83-.14,2.75-.18,2.05-.07,4.09,0,6.13,0s4,.21,6,.38c.93.08,1.86.17,2.79.28l1.34.15.56.07-.68-.09V422.91c1.7-.25.24,0-.09,0s-.71,0-1.07,0c-.79,0-1.59,0-2.38-.06s-1.46-.13-2.2-.21c-1.52-.17,1.35.21-.17,0l-1.11-.17a78,78,0,0,0-10.55-1.23l5.18,9c.47-.66-.26.37-.37.46a3.83,3.83,0,0,0,.41-.48c.29-.32.59-.63.9-.92s.66-.59,1-.88c.59-.53-.25.19-.42.31.19-.13.36-.28.55-.41a56.57,56.57,0,0,1,5-3.12c3.57-2.07,7.21-4.11,10.22-7a6,6,0,0,0-7.27-9.42,70.83,70.83,0,0,0-18.8,14.27l9.42,7.27c2.91-4.07,3.72-9.07,4.23-13.94.22-2.13.41-4.27.63-6.4.09-.83-.19,1.2-.05.38.05-.26.08-.53.13-.8.09-.54.19-1.07.3-1.6a27.83,27.83,0,0,1,1-3.35l-11.79-1.59c0,.52-.42,1.9,0,0-.1.44-.14.91-.23,1.36-.16.83-.36,1.66-.58,2.48a52,52,0,0,1-1.78,5.28c-.17.42-.1.24.23-.54l-.31.7q-.32.7-.66,1.38c-.38.78-.79,1.54-1.23,2.29s-.85,1.39-1.32,2q-.18.27-.39.54c.62-.78.74-.94.35-.46-.26.31-.52.61-.8.91l9.43,1.21a20.82,20.82,0,0,1-2-3.17c-.15-.31-.3-.61-.44-.92s-.47-1.3,0,.13c-.2-.57-.46-1.13-.68-1.7a50.13,50.13,0,0,0-3.57-7.9,6,6,0,0,0-7.5-2.46c-3,1.25-3.92,4.07-3.47,7.08.88,5.94,4,11.32,6.32,16.77a5.94,5.94,0,0,0,3.59,2.76,6,6,0,0,0,7.38-4.19,7,7,0,0,0-.61-4.62Z"/><circle class="cls-12" cx="455.1" cy="477.99" r="17.11" transform="translate(-105.79 130.14) rotate(-14.6)"/><circle class="cls-12" cx="333.91" cy="441.5" r="17.11" transform="translate(-100.5 98.42) rotate(-14.6)"/></g></g></svg>