<svg id="Layer_1" data-name="Layer 1" xmlns="http://www.w3.org/2000/svg" viewBox="0 0 310 310"><defs><style>.cls-1{fill:#616261;}.cls-2{fill:#bdbdbd;}</style></defs><path class="cls-1" d="M272.75,252.09H37.25a10.93,10.93,0,0,0,0,21.86h9.14v8.73c0,3.54,3.55,6.42,7.94,6.42h203.1c4.38,0,7.94-2.88,7.94-6.42V274h7.38a10.93,10.93,0,1,0,0-21.86Z"/><path class="cls-2" d="M157.42,120.3s-17.95-16.64-1.16-41c8.06-11.73,23.52-19.93,13-43.68,0,0,24.61,19.74,7.57,39.41C168.32,84.79,144.59,99.88,157.42,120.3Z"/><path class="cls-2" d="M143.86,89.6s-13.64-13.26-.42-33.21C149.79,46.81,161.81,40,154,20.9c0,0,18.74,15.69,5.38,31.8C152.68,60.74,134.21,73.22,143.86,89.6Z"/><path class="cls-1" d="M159.82,140.85v-4.6h.9c4.6,0,4.32.38,4.32-2.26v-3.88c0-3.39.28-6.14-4.32-6.14h-11.4c-4.59,0-4.32,2.75-4.32,6.14v4c0,2.29,1.83,2.19,5.22,2.13v4.58A113.16,113.16,0,0,0,42.34,243.75H267.7A113.15,113.15,0,0,0,159.82,140.85Zm15.85,12.85s61.65,1.21,81,81C256.66,234.7,232.48,176.67,175.67,153.7Z"/><path class="cls-1" d="M146.28,123.15H163.7a5.63,5.63,0,0,1,5.63,5.63V134a2.41,2.41,0,0,1-2.41,2.41H143.06a2.41,2.41,0,0,1-2.41-2.41v-5.24A5.63,5.63,0,0,1,146.28,123.15Z"/></svg>