<svg xmlns="http://www.w3.org/2000/svg" viewBox="0 0 1024 768"><defs><style>.cls-1{isolation:isolate;}.cls-2{fill:#d9f0e5;}.cls-2,.cls-6{stroke:#afb8bd;}.cls-2,.cls-4,.cls-6,.cls-7,.cls-8{stroke-linecap:round;stroke-linejoin:round;}.cls-2,.cls-4,.cls-6{stroke-width:10.03px;}.cls-3,.cls-9{fill:#e6e6e7;mix-blend-mode:multiply;}.cls-4,.cls-7,.cls-8{fill:none;}.cls-4{stroke:#86b8bd;}.cls-5{fill:#86b8bd;}.cls-6{fill:#daf0e5;}.cls-7,.cls-8{stroke:#6d6e71;}.cls-7{stroke-width:10.69px;}.cls-8{stroke-width:9.9px;}.cls-9{opacity:0.56;}.cls-10,.cls-11{fill:#d5e9f3;}.cls-11{opacity:0.5;}.cls-12{fill:#fdced0;}</style></defs><g class="cls-1"><g id="Layer_1" data-name="Layer 1"><path class="cls-2" d="M695.71,366.25a97.94,97.94,0,1,0,97.94,97.94A97.94,97.94,0,0,0,695.71,366.25Zm-7.45,153.63c-30.64,0-56-24.93-56.57-55.69a54.28,54.28,0,0,1,54.38-55.69c30.63,0,56,24.93,56.57,55.69A54.28,54.28,0,0,1,688.26,519.88Z"/><path class="cls-3" d="M670.56,541.23,672.88,561s127.74,27.87,117.28-124.25C790.16,436.72,783.2,548.19,670.56,541.23Z"/><path class="cls-4" d="M695.71,366.25a97.94,97.94,0,1,0,97.94,97.94A97.94,97.94,0,0,0,695.71,366.25Zm-7.45,153.63c-30.64,0-56-24.93-56.57-55.69a54.28,54.28,0,0,1,54.38-55.69c30.63,0,56,24.93,56.57,55.69A54.28,54.28,0,0,1,688.26,519.88Z"/><path class="cls-5" d="M383.14,629.85l-5.76-16L264.14,672.44s-29.2-33.35-33.4-22.1,27.56,43.43,27.56,43.43Z"/><path class="cls-5" d="M563.08,641.26l4.83-16.34L684.42,677s27.27-34.95,32.11-24S691.46,698,691.46,698Z"/><path class="cls-6" d="M690.45,341.08H265a9.14,9.14,0,0,0-9.14,9.13V487.48c0,170.95,99,191.28,223,191.28,111.11,0,220.5-17.43,220.5-186.46,0-2,.19-142.09.19-142.09A9.14,9.14,0,0,0,690.45,341.08Z"/><path class="cls-7" d="M448.7,443.08a20.35,20.35,0,0,1-40.69,0"/><path class="cls-7" d="M558.52,443.08a20.34,20.34,0,0,1-40.68,0"/><path class="cls-8" d="M451.48,511.81c5.78,33.62,63.31,32.84,66.57-2.32"/><path class="cls-9" d="M296.65,346.14s-85.93,357.66,291,320.64c0,0-244.5,67.21-325.79-88.4L251,334.53S268.78,341.5,296.65,346.14Z"/><path class="cls-10" d="M494,306.41c-10.27,5.12-45.93-22.8-20.86-68,17.11-30.85,41.38-64.47-4.81-102,0,0,51,17.88,47.15,76C513,250.65,469.33,298.06,494,306.41Z"/><path class="cls-11" d="M466.62,240c-10.28,5.12-45.93-22.81-20.86-68,17.1-30.85,41.37-64.47-4.81-102,0,0,51,17.88,47.15,76C485.58,184.25,441.91,231.66,466.62,240Z"/><ellipse class="cls-12" cx="395.74" cy="502.28" rx="20.9" ry="19.89"/><ellipse class="cls-12" cx="576.11" cy="502.28" rx="20.9" ry="19.89"/><path class="cls-4" d="M690.45,341.08H265a9.14,9.14,0,0,0-9.14,9.13V487.48c0,170.95,99,191.28,223,191.28,111.11,0,220.5-17.43,220.5-186.46,0-2,.19-142.09.19-142.09A9.14,9.14,0,0,0,690.45,341.08Z"/></g></g></svg>