<svg xmlns="http://www.w3.org/2000/svg" viewBox="0 0 1024 768"><defs><style>.cls-1{isolation:isolate;}.cls-2,.cls-6{fill:#afb8bd;}.cls-3{fill:#e7f0f4;}.cls-3,.cls-5{stroke:#afb8bd;}.cls-3,.cls-4,.cls-5,.cls-8{stroke-linecap:round;stroke-linejoin:round;}.cls-3,.cls-4,.cls-5{stroke-width:9.09px;}.cls-4{fill:#cedee5;stroke:#a6b5bd;}.cls-5{fill:#bfd3dd;}.cls-6{mix-blend-mode:multiply;opacity:0.21;}.cls-7{fill:#6d6e71;}.cls-8{fill:none;stroke:#6d6e71;stroke-width:6.26px;}.cls-9{fill:#ffc4b2;}.cls-10{fill:#1bace1;}.cls-11{fill:#1b99e1;}</style></defs><g class="cls-1"><g id="Layer_1" data-name="Layer 1"><path class="cls-2" d="M529.29,596.11s3.74,95.87,0,102-40.46,22.44-51.68,9.52c-6.87-29.92,44.13-17.68,44.13-17.68l-2-99.27Z"/><path class="cls-2" d="M646.78,556s47.38,85,52.41,89.08,43.86-5.1,50-17.34c-16.31-25.5-47.18,5.12-47.18,5.12l-50.15-86.59Z"/><polygon class="cls-3" points="347.47 156.55 333.25 109.53 561.65 55.54 572.21 98.82 347.47 156.55"/><polygon class="cls-3" points="731.09 533.48 487.42 623.06 411.59 268 659.24 197.03 731.09 533.48"/><path class="cls-4" d="M411.59,268,298,250.54,369,583l118.4,40.06S408.93,268.57,411.59,268Z"/><polygon class="cls-5" points="298.01 250.54 345.09 158.45 411.59 268 298.01 250.54"/><polygon class="cls-3" points="345.09 158.45 573.16 100.01 659.24 197.03 411.59 268 345.09 158.45"/><polygon class="cls-6" points="320.59 297.36 399.75 309.09 437.87 473.29 355.82 461.15 320.59 297.36"/><circle class="cls-7" cx="529.52" cy="364.17" r="14.4" transform="translate(-112.98 349.83) rotate(-33.24)"/><circle class="cls-7" cx="601.67" cy="344.2" r="14.4" transform="translate(-90.23 386.12) rotate(-33.24)"/><path class="cls-8" d="M597.16,381.07a22,22,0,0,1-39.54,10.07"/><path class="cls-2" d="M380.58,438.18a70.46,70.46,0,0,1-7.59,4.58q-2.16,1.14-4.38,2.14l-1.15.51a3.65,3.65,0,0,0-.54.23c.3-.22,1.67-.69.68-.29-.83.34-1.66.68-2.5,1a82.73,82.73,0,0,1-10.41,3.18c-1.88.45-3.77.82-5.68,1.13l-1.32.2c-1.12.16,1.63-.21.68-.09l-.78.1c-1,.11-1.94.21-2.91.28a69.62,69.62,0,0,1-12.08-.07l-1.53-.16-.7-.09a6.5,6.5,0,0,0,1.08.15c0-.06-.4-.06-.47-.07-1-.16-2.05-.32-3.07-.52a64.36,64.36,0,0,1-6.26-1.57c-1-.31-2-.66-3.06-1-.52-.18-1-.38-1.54-.58l-.7-.28-.36-.14c-.66-.27,1.45.62.79.33-2.1-.95-4.18-1.94-6.19-3.08a65.87,65.87,0,0,1-6-3.83c-.46-.33-.91-.67-1.36-1-.77-.57,1.25,1,.25.2l-.79-.63c-1-.8-1.95-1.63-2.9-2.48A76.75,76.75,0,0,1,294,430.5c-.94-1-1.86-2.11-2.75-3.2L290,425.74c-.48-.61.83,1.08.36.46-.11-.13-.21-.27-.31-.4l-.72-1a114.41,114.41,0,0,1-10.15-16.77q-1.2-2.4-2.31-4.86c-1.36-3-5.92-3.95-8.57-2.24-3.08,2-3.7,5.36-2.24,8.56,5.47,12,12.61,23.52,22,32.9A74.65,74.65,0,0,0,315,459.77a70.21,70.21,0,0,0,26.48,4.08,85.11,85.11,0,0,0,24.33-4.5,87,87,0,0,0,19.29-9.16c.6-.39,1.19-.79,1.78-1.2,2.68-1.87,4.18-5.57,2.24-8.57-1.72-2.66-5.69-4.24-8.56-2.24Z"/><path class="cls-2" d="M277.68,408.7c2.1-6.11,4.6-11.94,5.05-18.47a6.31,6.31,0,0,0-4.6-6c-2.6-.59-5.79.35-7.07,2.88a53.6,53.6,0,0,0-3.26,8.64c-.37,1.22-.77,2.42-1.2,3.61s.43-.86.07-.12c-.16.32-.3.65-.46,1a19.79,19.79,0,0,1-1.1,1.89l9.83-1.26a22.46,22.46,0,0,1-1.73-1.79c-.33-.38-1.12-1.67-.09-.06-.25-.4-.57-.76-.84-1.15a45.61,45.61,0,0,1-3.09-5.22,26.9,26.9,0,0,0-1.32-2.82c.38.9.44,1,.19.43l-.28-.72q-.27-.71-.51-1.41a32.07,32.07,0,0,1-1.38-5.37l-11.45,4.82c.47,1.05-.35-.95-.09-.21l.28.73c.2.56.38,1.12.54,1.69.33,1.13.6,2.27.84,3.43.46,2.27.8,4.57,1.22,6.86,1,5.24,2.69,10.05,6.15,14.16l8.86-8.85a75.19,75.19,0,0,0-21.1-13.73,6.71,6.71,0,0,0-4.83-.63,6.44,6.44,0,0,0-3.25,2.24c-1.75,2.26-1.93,6.24.49,8.22,3.53,2.89,7.47,4.8,11.55,6.76a60,60,0,0,1,5.38,2.84c.43.27.87.55,1.29.84l.55.39c.62.43-1.14-1-.36-.27a18.62,18.62,0,0,1,2,2l4.43-10.69a84.43,84.43,0,0,0-11.38,2.11c-1.64.38-3.42.52-5,1,1.48-.44.45-.06-.07,0s-.85.08-1.28.09a21.7,21.7,0,0,1-2.55,0l1.66,12.3c1.79-.4,3.59-.74,5.39-1,1.05-.18,2.11-.35,3.16-.51l.91-.13-.37.05,1.67-.2a52.39,52.39,0,0,1,12.13-.38,6.27,6.27,0,0,0,4.43-1.83,6.4,6.4,0,0,0,1.83-4.43,6.32,6.32,0,0,0-1.83-4.43,7.36,7.36,0,0,0-4.43-1.83,52.85,52.85,0,0,0-12.5.42c-4.6.55-9.19,1.24-13.71,2.23a6.23,6.23,0,0,0-4.49,6.87,6.32,6.32,0,0,0,6.15,5.43,39.31,39.31,0,0,0,11.36-1.28c1.67-.37,3.34-.79,5-1.16.87-.19,1.73-.37,2.6-.52l1.07-.17c.48-.07.29-.05-.6.08l.85-.09a6.29,6.29,0,0,0,4.43-10.68c-2.83-3.37-6.89-5.58-10.78-7.47-1.84-.9-3.71-1.75-5.53-2.69-.93-.48-1.85-1-2.74-1.52l-1.12-.73c-.23-.15-.44-.33-.67-.47-.59-.38,1.29,1,.38.29l-7.58,9.83a71.35,71.35,0,0,1,10.26,5.43c1.63,1,3.19,2.16,4.75,3.3l-.39-.3.68.54,1,.83c.77.64,1.52,1.3,2.25,2,2.42,2.22,6.5,2.57,8.86,0a6.44,6.44,0,0,0,0-8.85c-.55-.65.18.2.29.41A8.87,8.87,0,0,0,272,405q-.39-.6-.72-1.23l-.4-.8c-.39-.76.14.28.2.5-.14-.51-.38-1-.55-1.53a46.38,46.38,0,0,1-1.45-6.38c-.86-5-1.76-9.7-3.84-14.36a6.23,6.23,0,0,0-3.75-2.87,6.46,6.46,0,0,0-4.07.31c-3.06,1.3-4.14,4.25-3.63,7.39a45.1,45.1,0,0,0,4.57,12.88,37.55,37.55,0,0,0,7.71,10.75,6.35,6.35,0,0,0,9.83-1.27,34.26,34.26,0,0,0,3.71-8.53c.37-1.21.72-2.42,1.12-3.63.22-.67.46-1.33.7-2s.07.1-.14.32a6.22,6.22,0,0,0,.56-1.16l-11.67-3.16c0,.36-.06.72-.09,1.08-.06.84.29-1.57,0-.14-.13.66-.25,1.32-.41,2-.33,1.41-.75,2.79-1.21,4.16-.91,2.71-2,5.37-2.89,8.07a6.3,6.3,0,0,0,4.37,7.7,6.4,6.4,0,0,0,7.7-4.37Z"/><path class="cls-2" d="M701.76,376.37A56.79,56.79,0,0,0,721.85,370a68,68,0,0,0,16.81-13c11.13-11.67,18.59-26.69,22.11-42.36a109.63,109.63,0,0,0,2.39-31.44c-.21-3.26-2.72-6.42-6.26-6.26-3.2.15-6.49,2.76-6.26,6.26a109.42,109.42,0,0,1,.1,13.43q-.19,3.27-.58,6.52c-.06.54-.47,2.09,0,.27-.1.43-.13.9-.19,1.34-.17,1.07-.35,2.14-.55,3.21a96,96,0,0,1-3,11.7q-.92,2.82-2,5.57c-.15.38-.31.76-.47,1.14-.3.74.54-1.25.22-.52l-.27.64c-.4.91-.81,1.8-1.24,2.69a83,83,0,0,1-5.38,9.56c-1,1.46-2,2.87-3,4.27-.85,1.15.89-1.12,0,0l-.8,1c-.57.69-1.15,1.38-1.74,2.05a68.2,68.2,0,0,1-7.12,7c-.57.48-1.15.95-1.74,1.42s.56-.43.57-.44a5.32,5.32,0,0,1-.47.36c-.36.27-.71.53-1.07.78q-1.95,1.39-4,2.64t-4.49,2.42c-.37.18-.75.36-1.14.53l-.5.23c-1,.43.48-.13.6-.25a7.36,7.36,0,0,1-2.32.89,46.75,46.75,0,0,1-4.81,1.45c-.78.19-1.57.36-2.36.5-.39.08-.79.14-1.18.21l-.53.08c-1,.16,1.7-.22.61-.09a6.9,6.9,0,0,0-4.43,1.84,6.37,6.37,0,0,0-1.83,4.42c.13,3,2.78,6.7,6.26,6.27Z"/><path class="cls-2" d="M756.69,275.08c-5-2.85-10.23-5.3-15.36-7.93L736.5,278.6l1.14.4c1.18.41-1.26-.57.21.09.77.35,1.52.73,2.27,1.12,1.58.82,3.13,1.71,4.69,2.57,3.25,1.78,6.7,3.59,10.37,4.28,4,.76,7.84-1.72,7.93-6,.2-9.62-2.91-18.86-4.91-28.16l-12.08,3.33c.3,1.14.56,2.29.77,3.44.1.56.19,1.11.28,1.67l.12.84c.13.86-.15-1.26,0-.39.28,2.44.53,4.87.78,7.31.54,5,1.1,10.18,2.9,14.94a6.49,6.49,0,0,0,4.37,4.37,6.23,6.23,0,0,0,6.09-1.61c6.66-7,9.31-16.22,13.81-24.5l-11.44-4.82c-.33,1.06-.84,2.08-1.13,3.14.09-.32.48-1.09.14-.34l-.44.95c-.24.51-.49,1-.75,1.51-1.06,2.07-2.24,4.09-3.43,6.09a100,100,0,0,0-7,13.38c-.93,2.28.47,5.22,2.24,6.58a6.2,6.2,0,0,0,7,.49q2-1.35,4.17-2.5c.69-.37,1.39-.72,2.09-1.06l1.17-.54.59-.26-.5.21c1.53-.59,3.06-1.15,4.65-1.59.8-.21,1.6-.4,2.41-.56l1-.17c.49-.08.26,0-.68.09l.77-.08-4.42-10.69c-.79.69.28-.21.28-.21s-.8.45-.85.48c-.53.27-1.07.5-1.61.74a6.25,6.25,0,0,0-2.88,3.74,6.39,6.39,0,0,0,.63,4.82c2,3.11,5.36,3.68,8.57,2.25a17.74,17.74,0,0,0,4.71-3,6.24,6.24,0,0,0,1.29-6.84c-.89-2.11-3.27-4.07-5.72-3.84a48,48,0,0,0-22,8.17l9.2,7.07c.31-.77,0,.08-.15.35a5.3,5.3,0,0,0,.34-.77c.24-.5.48-1,.73-1.5.53-1.07,1.1-2.12,1.68-3.16,1.15-2,2.37-4,3.56-6a64.4,64.4,0,0,0,6.43-13.61,6.27,6.27,0,0,0-11.44-4.83c-2.11,3.87-3.76,8-5.64,11.94a62.6,62.6,0,0,1-3,5.73c-.56.93-1.16,1.83-1.78,2.71-.49.7.1-.21.3-.36a4.12,4.12,0,0,0-.59.72c-.36.42-.74.83-1.12,1.23L763,280.67a36.59,36.59,0,0,1-1.75-6.51c-.12-.62-.22-1.24-.31-1.87,0-.28-.07-.56-.12-.84.06.34.15,1.24.05.39-.14-1.21-.28-2.43-.4-3.64a101.51,101.51,0,0,0-2.26-15.34,6.32,6.32,0,0,0-7.7-4.37,6.4,6.4,0,0,0-4.38,7.7c.94,4.33,2.12,8.61,3.07,12.93.24,1.08.46,2.15.66,3.23.1.54.2,1.08.29,1.62,0,.18.27,2,.15,1s.09.83.11,1c.05.53.09,1.07.12,1.61.07,1.14.09,2.28.07,3.42l7.92-6a17.67,17.67,0,0,1-2.38-.61L755,274c-.44-.18-.25-.09.57.25L755,274c-1.59-.73-3.13-1.57-4.66-2.41a64.21,64.21,0,0,0-10.55-5c-3-1-6.24.92-7.39,3.63s-.22,6.39,2.57,7.82c5.13,2.62,10.35,5.07,15.36,7.92,2.85,1.62,7,.77,8.57-2.24a6.37,6.37,0,0,0-2.25-8.57Z"/><circle class="cls-9" cx="515.5" cy="407.52" r="17.03"/><circle class="cls-9" cx="632.75" cy="378.29" r="17.03"/><polygon class="cls-10" points="468.39 513.03 705.63 435.68 728.23 529.54 490.99 616.44 468.39 513.03"/><path class="cls-11" d="M354.55,490.43c2.61,1.74,104.28,20.86,104.28,20.86L482.3,616.44l-109.5-36.5Z"/></g></g></svg>