<svg id="Layer_1" data-name="Layer 1" xmlns="http://www.w3.org/2000/svg" viewBox="0 0 310 310"><defs><style>.cls-1{fill:#757576;}.cls-2{fill:#616261;}.cls-3{fill:#9e9e9e;}</style></defs><path class="cls-1" d="M83.18,83.45s-3.31-9.74-13.09-12.94c-7.82-2.55-13,.08-13,.08S63,79,68.86,80.93s14.32,2.52,14.32,2.52"/><path class="cls-2" d="M89.19,89.69a2.33,2.33,0,0,1-2.85-1.64h0c-2.07-7.7-1.31-15.53,2.12-21.48a2.32,2.32,0,0,1,4,2.31c-2.82,4.89-3.42,11.44-1.66,18a2.32,2.32,0,0,1-1.63,2.85h0"/><path class="cls-2" d="M176.45,35.33l-.71,7.26a1.89,1.89,0,0,1-2.12,1.6l-21.31-2.14a1.88,1.88,0,0,1-1.76-2h0l.71-7.25c.35-3.55,7.28-3.61,13-3S176.8,31.79,176.45,35.33Z"/><path class="cls-1" d="M241.08,252.44c0-12.75,3.71-119.62,3.71-120.24,0-6.19-2.75-11.46-6.67-11.46-2.79,0-5.45,2.75-6.61,6.83a1.83,1.83,0,0,1-3.23.59,6,6,0,0,0-4.65-2.78c-3.92,0-7.23,5.22-7.23,11.41l0,141Z"/><path class="cls-1" d="M199.47,128.22h-.05A11.77,11.77,0,0,0,188.61,135a1.84,1.84,0,0,1-3.34,0,11.87,11.87,0,0,0-10.86-6.83h0a11.75,11.75,0,0,0-10.81,6.75,1.84,1.84,0,0,1-1.68,1.07h0a1.83,1.83,0,0,1-1.67-1.07,11.86,11.86,0,0,0-10.87-6.82h0a11.73,11.73,0,0,0-10.8,6.75,1.85,1.85,0,0,1-3.35,0,11.69,11.69,0,0,0-8.23-6.54h0a11,11,0,0,0-1.17-.19l-.27,0a11.7,11.7,0,0,0-1.19-.07h0c-.28,0-.55,0-.82,0l-.57,0-.21,0-.72.11h0a11.89,11.89,0,0,0-3.19,1.08h0a10.28,10.28,0,0,0-1.11.64h0a12.2,12.2,0,0,0-1,.73l0,0a11.13,11.13,0,0,0-.88.8l-.12.13c-.26.27-.5.55-.73.84l0,.06a10,10,0,0,0-.65,1,2.53,2.53,0,0,0-.13.22,10.09,10.09,0,0,0-.54,1,1.85,1.85,0,0,1-3.35,0,11.88,11.88,0,0,0-10.86-6.83h0a11.77,11.77,0,0,0-10.82,6.75,1.85,1.85,0,0,1-3.35,0,11.86,11.86,0,0,0-10.86-6.82h0c-.36,0-.71,0-1.06,0l-.4,0c-.21,0-.42,0-.63.09l-.48.09-.53.13-.49.13h0q-.41.12-.81.27l-.36.15c-.27.11-.54.23-.8.36l-.24.13c-.23.12-.45.26-.67.39l-.23.14q-.41.27-.78.57l-.18.14c-.26.22-.52.44-.77.68a10.7,10.7,0,0,0-3.31,7.73,3.08,3.08,0,0,1,0,.51h0L73.26,274.52l137.93,6V140a4.78,4.78,0,0,1,.06-.53C211.26,133.25,206,128.24,199.47,128.22Z"/><path class="cls-2" d="M86.71,130.33a13.77,13.77,0,0,1,25.05.08,13.54,13.54,0,0,1,10-7.78,59.27,59.27,0,0,0-.32-30.26C117.77,78.81,107,77.55,99.29,79.64c-5.81,1.57-5.29,3.5-11.1,5.07s-6.34-.37-12.15,1.2c-7.75,2.1-16.39,8.58-12.73,22.14a61.82,61.82,0,0,0,6.26,15,13.84,13.84,0,0,1,17.14,7.31Z"/><path class="cls-2" d="M212.21,131.27a13.76,13.76,0,0,0-25.27-.62,13.4,13.4,0,0,0-4.23-5.32L190,105.87c6.9.91,14.37,4.2,18.66,12.28a2.45,2.45,0,0,0,2.17,1.3,2.5,2.5,0,0,0,1.15-.28,2.46,2.46,0,0,0,1-3.32c-4.94-9.3-13.34-13.33-21.25-14.62l5.69-15.15c7.43.49,16,3.58,20.76,12.49a2.45,2.45,0,0,0,2.17,1.3,2.39,2.39,0,0,0,1.15-.29,2.44,2.44,0,0,0,1-3.31c-5.38-10.13-14.85-14-23.32-14.9L203.86,69c.28-.73.56-1.37.84-2.07,7.88,0,17.82,2.72,23.05,12.56a2.45,2.45,0,0,0,2.17,1.3,2.39,2.39,0,0,0,1.15-.29,2.46,2.46,0,0,0,1-3.32c-5.8-10.91-16.35-14.56-25.29-15,4.58-9.68,10.08-15.73,19.71-19.38,20.15-3.58,32.78,14.82,23.09,43.07l-10,26.44-1.57,4.8c-3.67,0-7,2.56-8.94,6.64a8.66,8.66,0,0,0-5.44-2c-4.4,0-8.12,3.45-9.85,8.53C213.42,131.49,212.54,132.13,212.21,131.27Z"/><path class="cls-3" d="M178.33,70l0,0a.81.81,0,0,0-.09-.1c-2.91-2.71-4.33-6-4.66-10.59l0-4.86c.1-1.54.26-3.09.42-4.58a2.43,2.43,0,0,0-2.14-2.67L152.8,45.1a2.42,2.42,0,0,0-2.66,2.15c-.16,1.49-.33,3-.57,4.57l-1,4.75c-1.3,4.49-3.48,7.39-7,9.43l-.07,0c-8.82,5.16-9.38,10.28-10.14,17.32l-4.27,39.33a13.61,13.61,0,0,1,9.7,7.79,13.78,13.78,0,0,1,25.06.08,13.58,13.58,0,0,1,12.53-8,14,14,0,0,1,6.39,1.57l3.79-35C185.36,82.07,185.91,77,178.33,70ZM137.76,92.05a1.59,1.59,0,0,1-3.11-.64,1.59,1.59,0,1,1,3.11.64Zm13.08-26.26c-1.38,3.85-3.54,5.25-5.63,6.61-2.91,1.89-5.92,3.85-7.22,14a1.21,1.21,0,0,1-1.21,1.06h-.15a1.22,1.22,0,0,1-1.06-1.36c1.44-11.27,5.09-13.64,8.31-15.73,1.91-1.25,3.57-2.32,4.66-5.39a1.23,1.23,0,0,1,1.56-.74A1.22,1.22,0,0,1,150.84,65.79Z"/></svg>